G04 #@! TF.GenerationSoftware,KiCad,Pcbnew,(5.1.5)-3*
G04 #@! TF.CreationDate,2020-06-01T03:43:57-04:00*
G04 #@! TF.ProjectId,6526KernalSwitcher,36353236-4b65-4726-9e61-6c5377697463,rev?*
G04 #@! TF.SameCoordinates,Original*
G04 #@! TF.FileFunction,Soldermask,Bot*
G04 #@! TF.FilePolarity,Negative*
%FSLAX46Y46*%
G04 Gerber Fmt 4.6, Leading zero omitted, Abs format (unit mm)*
G04 Created by KiCad (PCBNEW (5.1.5)-3) date 2020-06-01 03:43:57*
%MOMM*%
%LPD*%
G04 APERTURE LIST*
%ADD10C,0.300000*%
%ADD11C,0.100000*%
G04 APERTURE END LIST*
D10*
X110776857Y-97487285D02*
X110705428Y-97273000D01*
X110705428Y-96915857D01*
X110776857Y-96773000D01*
X110848285Y-96701571D01*
X110991142Y-96630142D01*
X111134000Y-96630142D01*
X111276857Y-96701571D01*
X111348285Y-96773000D01*
X111419714Y-96915857D01*
X111491142Y-97201571D01*
X111562571Y-97344428D01*
X111634000Y-97415857D01*
X111776857Y-97487285D01*
X111919714Y-97487285D01*
X112062571Y-97415857D01*
X112134000Y-97344428D01*
X112205428Y-97201571D01*
X112205428Y-96844428D01*
X112134000Y-96630142D01*
X111705428Y-96130142D02*
X110705428Y-95773000D01*
X111705428Y-95415857D01*
X110776857Y-94273000D02*
X110705428Y-94415857D01*
X110705428Y-94701571D01*
X110776857Y-94844428D01*
X110919714Y-94915857D01*
X111491142Y-94915857D01*
X111634000Y-94844428D01*
X111705428Y-94701571D01*
X111705428Y-94415857D01*
X111634000Y-94273000D01*
X111491142Y-94201571D01*
X111348285Y-94201571D01*
X111205428Y-94915857D01*
X111705428Y-93558714D02*
X110705428Y-93558714D01*
X111562571Y-93558714D02*
X111634000Y-93487285D01*
X111705428Y-93344428D01*
X111705428Y-93130142D01*
X111634000Y-92987285D01*
X111491142Y-92915857D01*
X110705428Y-92915857D01*
X110705428Y-91058714D02*
X112205428Y-91058714D01*
X112205428Y-90487285D01*
X112134000Y-90344428D01*
X112062571Y-90273000D01*
X111919714Y-90201571D01*
X111705428Y-90201571D01*
X111562571Y-90273000D01*
X111491142Y-90344428D01*
X111419714Y-90487285D01*
X111419714Y-91058714D01*
X110776857Y-88987285D02*
X110705428Y-89130142D01*
X110705428Y-89415857D01*
X110776857Y-89558714D01*
X110919714Y-89630142D01*
X111491142Y-89630142D01*
X111634000Y-89558714D01*
X111705428Y-89415857D01*
X111705428Y-89130142D01*
X111634000Y-88987285D01*
X111491142Y-88915857D01*
X111348285Y-88915857D01*
X111205428Y-89630142D01*
X111705428Y-88487285D02*
X111705428Y-87915857D01*
X112205428Y-88273000D02*
X110919714Y-88273000D01*
X110776857Y-88201571D01*
X110705428Y-88058714D01*
X110705428Y-87915857D01*
X110776857Y-86844428D02*
X110705428Y-86987285D01*
X110705428Y-87273000D01*
X110776857Y-87415857D01*
X110919714Y-87487285D01*
X111491142Y-87487285D01*
X111634000Y-87415857D01*
X111705428Y-87273000D01*
X111705428Y-86987285D01*
X111634000Y-86844428D01*
X111491142Y-86773000D01*
X111348285Y-86773000D01*
X111205428Y-87487285D01*
X110705428Y-86130142D02*
X111705428Y-86130142D01*
X111419714Y-86130142D02*
X111562571Y-86058714D01*
X111634000Y-85987285D01*
X111705428Y-85844428D01*
X111705428Y-85701571D01*
X110776857Y-85273000D02*
X110705428Y-85130142D01*
X110705428Y-84844428D01*
X110776857Y-84701571D01*
X110919714Y-84630142D01*
X110991142Y-84630142D01*
X111134000Y-84701571D01*
X111205428Y-84844428D01*
X111205428Y-85058714D01*
X111276857Y-85201571D01*
X111419714Y-85273000D01*
X111491142Y-85273000D01*
X111634000Y-85201571D01*
X111705428Y-85058714D01*
X111705428Y-84844428D01*
X111634000Y-84701571D01*
X110776857Y-83415857D02*
X110705428Y-83558714D01*
X110705428Y-83844428D01*
X110776857Y-83987285D01*
X110919714Y-84058714D01*
X111491142Y-84058714D01*
X111634000Y-83987285D01*
X111705428Y-83844428D01*
X111705428Y-83558714D01*
X111634000Y-83415857D01*
X111491142Y-83344428D01*
X111348285Y-83344428D01*
X111205428Y-84058714D01*
X111705428Y-82701571D02*
X110705428Y-82701571D01*
X111562571Y-82701571D02*
X111634000Y-82630142D01*
X111705428Y-82487285D01*
X111705428Y-82273000D01*
X111634000Y-82130142D01*
X111491142Y-82058714D01*
X110705428Y-82058714D01*
X112205428Y-81273000D02*
X111919714Y-81415857D01*
X110776857Y-80701571D02*
X110705428Y-80558714D01*
X110705428Y-80273000D01*
X110776857Y-80130142D01*
X110919714Y-80058714D01*
X110991142Y-80058714D01*
X111134000Y-80130142D01*
X111205428Y-80273000D01*
X111205428Y-80487285D01*
X111276857Y-80630142D01*
X111419714Y-80701571D01*
X111491142Y-80701571D01*
X111634000Y-80630142D01*
X111705428Y-80487285D01*
X111705428Y-80273000D01*
X111634000Y-80130142D01*
X108155428Y-97308714D02*
X109655428Y-97308714D01*
X108155428Y-96451571D02*
X109012571Y-97094428D01*
X109655428Y-96451571D02*
X108798285Y-97308714D01*
X108226857Y-95237285D02*
X108155428Y-95380142D01*
X108155428Y-95665857D01*
X108226857Y-95808714D01*
X108369714Y-95880142D01*
X108941142Y-95880142D01*
X109084000Y-95808714D01*
X109155428Y-95665857D01*
X109155428Y-95380142D01*
X109084000Y-95237285D01*
X108941142Y-95165857D01*
X108798285Y-95165857D01*
X108655428Y-95880142D01*
X108155428Y-94523000D02*
X109155428Y-94523000D01*
X108869714Y-94523000D02*
X109012571Y-94451571D01*
X109084000Y-94380142D01*
X109155428Y-94237285D01*
X109155428Y-94094428D01*
X109155428Y-93594428D02*
X108155428Y-93594428D01*
X109012571Y-93594428D02*
X109084000Y-93523000D01*
X109155428Y-93380142D01*
X109155428Y-93165857D01*
X109084000Y-93023000D01*
X108941142Y-92951571D01*
X108155428Y-92951571D01*
X108155428Y-91594428D02*
X108941142Y-91594428D01*
X109084000Y-91665857D01*
X109155428Y-91808714D01*
X109155428Y-92094428D01*
X109084000Y-92237285D01*
X108226857Y-91594428D02*
X108155428Y-91737285D01*
X108155428Y-92094428D01*
X108226857Y-92237285D01*
X108369714Y-92308714D01*
X108512571Y-92308714D01*
X108655428Y-92237285D01*
X108726857Y-92094428D01*
X108726857Y-91737285D01*
X108798285Y-91594428D01*
X108155428Y-90665857D02*
X108226857Y-90808714D01*
X108369714Y-90880142D01*
X109655428Y-90880142D01*
X108226857Y-89023000D02*
X108155428Y-88808714D01*
X108155428Y-88451571D01*
X108226857Y-88308714D01*
X108298285Y-88237285D01*
X108441142Y-88165857D01*
X108584000Y-88165857D01*
X108726857Y-88237285D01*
X108798285Y-88308714D01*
X108869714Y-88451571D01*
X108941142Y-88737285D01*
X109012571Y-88880142D01*
X109084000Y-88951571D01*
X109226857Y-89023000D01*
X109369714Y-89023000D01*
X109512571Y-88951571D01*
X109584000Y-88880142D01*
X109655428Y-88737285D01*
X109655428Y-88380142D01*
X109584000Y-88165857D01*
X109155428Y-87665857D02*
X108155428Y-87380142D01*
X108869714Y-87094428D01*
X108155428Y-86808714D01*
X109155428Y-86523000D01*
X108155428Y-85951571D02*
X109155428Y-85951571D01*
X109655428Y-85951571D02*
X109584000Y-86023000D01*
X109512571Y-85951571D01*
X109584000Y-85880142D01*
X109655428Y-85951571D01*
X109512571Y-85951571D01*
X109155428Y-85451571D02*
X109155428Y-84880142D01*
X109655428Y-85237285D02*
X108369714Y-85237285D01*
X108226857Y-85165857D01*
X108155428Y-85023000D01*
X108155428Y-84880142D01*
X108226857Y-83737285D02*
X108155428Y-83880142D01*
X108155428Y-84165857D01*
X108226857Y-84308714D01*
X108298285Y-84380142D01*
X108441142Y-84451571D01*
X108869714Y-84451571D01*
X109012571Y-84380142D01*
X109084000Y-84308714D01*
X109155428Y-84165857D01*
X109155428Y-83880142D01*
X109084000Y-83737285D01*
X108155428Y-83094428D02*
X109655428Y-83094428D01*
X108155428Y-82451571D02*
X108941142Y-82451571D01*
X109084000Y-82523000D01*
X109155428Y-82665857D01*
X109155428Y-82880142D01*
X109084000Y-83023000D01*
X109012571Y-83094428D01*
X108226857Y-81165857D02*
X108155428Y-81308714D01*
X108155428Y-81594428D01*
X108226857Y-81737285D01*
X108369714Y-81808714D01*
X108941142Y-81808714D01*
X109084000Y-81737285D01*
X109155428Y-81594428D01*
X109155428Y-81308714D01*
X109084000Y-81165857D01*
X108941142Y-81094428D01*
X108798285Y-81094428D01*
X108655428Y-81808714D01*
X108155428Y-80451571D02*
X109155428Y-80451571D01*
X108869714Y-80451571D02*
X109012571Y-80380142D01*
X109084000Y-80308714D01*
X109155428Y-80165857D01*
X109155428Y-80023000D01*
D11*
G36*
X112661000Y-105041000D02*
G01*
X110859000Y-105041000D01*
X110859000Y-103239000D01*
X112661000Y-103239000D01*
X112661000Y-105041000D01*
G37*
G36*
X101713512Y-103243927D02*
G01*
X101862812Y-103273624D01*
X102026784Y-103341544D01*
X102174354Y-103440147D01*
X102299853Y-103565646D01*
X102398456Y-103713216D01*
X102466376Y-103877188D01*
X102501000Y-104051259D01*
X102501000Y-104228741D01*
X102466376Y-104402812D01*
X102398456Y-104566784D01*
X102299853Y-104714354D01*
X102174354Y-104839853D01*
X102026784Y-104938456D01*
X101862812Y-105006376D01*
X101713512Y-105036073D01*
X101688742Y-105041000D01*
X101511258Y-105041000D01*
X101486488Y-105036073D01*
X101337188Y-105006376D01*
X101173216Y-104938456D01*
X101025646Y-104839853D01*
X100900147Y-104714354D01*
X100801544Y-104566784D01*
X100733624Y-104402812D01*
X100699000Y-104228741D01*
X100699000Y-104051259D01*
X100733624Y-103877188D01*
X100801544Y-103713216D01*
X100900147Y-103565646D01*
X101025646Y-103440147D01*
X101173216Y-103341544D01*
X101337188Y-103273624D01*
X101486488Y-103243927D01*
X101511258Y-103239000D01*
X101688742Y-103239000D01*
X101713512Y-103243927D01*
G37*
G36*
X104253512Y-103243927D02*
G01*
X104402812Y-103273624D01*
X104566784Y-103341544D01*
X104714354Y-103440147D01*
X104839853Y-103565646D01*
X104938456Y-103713216D01*
X105006376Y-103877188D01*
X105041000Y-104051259D01*
X105041000Y-104228741D01*
X105006376Y-104402812D01*
X104938456Y-104566784D01*
X104839853Y-104714354D01*
X104714354Y-104839853D01*
X104566784Y-104938456D01*
X104402812Y-105006376D01*
X104253512Y-105036073D01*
X104228742Y-105041000D01*
X104051258Y-105041000D01*
X104026488Y-105036073D01*
X103877188Y-105006376D01*
X103713216Y-104938456D01*
X103565646Y-104839853D01*
X103440147Y-104714354D01*
X103341544Y-104566784D01*
X103273624Y-104402812D01*
X103239000Y-104228741D01*
X103239000Y-104051259D01*
X103273624Y-103877188D01*
X103341544Y-103713216D01*
X103440147Y-103565646D01*
X103565646Y-103440147D01*
X103713216Y-103341544D01*
X103877188Y-103273624D01*
X104026488Y-103243927D01*
X104051258Y-103239000D01*
X104228742Y-103239000D01*
X104253512Y-103243927D01*
G37*
G36*
X109333512Y-103243927D02*
G01*
X109482812Y-103273624D01*
X109646784Y-103341544D01*
X109794354Y-103440147D01*
X109919853Y-103565646D01*
X110018456Y-103713216D01*
X110086376Y-103877188D01*
X110121000Y-104051259D01*
X110121000Y-104228741D01*
X110086376Y-104402812D01*
X110018456Y-104566784D01*
X109919853Y-104714354D01*
X109794354Y-104839853D01*
X109646784Y-104938456D01*
X109482812Y-105006376D01*
X109333512Y-105036073D01*
X109308742Y-105041000D01*
X109131258Y-105041000D01*
X109106488Y-105036073D01*
X108957188Y-105006376D01*
X108793216Y-104938456D01*
X108645646Y-104839853D01*
X108520147Y-104714354D01*
X108421544Y-104566784D01*
X108353624Y-104402812D01*
X108319000Y-104228741D01*
X108319000Y-104051259D01*
X108353624Y-103877188D01*
X108421544Y-103713216D01*
X108520147Y-103565646D01*
X108645646Y-103440147D01*
X108793216Y-103341544D01*
X108957188Y-103273624D01*
X109106488Y-103243927D01*
X109131258Y-103239000D01*
X109308742Y-103239000D01*
X109333512Y-103243927D01*
G37*
G36*
X106793512Y-103243927D02*
G01*
X106942812Y-103273624D01*
X107106784Y-103341544D01*
X107254354Y-103440147D01*
X107379853Y-103565646D01*
X107478456Y-103713216D01*
X107546376Y-103877188D01*
X107581000Y-104051259D01*
X107581000Y-104228741D01*
X107546376Y-104402812D01*
X107478456Y-104566784D01*
X107379853Y-104714354D01*
X107254354Y-104839853D01*
X107106784Y-104938456D01*
X106942812Y-105006376D01*
X106793512Y-105036073D01*
X106768742Y-105041000D01*
X106591258Y-105041000D01*
X106566488Y-105036073D01*
X106417188Y-105006376D01*
X106253216Y-104938456D01*
X106105646Y-104839853D01*
X105980147Y-104714354D01*
X105881544Y-104566784D01*
X105813624Y-104402812D01*
X105779000Y-104228741D01*
X105779000Y-104051259D01*
X105813624Y-103877188D01*
X105881544Y-103713216D01*
X105980147Y-103565646D01*
X106105646Y-103440147D01*
X106253216Y-103341544D01*
X106417188Y-103273624D01*
X106566488Y-103243927D01*
X106591258Y-103239000D01*
X106768742Y-103239000D01*
X106793512Y-103243927D01*
G37*
G36*
X108792674Y-100860465D02*
G01*
X108830367Y-100871899D01*
X108865103Y-100890466D01*
X108895548Y-100915452D01*
X108920534Y-100945897D01*
X108939101Y-100980633D01*
X108950535Y-101018326D01*
X108955000Y-101063661D01*
X108955000Y-101900339D01*
X108950535Y-101945674D01*
X108939101Y-101983367D01*
X108920534Y-102018103D01*
X108895548Y-102048548D01*
X108865103Y-102073534D01*
X108830367Y-102092101D01*
X108792674Y-102103535D01*
X108747339Y-102108000D01*
X107660661Y-102108000D01*
X107615326Y-102103535D01*
X107577633Y-102092101D01*
X107542897Y-102073534D01*
X107512452Y-102048548D01*
X107487466Y-102018103D01*
X107468899Y-101983367D01*
X107457465Y-101945674D01*
X107453000Y-101900339D01*
X107453000Y-101063661D01*
X107457465Y-101018326D01*
X107468899Y-100980633D01*
X107487466Y-100945897D01*
X107512452Y-100915452D01*
X107542897Y-100890466D01*
X107577633Y-100871899D01*
X107615326Y-100860465D01*
X107660661Y-100856000D01*
X108747339Y-100856000D01*
X108792674Y-100860465D01*
G37*
G36*
X104474674Y-100860465D02*
G01*
X104512367Y-100871899D01*
X104547103Y-100890466D01*
X104577548Y-100915452D01*
X104602534Y-100945897D01*
X104621101Y-100980633D01*
X104632535Y-101018326D01*
X104637000Y-101063661D01*
X104637000Y-101900339D01*
X104632535Y-101945674D01*
X104621101Y-101983367D01*
X104602534Y-102018103D01*
X104577548Y-102048548D01*
X104547103Y-102073534D01*
X104512367Y-102092101D01*
X104474674Y-102103535D01*
X104429339Y-102108000D01*
X103342661Y-102108000D01*
X103297326Y-102103535D01*
X103259633Y-102092101D01*
X103224897Y-102073534D01*
X103194452Y-102048548D01*
X103169466Y-102018103D01*
X103150899Y-101983367D01*
X103139465Y-101945674D01*
X103135000Y-101900339D01*
X103135000Y-101063661D01*
X103139465Y-101018326D01*
X103150899Y-100980633D01*
X103169466Y-100945897D01*
X103194452Y-100915452D01*
X103224897Y-100890466D01*
X103259633Y-100871899D01*
X103297326Y-100860465D01*
X103342661Y-100856000D01*
X104429339Y-100856000D01*
X104474674Y-100860465D01*
G37*
G36*
X106633674Y-100860465D02*
G01*
X106671367Y-100871899D01*
X106706103Y-100890466D01*
X106736548Y-100915452D01*
X106761534Y-100945897D01*
X106780101Y-100980633D01*
X106791535Y-101018326D01*
X106796000Y-101063661D01*
X106796000Y-101900339D01*
X106791535Y-101945674D01*
X106780101Y-101983367D01*
X106761534Y-102018103D01*
X106736548Y-102048548D01*
X106706103Y-102073534D01*
X106671367Y-102092101D01*
X106633674Y-102103535D01*
X106588339Y-102108000D01*
X105501661Y-102108000D01*
X105456326Y-102103535D01*
X105418633Y-102092101D01*
X105383897Y-102073534D01*
X105353452Y-102048548D01*
X105328466Y-102018103D01*
X105309899Y-101983367D01*
X105298465Y-101945674D01*
X105294000Y-101900339D01*
X105294000Y-101063661D01*
X105298465Y-101018326D01*
X105309899Y-100980633D01*
X105328466Y-100945897D01*
X105353452Y-100915452D01*
X105383897Y-100890466D01*
X105418633Y-100871899D01*
X105456326Y-100860465D01*
X105501661Y-100856000D01*
X106588339Y-100856000D01*
X106633674Y-100860465D01*
G37*
G36*
X104474674Y-98810465D02*
G01*
X104512367Y-98821899D01*
X104547103Y-98840466D01*
X104577548Y-98865452D01*
X104602534Y-98895897D01*
X104621101Y-98930633D01*
X104632535Y-98968326D01*
X104637000Y-99013661D01*
X104637000Y-99850339D01*
X104632535Y-99895674D01*
X104621101Y-99933367D01*
X104602534Y-99968103D01*
X104577548Y-99998548D01*
X104547103Y-100023534D01*
X104512367Y-100042101D01*
X104474674Y-100053535D01*
X104429339Y-100058000D01*
X103342661Y-100058000D01*
X103297326Y-100053535D01*
X103259633Y-100042101D01*
X103224897Y-100023534D01*
X103194452Y-99998548D01*
X103169466Y-99968103D01*
X103150899Y-99933367D01*
X103139465Y-99895674D01*
X103135000Y-99850339D01*
X103135000Y-99013661D01*
X103139465Y-98968326D01*
X103150899Y-98930633D01*
X103169466Y-98895897D01*
X103194452Y-98865452D01*
X103224897Y-98840466D01*
X103259633Y-98821899D01*
X103297326Y-98810465D01*
X103342661Y-98806000D01*
X104429339Y-98806000D01*
X104474674Y-98810465D01*
G37*
G36*
X106633674Y-98810465D02*
G01*
X106671367Y-98821899D01*
X106706103Y-98840466D01*
X106736548Y-98865452D01*
X106761534Y-98895897D01*
X106780101Y-98930633D01*
X106791535Y-98968326D01*
X106796000Y-99013661D01*
X106796000Y-99850339D01*
X106791535Y-99895674D01*
X106780101Y-99933367D01*
X106761534Y-99968103D01*
X106736548Y-99998548D01*
X106706103Y-100023534D01*
X106671367Y-100042101D01*
X106633674Y-100053535D01*
X106588339Y-100058000D01*
X105501661Y-100058000D01*
X105456326Y-100053535D01*
X105418633Y-100042101D01*
X105383897Y-100023534D01*
X105353452Y-99998548D01*
X105328466Y-99968103D01*
X105309899Y-99933367D01*
X105298465Y-99895674D01*
X105294000Y-99850339D01*
X105294000Y-99013661D01*
X105298465Y-98968326D01*
X105309899Y-98930633D01*
X105328466Y-98895897D01*
X105353452Y-98865452D01*
X105383897Y-98840466D01*
X105418633Y-98821899D01*
X105456326Y-98810465D01*
X105501661Y-98806000D01*
X106588339Y-98806000D01*
X106633674Y-98810465D01*
G37*
G36*
X108792674Y-98810465D02*
G01*
X108830367Y-98821899D01*
X108865103Y-98840466D01*
X108895548Y-98865452D01*
X108920534Y-98895897D01*
X108939101Y-98930633D01*
X108950535Y-98968326D01*
X108955000Y-99013661D01*
X108955000Y-99850339D01*
X108950535Y-99895674D01*
X108939101Y-99933367D01*
X108920534Y-99968103D01*
X108895548Y-99998548D01*
X108865103Y-100023534D01*
X108830367Y-100042101D01*
X108792674Y-100053535D01*
X108747339Y-100058000D01*
X107660661Y-100058000D01*
X107615326Y-100053535D01*
X107577633Y-100042101D01*
X107542897Y-100023534D01*
X107512452Y-99998548D01*
X107487466Y-99968103D01*
X107468899Y-99933367D01*
X107457465Y-99895674D01*
X107453000Y-99850339D01*
X107453000Y-99013661D01*
X107457465Y-98968326D01*
X107468899Y-98930633D01*
X107487466Y-98895897D01*
X107512452Y-98865452D01*
X107542897Y-98840466D01*
X107577633Y-98821899D01*
X107615326Y-98810465D01*
X107660661Y-98806000D01*
X108747339Y-98806000D01*
X108792674Y-98810465D01*
G37*
G36*
X101848228Y-98241703D02*
G01*
X102003100Y-98305853D01*
X102142481Y-98398985D01*
X102261015Y-98517519D01*
X102354147Y-98656900D01*
X102418297Y-98811772D01*
X102451000Y-98976184D01*
X102451000Y-99143816D01*
X102418297Y-99308228D01*
X102354147Y-99463100D01*
X102261015Y-99602481D01*
X102142481Y-99721015D01*
X102003100Y-99814147D01*
X101848228Y-99878297D01*
X101683816Y-99911000D01*
X101516184Y-99911000D01*
X101351772Y-99878297D01*
X101196900Y-99814147D01*
X101057519Y-99721015D01*
X100938985Y-99602481D01*
X100845853Y-99463100D01*
X100781703Y-99308228D01*
X100749000Y-99143816D01*
X100749000Y-98976184D01*
X100781703Y-98811772D01*
X100845853Y-98656900D01*
X100938985Y-98517519D01*
X101057519Y-98398985D01*
X101196900Y-98305853D01*
X101351772Y-98241703D01*
X101516184Y-98209000D01*
X101683816Y-98209000D01*
X101848228Y-98241703D01*
G37*
G36*
X117088228Y-98241703D02*
G01*
X117243100Y-98305853D01*
X117382481Y-98398985D01*
X117501015Y-98517519D01*
X117594147Y-98656900D01*
X117658297Y-98811772D01*
X117691000Y-98976184D01*
X117691000Y-99143816D01*
X117658297Y-99308228D01*
X117594147Y-99463100D01*
X117501015Y-99602481D01*
X117382481Y-99721015D01*
X117243100Y-99814147D01*
X117088228Y-99878297D01*
X116923816Y-99911000D01*
X116756184Y-99911000D01*
X116591772Y-99878297D01*
X116436900Y-99814147D01*
X116297519Y-99721015D01*
X116178985Y-99602481D01*
X116085853Y-99463100D01*
X116021703Y-99308228D01*
X115989000Y-99143816D01*
X115989000Y-98976184D01*
X116021703Y-98811772D01*
X116085853Y-98656900D01*
X116178985Y-98517519D01*
X116297519Y-98398985D01*
X116436900Y-98305853D01*
X116591772Y-98241703D01*
X116756184Y-98209000D01*
X116923816Y-98209000D01*
X117088228Y-98241703D01*
G37*
G36*
X114548228Y-98241703D02*
G01*
X114703100Y-98305853D01*
X114842481Y-98398985D01*
X114961015Y-98517519D01*
X115054147Y-98656900D01*
X115118297Y-98811772D01*
X115151000Y-98976184D01*
X115151000Y-99143816D01*
X115118297Y-99308228D01*
X115054147Y-99463100D01*
X114961015Y-99602481D01*
X114842481Y-99721015D01*
X114703100Y-99814147D01*
X114548228Y-99878297D01*
X114383816Y-99911000D01*
X114216184Y-99911000D01*
X114051772Y-99878297D01*
X113896900Y-99814147D01*
X113757519Y-99721015D01*
X113638985Y-99602481D01*
X113545853Y-99463100D01*
X113481703Y-99308228D01*
X113449000Y-99143816D01*
X113449000Y-98976184D01*
X113481703Y-98811772D01*
X113545853Y-98656900D01*
X113638985Y-98517519D01*
X113757519Y-98398985D01*
X113896900Y-98305853D01*
X114051772Y-98241703D01*
X114216184Y-98209000D01*
X114383816Y-98209000D01*
X114548228Y-98241703D01*
G37*
G36*
X99308228Y-98241703D02*
G01*
X99463100Y-98305853D01*
X99602481Y-98398985D01*
X99721015Y-98517519D01*
X99814147Y-98656900D01*
X99878297Y-98811772D01*
X99911000Y-98976184D01*
X99911000Y-99143816D01*
X99878297Y-99308228D01*
X99814147Y-99463100D01*
X99721015Y-99602481D01*
X99602481Y-99721015D01*
X99463100Y-99814147D01*
X99308228Y-99878297D01*
X99143816Y-99911000D01*
X98976184Y-99911000D01*
X98811772Y-99878297D01*
X98656900Y-99814147D01*
X98517519Y-99721015D01*
X98398985Y-99602481D01*
X98305853Y-99463100D01*
X98241703Y-99308228D01*
X98209000Y-99143816D01*
X98209000Y-98976184D01*
X98241703Y-98811772D01*
X98305853Y-98656900D01*
X98398985Y-98517519D01*
X98517519Y-98398985D01*
X98656900Y-98305853D01*
X98811772Y-98241703D01*
X98976184Y-98209000D01*
X99143816Y-98209000D01*
X99308228Y-98241703D01*
G37*
G36*
X99308228Y-95701703D02*
G01*
X99463100Y-95765853D01*
X99602481Y-95858985D01*
X99721015Y-95977519D01*
X99814147Y-96116900D01*
X99878297Y-96271772D01*
X99911000Y-96436184D01*
X99911000Y-96603816D01*
X99878297Y-96768228D01*
X99814147Y-96923100D01*
X99721015Y-97062481D01*
X99602481Y-97181015D01*
X99463100Y-97274147D01*
X99308228Y-97338297D01*
X99143816Y-97371000D01*
X98976184Y-97371000D01*
X98811772Y-97338297D01*
X98656900Y-97274147D01*
X98517519Y-97181015D01*
X98398985Y-97062481D01*
X98305853Y-96923100D01*
X98241703Y-96768228D01*
X98209000Y-96603816D01*
X98209000Y-96436184D01*
X98241703Y-96271772D01*
X98305853Y-96116900D01*
X98398985Y-95977519D01*
X98517519Y-95858985D01*
X98656900Y-95765853D01*
X98811772Y-95701703D01*
X98976184Y-95669000D01*
X99143816Y-95669000D01*
X99308228Y-95701703D01*
G37*
G36*
X101848228Y-95701703D02*
G01*
X102003100Y-95765853D01*
X102142481Y-95858985D01*
X102261015Y-95977519D01*
X102354147Y-96116900D01*
X102418297Y-96271772D01*
X102451000Y-96436184D01*
X102451000Y-96603816D01*
X102418297Y-96768228D01*
X102354147Y-96923100D01*
X102261015Y-97062481D01*
X102142481Y-97181015D01*
X102003100Y-97274147D01*
X101848228Y-97338297D01*
X101683816Y-97371000D01*
X101516184Y-97371000D01*
X101351772Y-97338297D01*
X101196900Y-97274147D01*
X101057519Y-97181015D01*
X100938985Y-97062481D01*
X100845853Y-96923100D01*
X100781703Y-96768228D01*
X100749000Y-96603816D01*
X100749000Y-96436184D01*
X100781703Y-96271772D01*
X100845853Y-96116900D01*
X100938985Y-95977519D01*
X101057519Y-95858985D01*
X101196900Y-95765853D01*
X101351772Y-95701703D01*
X101516184Y-95669000D01*
X101683816Y-95669000D01*
X101848228Y-95701703D01*
G37*
G36*
X114548228Y-95701703D02*
G01*
X114703100Y-95765853D01*
X114842481Y-95858985D01*
X114961015Y-95977519D01*
X115054147Y-96116900D01*
X115118297Y-96271772D01*
X115151000Y-96436184D01*
X115151000Y-96603816D01*
X115118297Y-96768228D01*
X115054147Y-96923100D01*
X114961015Y-97062481D01*
X114842481Y-97181015D01*
X114703100Y-97274147D01*
X114548228Y-97338297D01*
X114383816Y-97371000D01*
X114216184Y-97371000D01*
X114051772Y-97338297D01*
X113896900Y-97274147D01*
X113757519Y-97181015D01*
X113638985Y-97062481D01*
X113545853Y-96923100D01*
X113481703Y-96768228D01*
X113449000Y-96603816D01*
X113449000Y-96436184D01*
X113481703Y-96271772D01*
X113545853Y-96116900D01*
X113638985Y-95977519D01*
X113757519Y-95858985D01*
X113896900Y-95765853D01*
X114051772Y-95701703D01*
X114216184Y-95669000D01*
X114383816Y-95669000D01*
X114548228Y-95701703D01*
G37*
G36*
X117088228Y-95701703D02*
G01*
X117243100Y-95765853D01*
X117382481Y-95858985D01*
X117501015Y-95977519D01*
X117594147Y-96116900D01*
X117658297Y-96271772D01*
X117691000Y-96436184D01*
X117691000Y-96603816D01*
X117658297Y-96768228D01*
X117594147Y-96923100D01*
X117501015Y-97062481D01*
X117382481Y-97181015D01*
X117243100Y-97274147D01*
X117088228Y-97338297D01*
X116923816Y-97371000D01*
X116756184Y-97371000D01*
X116591772Y-97338297D01*
X116436900Y-97274147D01*
X116297519Y-97181015D01*
X116178985Y-97062481D01*
X116085853Y-96923100D01*
X116021703Y-96768228D01*
X115989000Y-96603816D01*
X115989000Y-96436184D01*
X116021703Y-96271772D01*
X116085853Y-96116900D01*
X116178985Y-95977519D01*
X116297519Y-95858985D01*
X116436900Y-95765853D01*
X116591772Y-95701703D01*
X116756184Y-95669000D01*
X116923816Y-95669000D01*
X117088228Y-95701703D01*
G37*
G36*
X117088228Y-93161703D02*
G01*
X117243100Y-93225853D01*
X117382481Y-93318985D01*
X117501015Y-93437519D01*
X117594147Y-93576900D01*
X117658297Y-93731772D01*
X117691000Y-93896184D01*
X117691000Y-94063816D01*
X117658297Y-94228228D01*
X117594147Y-94383100D01*
X117501015Y-94522481D01*
X117382481Y-94641015D01*
X117243100Y-94734147D01*
X117088228Y-94798297D01*
X116923816Y-94831000D01*
X116756184Y-94831000D01*
X116591772Y-94798297D01*
X116436900Y-94734147D01*
X116297519Y-94641015D01*
X116178985Y-94522481D01*
X116085853Y-94383100D01*
X116021703Y-94228228D01*
X115989000Y-94063816D01*
X115989000Y-93896184D01*
X116021703Y-93731772D01*
X116085853Y-93576900D01*
X116178985Y-93437519D01*
X116297519Y-93318985D01*
X116436900Y-93225853D01*
X116591772Y-93161703D01*
X116756184Y-93129000D01*
X116923816Y-93129000D01*
X117088228Y-93161703D01*
G37*
G36*
X99308228Y-93161703D02*
G01*
X99463100Y-93225853D01*
X99602481Y-93318985D01*
X99721015Y-93437519D01*
X99814147Y-93576900D01*
X99878297Y-93731772D01*
X99911000Y-93896184D01*
X99911000Y-94063816D01*
X99878297Y-94228228D01*
X99814147Y-94383100D01*
X99721015Y-94522481D01*
X99602481Y-94641015D01*
X99463100Y-94734147D01*
X99308228Y-94798297D01*
X99143816Y-94831000D01*
X98976184Y-94831000D01*
X98811772Y-94798297D01*
X98656900Y-94734147D01*
X98517519Y-94641015D01*
X98398985Y-94522481D01*
X98305853Y-94383100D01*
X98241703Y-94228228D01*
X98209000Y-94063816D01*
X98209000Y-93896184D01*
X98241703Y-93731772D01*
X98305853Y-93576900D01*
X98398985Y-93437519D01*
X98517519Y-93318985D01*
X98656900Y-93225853D01*
X98811772Y-93161703D01*
X98976184Y-93129000D01*
X99143816Y-93129000D01*
X99308228Y-93161703D01*
G37*
G36*
X114548228Y-93161703D02*
G01*
X114703100Y-93225853D01*
X114842481Y-93318985D01*
X114961015Y-93437519D01*
X115054147Y-93576900D01*
X115118297Y-93731772D01*
X115151000Y-93896184D01*
X115151000Y-94063816D01*
X115118297Y-94228228D01*
X115054147Y-94383100D01*
X114961015Y-94522481D01*
X114842481Y-94641015D01*
X114703100Y-94734147D01*
X114548228Y-94798297D01*
X114383816Y-94831000D01*
X114216184Y-94831000D01*
X114051772Y-94798297D01*
X113896900Y-94734147D01*
X113757519Y-94641015D01*
X113638985Y-94522481D01*
X113545853Y-94383100D01*
X113481703Y-94228228D01*
X113449000Y-94063816D01*
X113449000Y-93896184D01*
X113481703Y-93731772D01*
X113545853Y-93576900D01*
X113638985Y-93437519D01*
X113757519Y-93318985D01*
X113896900Y-93225853D01*
X114051772Y-93161703D01*
X114216184Y-93129000D01*
X114383816Y-93129000D01*
X114548228Y-93161703D01*
G37*
G36*
X101848228Y-93161703D02*
G01*
X102003100Y-93225853D01*
X102142481Y-93318985D01*
X102261015Y-93437519D01*
X102354147Y-93576900D01*
X102418297Y-93731772D01*
X102451000Y-93896184D01*
X102451000Y-94063816D01*
X102418297Y-94228228D01*
X102354147Y-94383100D01*
X102261015Y-94522481D01*
X102142481Y-94641015D01*
X102003100Y-94734147D01*
X101848228Y-94798297D01*
X101683816Y-94831000D01*
X101516184Y-94831000D01*
X101351772Y-94798297D01*
X101196900Y-94734147D01*
X101057519Y-94641015D01*
X100938985Y-94522481D01*
X100845853Y-94383100D01*
X100781703Y-94228228D01*
X100749000Y-94063816D01*
X100749000Y-93896184D01*
X100781703Y-93731772D01*
X100845853Y-93576900D01*
X100938985Y-93437519D01*
X101057519Y-93318985D01*
X101196900Y-93225853D01*
X101351772Y-93161703D01*
X101516184Y-93129000D01*
X101683816Y-93129000D01*
X101848228Y-93161703D01*
G37*
G36*
X117088228Y-90621703D02*
G01*
X117243100Y-90685853D01*
X117382481Y-90778985D01*
X117501015Y-90897519D01*
X117594147Y-91036900D01*
X117658297Y-91191772D01*
X117691000Y-91356184D01*
X117691000Y-91523816D01*
X117658297Y-91688228D01*
X117594147Y-91843100D01*
X117501015Y-91982481D01*
X117382481Y-92101015D01*
X117243100Y-92194147D01*
X117088228Y-92258297D01*
X116923816Y-92291000D01*
X116756184Y-92291000D01*
X116591772Y-92258297D01*
X116436900Y-92194147D01*
X116297519Y-92101015D01*
X116178985Y-91982481D01*
X116085853Y-91843100D01*
X116021703Y-91688228D01*
X115989000Y-91523816D01*
X115989000Y-91356184D01*
X116021703Y-91191772D01*
X116085853Y-91036900D01*
X116178985Y-90897519D01*
X116297519Y-90778985D01*
X116436900Y-90685853D01*
X116591772Y-90621703D01*
X116756184Y-90589000D01*
X116923816Y-90589000D01*
X117088228Y-90621703D01*
G37*
G36*
X114548228Y-90621703D02*
G01*
X114703100Y-90685853D01*
X114842481Y-90778985D01*
X114961015Y-90897519D01*
X115054147Y-91036900D01*
X115118297Y-91191772D01*
X115151000Y-91356184D01*
X115151000Y-91523816D01*
X115118297Y-91688228D01*
X115054147Y-91843100D01*
X114961015Y-91982481D01*
X114842481Y-92101015D01*
X114703100Y-92194147D01*
X114548228Y-92258297D01*
X114383816Y-92291000D01*
X114216184Y-92291000D01*
X114051772Y-92258297D01*
X113896900Y-92194147D01*
X113757519Y-92101015D01*
X113638985Y-91982481D01*
X113545853Y-91843100D01*
X113481703Y-91688228D01*
X113449000Y-91523816D01*
X113449000Y-91356184D01*
X113481703Y-91191772D01*
X113545853Y-91036900D01*
X113638985Y-90897519D01*
X113757519Y-90778985D01*
X113896900Y-90685853D01*
X114051772Y-90621703D01*
X114216184Y-90589000D01*
X114383816Y-90589000D01*
X114548228Y-90621703D01*
G37*
G36*
X99308228Y-90621703D02*
G01*
X99463100Y-90685853D01*
X99602481Y-90778985D01*
X99721015Y-90897519D01*
X99814147Y-91036900D01*
X99878297Y-91191772D01*
X99911000Y-91356184D01*
X99911000Y-91523816D01*
X99878297Y-91688228D01*
X99814147Y-91843100D01*
X99721015Y-91982481D01*
X99602481Y-92101015D01*
X99463100Y-92194147D01*
X99308228Y-92258297D01*
X99143816Y-92291000D01*
X98976184Y-92291000D01*
X98811772Y-92258297D01*
X98656900Y-92194147D01*
X98517519Y-92101015D01*
X98398985Y-91982481D01*
X98305853Y-91843100D01*
X98241703Y-91688228D01*
X98209000Y-91523816D01*
X98209000Y-91356184D01*
X98241703Y-91191772D01*
X98305853Y-91036900D01*
X98398985Y-90897519D01*
X98517519Y-90778985D01*
X98656900Y-90685853D01*
X98811772Y-90621703D01*
X98976184Y-90589000D01*
X99143816Y-90589000D01*
X99308228Y-90621703D01*
G37*
G36*
X101848228Y-90621703D02*
G01*
X102003100Y-90685853D01*
X102142481Y-90778985D01*
X102261015Y-90897519D01*
X102354147Y-91036900D01*
X102418297Y-91191772D01*
X102451000Y-91356184D01*
X102451000Y-91523816D01*
X102418297Y-91688228D01*
X102354147Y-91843100D01*
X102261015Y-91982481D01*
X102142481Y-92101015D01*
X102003100Y-92194147D01*
X101848228Y-92258297D01*
X101683816Y-92291000D01*
X101516184Y-92291000D01*
X101351772Y-92258297D01*
X101196900Y-92194147D01*
X101057519Y-92101015D01*
X100938985Y-91982481D01*
X100845853Y-91843100D01*
X100781703Y-91688228D01*
X100749000Y-91523816D01*
X100749000Y-91356184D01*
X100781703Y-91191772D01*
X100845853Y-91036900D01*
X100938985Y-90897519D01*
X101057519Y-90778985D01*
X101196900Y-90685853D01*
X101351772Y-90621703D01*
X101516184Y-90589000D01*
X101683816Y-90589000D01*
X101848228Y-90621703D01*
G37*
G36*
X101848228Y-88081703D02*
G01*
X102003100Y-88145853D01*
X102142481Y-88238985D01*
X102261015Y-88357519D01*
X102354147Y-88496900D01*
X102418297Y-88651772D01*
X102451000Y-88816184D01*
X102451000Y-88983816D01*
X102418297Y-89148228D01*
X102354147Y-89303100D01*
X102261015Y-89442481D01*
X102142481Y-89561015D01*
X102003100Y-89654147D01*
X101848228Y-89718297D01*
X101683816Y-89751000D01*
X101516184Y-89751000D01*
X101351772Y-89718297D01*
X101196900Y-89654147D01*
X101057519Y-89561015D01*
X100938985Y-89442481D01*
X100845853Y-89303100D01*
X100781703Y-89148228D01*
X100749000Y-88983816D01*
X100749000Y-88816184D01*
X100781703Y-88651772D01*
X100845853Y-88496900D01*
X100938985Y-88357519D01*
X101057519Y-88238985D01*
X101196900Y-88145853D01*
X101351772Y-88081703D01*
X101516184Y-88049000D01*
X101683816Y-88049000D01*
X101848228Y-88081703D01*
G37*
G36*
X99308228Y-88081703D02*
G01*
X99463100Y-88145853D01*
X99602481Y-88238985D01*
X99721015Y-88357519D01*
X99814147Y-88496900D01*
X99878297Y-88651772D01*
X99911000Y-88816184D01*
X99911000Y-88983816D01*
X99878297Y-89148228D01*
X99814147Y-89303100D01*
X99721015Y-89442481D01*
X99602481Y-89561015D01*
X99463100Y-89654147D01*
X99308228Y-89718297D01*
X99143816Y-89751000D01*
X98976184Y-89751000D01*
X98811772Y-89718297D01*
X98656900Y-89654147D01*
X98517519Y-89561015D01*
X98398985Y-89442481D01*
X98305853Y-89303100D01*
X98241703Y-89148228D01*
X98209000Y-88983816D01*
X98209000Y-88816184D01*
X98241703Y-88651772D01*
X98305853Y-88496900D01*
X98398985Y-88357519D01*
X98517519Y-88238985D01*
X98656900Y-88145853D01*
X98811772Y-88081703D01*
X98976184Y-88049000D01*
X99143816Y-88049000D01*
X99308228Y-88081703D01*
G37*
G36*
X114548228Y-88081703D02*
G01*
X114703100Y-88145853D01*
X114842481Y-88238985D01*
X114961015Y-88357519D01*
X115054147Y-88496900D01*
X115118297Y-88651772D01*
X115151000Y-88816184D01*
X115151000Y-88983816D01*
X115118297Y-89148228D01*
X115054147Y-89303100D01*
X114961015Y-89442481D01*
X114842481Y-89561015D01*
X114703100Y-89654147D01*
X114548228Y-89718297D01*
X114383816Y-89751000D01*
X114216184Y-89751000D01*
X114051772Y-89718297D01*
X113896900Y-89654147D01*
X113757519Y-89561015D01*
X113638985Y-89442481D01*
X113545853Y-89303100D01*
X113481703Y-89148228D01*
X113449000Y-88983816D01*
X113449000Y-88816184D01*
X113481703Y-88651772D01*
X113545853Y-88496900D01*
X113638985Y-88357519D01*
X113757519Y-88238985D01*
X113896900Y-88145853D01*
X114051772Y-88081703D01*
X114216184Y-88049000D01*
X114383816Y-88049000D01*
X114548228Y-88081703D01*
G37*
G36*
X117088228Y-88081703D02*
G01*
X117243100Y-88145853D01*
X117382481Y-88238985D01*
X117501015Y-88357519D01*
X117594147Y-88496900D01*
X117658297Y-88651772D01*
X117691000Y-88816184D01*
X117691000Y-88983816D01*
X117658297Y-89148228D01*
X117594147Y-89303100D01*
X117501015Y-89442481D01*
X117382481Y-89561015D01*
X117243100Y-89654147D01*
X117088228Y-89718297D01*
X116923816Y-89751000D01*
X116756184Y-89751000D01*
X116591772Y-89718297D01*
X116436900Y-89654147D01*
X116297519Y-89561015D01*
X116178985Y-89442481D01*
X116085853Y-89303100D01*
X116021703Y-89148228D01*
X115989000Y-88983816D01*
X115989000Y-88816184D01*
X116021703Y-88651772D01*
X116085853Y-88496900D01*
X116178985Y-88357519D01*
X116297519Y-88238985D01*
X116436900Y-88145853D01*
X116591772Y-88081703D01*
X116756184Y-88049000D01*
X116923816Y-88049000D01*
X117088228Y-88081703D01*
G37*
G36*
X117088228Y-85541703D02*
G01*
X117243100Y-85605853D01*
X117382481Y-85698985D01*
X117501015Y-85817519D01*
X117594147Y-85956900D01*
X117658297Y-86111772D01*
X117691000Y-86276184D01*
X117691000Y-86443816D01*
X117658297Y-86608228D01*
X117594147Y-86763100D01*
X117501015Y-86902481D01*
X117382481Y-87021015D01*
X117243100Y-87114147D01*
X117088228Y-87178297D01*
X116923816Y-87211000D01*
X116756184Y-87211000D01*
X116591772Y-87178297D01*
X116436900Y-87114147D01*
X116297519Y-87021015D01*
X116178985Y-86902481D01*
X116085853Y-86763100D01*
X116021703Y-86608228D01*
X115989000Y-86443816D01*
X115989000Y-86276184D01*
X116021703Y-86111772D01*
X116085853Y-85956900D01*
X116178985Y-85817519D01*
X116297519Y-85698985D01*
X116436900Y-85605853D01*
X116591772Y-85541703D01*
X116756184Y-85509000D01*
X116923816Y-85509000D01*
X117088228Y-85541703D01*
G37*
G36*
X114548228Y-85541703D02*
G01*
X114703100Y-85605853D01*
X114842481Y-85698985D01*
X114961015Y-85817519D01*
X115054147Y-85956900D01*
X115118297Y-86111772D01*
X115151000Y-86276184D01*
X115151000Y-86443816D01*
X115118297Y-86608228D01*
X115054147Y-86763100D01*
X114961015Y-86902481D01*
X114842481Y-87021015D01*
X114703100Y-87114147D01*
X114548228Y-87178297D01*
X114383816Y-87211000D01*
X114216184Y-87211000D01*
X114051772Y-87178297D01*
X113896900Y-87114147D01*
X113757519Y-87021015D01*
X113638985Y-86902481D01*
X113545853Y-86763100D01*
X113481703Y-86608228D01*
X113449000Y-86443816D01*
X113449000Y-86276184D01*
X113481703Y-86111772D01*
X113545853Y-85956900D01*
X113638985Y-85817519D01*
X113757519Y-85698985D01*
X113896900Y-85605853D01*
X114051772Y-85541703D01*
X114216184Y-85509000D01*
X114383816Y-85509000D01*
X114548228Y-85541703D01*
G37*
G36*
X101848228Y-85541703D02*
G01*
X102003100Y-85605853D01*
X102142481Y-85698985D01*
X102261015Y-85817519D01*
X102354147Y-85956900D01*
X102418297Y-86111772D01*
X102451000Y-86276184D01*
X102451000Y-86443816D01*
X102418297Y-86608228D01*
X102354147Y-86763100D01*
X102261015Y-86902481D01*
X102142481Y-87021015D01*
X102003100Y-87114147D01*
X101848228Y-87178297D01*
X101683816Y-87211000D01*
X101516184Y-87211000D01*
X101351772Y-87178297D01*
X101196900Y-87114147D01*
X101057519Y-87021015D01*
X100938985Y-86902481D01*
X100845853Y-86763100D01*
X100781703Y-86608228D01*
X100749000Y-86443816D01*
X100749000Y-86276184D01*
X100781703Y-86111772D01*
X100845853Y-85956900D01*
X100938985Y-85817519D01*
X101057519Y-85698985D01*
X101196900Y-85605853D01*
X101351772Y-85541703D01*
X101516184Y-85509000D01*
X101683816Y-85509000D01*
X101848228Y-85541703D01*
G37*
G36*
X99308228Y-85541703D02*
G01*
X99463100Y-85605853D01*
X99602481Y-85698985D01*
X99721015Y-85817519D01*
X99814147Y-85956900D01*
X99878297Y-86111772D01*
X99911000Y-86276184D01*
X99911000Y-86443816D01*
X99878297Y-86608228D01*
X99814147Y-86763100D01*
X99721015Y-86902481D01*
X99602481Y-87021015D01*
X99463100Y-87114147D01*
X99308228Y-87178297D01*
X99143816Y-87211000D01*
X98976184Y-87211000D01*
X98811772Y-87178297D01*
X98656900Y-87114147D01*
X98517519Y-87021015D01*
X98398985Y-86902481D01*
X98305853Y-86763100D01*
X98241703Y-86608228D01*
X98209000Y-86443816D01*
X98209000Y-86276184D01*
X98241703Y-86111772D01*
X98305853Y-85956900D01*
X98398985Y-85817519D01*
X98517519Y-85698985D01*
X98656900Y-85605853D01*
X98811772Y-85541703D01*
X98976184Y-85509000D01*
X99143816Y-85509000D01*
X99308228Y-85541703D01*
G37*
G36*
X99308228Y-83001703D02*
G01*
X99463100Y-83065853D01*
X99602481Y-83158985D01*
X99721015Y-83277519D01*
X99814147Y-83416900D01*
X99878297Y-83571772D01*
X99911000Y-83736184D01*
X99911000Y-83903816D01*
X99878297Y-84068228D01*
X99814147Y-84223100D01*
X99721015Y-84362481D01*
X99602481Y-84481015D01*
X99463100Y-84574147D01*
X99308228Y-84638297D01*
X99143816Y-84671000D01*
X98976184Y-84671000D01*
X98811772Y-84638297D01*
X98656900Y-84574147D01*
X98517519Y-84481015D01*
X98398985Y-84362481D01*
X98305853Y-84223100D01*
X98241703Y-84068228D01*
X98209000Y-83903816D01*
X98209000Y-83736184D01*
X98241703Y-83571772D01*
X98305853Y-83416900D01*
X98398985Y-83277519D01*
X98517519Y-83158985D01*
X98656900Y-83065853D01*
X98811772Y-83001703D01*
X98976184Y-82969000D01*
X99143816Y-82969000D01*
X99308228Y-83001703D01*
G37*
G36*
X114548228Y-83001703D02*
G01*
X114703100Y-83065853D01*
X114842481Y-83158985D01*
X114961015Y-83277519D01*
X115054147Y-83416900D01*
X115118297Y-83571772D01*
X115151000Y-83736184D01*
X115151000Y-83903816D01*
X115118297Y-84068228D01*
X115054147Y-84223100D01*
X114961015Y-84362481D01*
X114842481Y-84481015D01*
X114703100Y-84574147D01*
X114548228Y-84638297D01*
X114383816Y-84671000D01*
X114216184Y-84671000D01*
X114051772Y-84638297D01*
X113896900Y-84574147D01*
X113757519Y-84481015D01*
X113638985Y-84362481D01*
X113545853Y-84223100D01*
X113481703Y-84068228D01*
X113449000Y-83903816D01*
X113449000Y-83736184D01*
X113481703Y-83571772D01*
X113545853Y-83416900D01*
X113638985Y-83277519D01*
X113757519Y-83158985D01*
X113896900Y-83065853D01*
X114051772Y-83001703D01*
X114216184Y-82969000D01*
X114383816Y-82969000D01*
X114548228Y-83001703D01*
G37*
G36*
X117088228Y-83001703D02*
G01*
X117243100Y-83065853D01*
X117382481Y-83158985D01*
X117501015Y-83277519D01*
X117594147Y-83416900D01*
X117658297Y-83571772D01*
X117691000Y-83736184D01*
X117691000Y-83903816D01*
X117658297Y-84068228D01*
X117594147Y-84223100D01*
X117501015Y-84362481D01*
X117382481Y-84481015D01*
X117243100Y-84574147D01*
X117088228Y-84638297D01*
X116923816Y-84671000D01*
X116756184Y-84671000D01*
X116591772Y-84638297D01*
X116436900Y-84574147D01*
X116297519Y-84481015D01*
X116178985Y-84362481D01*
X116085853Y-84223100D01*
X116021703Y-84068228D01*
X115989000Y-83903816D01*
X115989000Y-83736184D01*
X116021703Y-83571772D01*
X116085853Y-83416900D01*
X116178985Y-83277519D01*
X116297519Y-83158985D01*
X116436900Y-83065853D01*
X116591772Y-83001703D01*
X116756184Y-82969000D01*
X116923816Y-82969000D01*
X117088228Y-83001703D01*
G37*
G36*
X101848228Y-83001703D02*
G01*
X102003100Y-83065853D01*
X102142481Y-83158985D01*
X102261015Y-83277519D01*
X102354147Y-83416900D01*
X102418297Y-83571772D01*
X102451000Y-83736184D01*
X102451000Y-83903816D01*
X102418297Y-84068228D01*
X102354147Y-84223100D01*
X102261015Y-84362481D01*
X102142481Y-84481015D01*
X102003100Y-84574147D01*
X101848228Y-84638297D01*
X101683816Y-84671000D01*
X101516184Y-84671000D01*
X101351772Y-84638297D01*
X101196900Y-84574147D01*
X101057519Y-84481015D01*
X100938985Y-84362481D01*
X100845853Y-84223100D01*
X100781703Y-84068228D01*
X100749000Y-83903816D01*
X100749000Y-83736184D01*
X100781703Y-83571772D01*
X100845853Y-83416900D01*
X100938985Y-83277519D01*
X101057519Y-83158985D01*
X101196900Y-83065853D01*
X101351772Y-83001703D01*
X101516184Y-82969000D01*
X101683816Y-82969000D01*
X101848228Y-83001703D01*
G37*
G36*
X101848228Y-80461703D02*
G01*
X102003100Y-80525853D01*
X102142481Y-80618985D01*
X102261015Y-80737519D01*
X102354147Y-80876900D01*
X102418297Y-81031772D01*
X102451000Y-81196184D01*
X102451000Y-81363816D01*
X102418297Y-81528228D01*
X102354147Y-81683100D01*
X102261015Y-81822481D01*
X102142481Y-81941015D01*
X102003100Y-82034147D01*
X101848228Y-82098297D01*
X101683816Y-82131000D01*
X101516184Y-82131000D01*
X101351772Y-82098297D01*
X101196900Y-82034147D01*
X101057519Y-81941015D01*
X100938985Y-81822481D01*
X100845853Y-81683100D01*
X100781703Y-81528228D01*
X100749000Y-81363816D01*
X100749000Y-81196184D01*
X100781703Y-81031772D01*
X100845853Y-80876900D01*
X100938985Y-80737519D01*
X101057519Y-80618985D01*
X101196900Y-80525853D01*
X101351772Y-80461703D01*
X101516184Y-80429000D01*
X101683816Y-80429000D01*
X101848228Y-80461703D01*
G37*
G36*
X99308228Y-80461703D02*
G01*
X99463100Y-80525853D01*
X99602481Y-80618985D01*
X99721015Y-80737519D01*
X99814147Y-80876900D01*
X99878297Y-81031772D01*
X99911000Y-81196184D01*
X99911000Y-81363816D01*
X99878297Y-81528228D01*
X99814147Y-81683100D01*
X99721015Y-81822481D01*
X99602481Y-81941015D01*
X99463100Y-82034147D01*
X99308228Y-82098297D01*
X99143816Y-82131000D01*
X98976184Y-82131000D01*
X98811772Y-82098297D01*
X98656900Y-82034147D01*
X98517519Y-81941015D01*
X98398985Y-81822481D01*
X98305853Y-81683100D01*
X98241703Y-81528228D01*
X98209000Y-81363816D01*
X98209000Y-81196184D01*
X98241703Y-81031772D01*
X98305853Y-80876900D01*
X98398985Y-80737519D01*
X98517519Y-80618985D01*
X98656900Y-80525853D01*
X98811772Y-80461703D01*
X98976184Y-80429000D01*
X99143816Y-80429000D01*
X99308228Y-80461703D01*
G37*
G36*
X114548228Y-80461703D02*
G01*
X114703100Y-80525853D01*
X114842481Y-80618985D01*
X114961015Y-80737519D01*
X115054147Y-80876900D01*
X115118297Y-81031772D01*
X115151000Y-81196184D01*
X115151000Y-81363816D01*
X115118297Y-81528228D01*
X115054147Y-81683100D01*
X114961015Y-81822481D01*
X114842481Y-81941015D01*
X114703100Y-82034147D01*
X114548228Y-82098297D01*
X114383816Y-82131000D01*
X114216184Y-82131000D01*
X114051772Y-82098297D01*
X113896900Y-82034147D01*
X113757519Y-81941015D01*
X113638985Y-81822481D01*
X113545853Y-81683100D01*
X113481703Y-81528228D01*
X113449000Y-81363816D01*
X113449000Y-81196184D01*
X113481703Y-81031772D01*
X113545853Y-80876900D01*
X113638985Y-80737519D01*
X113757519Y-80618985D01*
X113896900Y-80525853D01*
X114051772Y-80461703D01*
X114216184Y-80429000D01*
X114383816Y-80429000D01*
X114548228Y-80461703D01*
G37*
G36*
X117088228Y-80461703D02*
G01*
X117243100Y-80525853D01*
X117382481Y-80618985D01*
X117501015Y-80737519D01*
X117594147Y-80876900D01*
X117658297Y-81031772D01*
X117691000Y-81196184D01*
X117691000Y-81363816D01*
X117658297Y-81528228D01*
X117594147Y-81683100D01*
X117501015Y-81822481D01*
X117382481Y-81941015D01*
X117243100Y-82034147D01*
X117088228Y-82098297D01*
X116923816Y-82131000D01*
X116756184Y-82131000D01*
X116591772Y-82098297D01*
X116436900Y-82034147D01*
X116297519Y-81941015D01*
X116178985Y-81822481D01*
X116085853Y-81683100D01*
X116021703Y-81528228D01*
X115989000Y-81363816D01*
X115989000Y-81196184D01*
X116021703Y-81031772D01*
X116085853Y-80876900D01*
X116178985Y-80737519D01*
X116297519Y-80618985D01*
X116436900Y-80525853D01*
X116591772Y-80461703D01*
X116756184Y-80429000D01*
X116923816Y-80429000D01*
X117088228Y-80461703D01*
G37*
G36*
X101848228Y-77921703D02*
G01*
X102003100Y-77985853D01*
X102142481Y-78078985D01*
X102261015Y-78197519D01*
X102354147Y-78336900D01*
X102418297Y-78491772D01*
X102451000Y-78656184D01*
X102451000Y-78823816D01*
X102418297Y-78988228D01*
X102354147Y-79143100D01*
X102261015Y-79282481D01*
X102142481Y-79401015D01*
X102003100Y-79494147D01*
X101848228Y-79558297D01*
X101683816Y-79591000D01*
X101516184Y-79591000D01*
X101351772Y-79558297D01*
X101196900Y-79494147D01*
X101057519Y-79401015D01*
X100938985Y-79282481D01*
X100845853Y-79143100D01*
X100781703Y-78988228D01*
X100749000Y-78823816D01*
X100749000Y-78656184D01*
X100781703Y-78491772D01*
X100845853Y-78336900D01*
X100938985Y-78197519D01*
X101057519Y-78078985D01*
X101196900Y-77985853D01*
X101351772Y-77921703D01*
X101516184Y-77889000D01*
X101683816Y-77889000D01*
X101848228Y-77921703D01*
G37*
G36*
X99308228Y-77921703D02*
G01*
X99463100Y-77985853D01*
X99602481Y-78078985D01*
X99721015Y-78197519D01*
X99814147Y-78336900D01*
X99878297Y-78491772D01*
X99911000Y-78656184D01*
X99911000Y-78823816D01*
X99878297Y-78988228D01*
X99814147Y-79143100D01*
X99721015Y-79282481D01*
X99602481Y-79401015D01*
X99463100Y-79494147D01*
X99308228Y-79558297D01*
X99143816Y-79591000D01*
X98976184Y-79591000D01*
X98811772Y-79558297D01*
X98656900Y-79494147D01*
X98517519Y-79401015D01*
X98398985Y-79282481D01*
X98305853Y-79143100D01*
X98241703Y-78988228D01*
X98209000Y-78823816D01*
X98209000Y-78656184D01*
X98241703Y-78491772D01*
X98305853Y-78336900D01*
X98398985Y-78197519D01*
X98517519Y-78078985D01*
X98656900Y-77985853D01*
X98811772Y-77921703D01*
X98976184Y-77889000D01*
X99143816Y-77889000D01*
X99308228Y-77921703D01*
G37*
G36*
X114548228Y-77921703D02*
G01*
X114703100Y-77985853D01*
X114842481Y-78078985D01*
X114961015Y-78197519D01*
X115054147Y-78336900D01*
X115118297Y-78491772D01*
X115151000Y-78656184D01*
X115151000Y-78823816D01*
X115118297Y-78988228D01*
X115054147Y-79143100D01*
X114961015Y-79282481D01*
X114842481Y-79401015D01*
X114703100Y-79494147D01*
X114548228Y-79558297D01*
X114383816Y-79591000D01*
X114216184Y-79591000D01*
X114051772Y-79558297D01*
X113896900Y-79494147D01*
X113757519Y-79401015D01*
X113638985Y-79282481D01*
X113545853Y-79143100D01*
X113481703Y-78988228D01*
X113449000Y-78823816D01*
X113449000Y-78656184D01*
X113481703Y-78491772D01*
X113545853Y-78336900D01*
X113638985Y-78197519D01*
X113757519Y-78078985D01*
X113896900Y-77985853D01*
X114051772Y-77921703D01*
X114216184Y-77889000D01*
X114383816Y-77889000D01*
X114548228Y-77921703D01*
G37*
G36*
X117088228Y-77921703D02*
G01*
X117243100Y-77985853D01*
X117382481Y-78078985D01*
X117501015Y-78197519D01*
X117594147Y-78336900D01*
X117658297Y-78491772D01*
X117691000Y-78656184D01*
X117691000Y-78823816D01*
X117658297Y-78988228D01*
X117594147Y-79143100D01*
X117501015Y-79282481D01*
X117382481Y-79401015D01*
X117243100Y-79494147D01*
X117088228Y-79558297D01*
X116923816Y-79591000D01*
X116756184Y-79591000D01*
X116591772Y-79558297D01*
X116436900Y-79494147D01*
X116297519Y-79401015D01*
X116178985Y-79282481D01*
X116085853Y-79143100D01*
X116021703Y-78988228D01*
X115989000Y-78823816D01*
X115989000Y-78656184D01*
X116021703Y-78491772D01*
X116085853Y-78336900D01*
X116178985Y-78197519D01*
X116297519Y-78078985D01*
X116436900Y-77985853D01*
X116591772Y-77921703D01*
X116756184Y-77889000D01*
X116923816Y-77889000D01*
X117088228Y-77921703D01*
G37*
G36*
X110563674Y-75580465D02*
G01*
X110601367Y-75591899D01*
X110636103Y-75610466D01*
X110666548Y-75635452D01*
X110691534Y-75665897D01*
X110710101Y-75700633D01*
X110721535Y-75738326D01*
X110726000Y-75783661D01*
X110726000Y-76870339D01*
X110721535Y-76915674D01*
X110710101Y-76953367D01*
X110691534Y-76988103D01*
X110666548Y-77018548D01*
X110636103Y-77043534D01*
X110601367Y-77062101D01*
X110563674Y-77073535D01*
X110518339Y-77078000D01*
X109681661Y-77078000D01*
X109636326Y-77073535D01*
X109598633Y-77062101D01*
X109563897Y-77043534D01*
X109533452Y-77018548D01*
X109508466Y-76988103D01*
X109489899Y-76953367D01*
X109478465Y-76915674D01*
X109474000Y-76870339D01*
X109474000Y-75783661D01*
X109478465Y-75738326D01*
X109489899Y-75700633D01*
X109508466Y-75665897D01*
X109533452Y-75635452D01*
X109563897Y-75610466D01*
X109598633Y-75591899D01*
X109636326Y-75580465D01*
X109681661Y-75576000D01*
X110518339Y-75576000D01*
X110563674Y-75580465D01*
G37*
G36*
X106626674Y-75580465D02*
G01*
X106664367Y-75591899D01*
X106699103Y-75610466D01*
X106729548Y-75635452D01*
X106754534Y-75665897D01*
X106773101Y-75700633D01*
X106784535Y-75738326D01*
X106789000Y-75783661D01*
X106789000Y-76870339D01*
X106784535Y-76915674D01*
X106773101Y-76953367D01*
X106754534Y-76988103D01*
X106729548Y-77018548D01*
X106699103Y-77043534D01*
X106664367Y-77062101D01*
X106626674Y-77073535D01*
X106581339Y-77078000D01*
X105744661Y-77078000D01*
X105699326Y-77073535D01*
X105661633Y-77062101D01*
X105626897Y-77043534D01*
X105596452Y-77018548D01*
X105571466Y-76988103D01*
X105552899Y-76953367D01*
X105541465Y-76915674D01*
X105537000Y-76870339D01*
X105537000Y-75783661D01*
X105541465Y-75738326D01*
X105552899Y-75700633D01*
X105571466Y-75665897D01*
X105596452Y-75635452D01*
X105626897Y-75610466D01*
X105661633Y-75591899D01*
X105699326Y-75580465D01*
X105744661Y-75576000D01*
X106581339Y-75576000D01*
X106626674Y-75580465D01*
G37*
G36*
X112613674Y-75580465D02*
G01*
X112651367Y-75591899D01*
X112686103Y-75610466D01*
X112716548Y-75635452D01*
X112741534Y-75665897D01*
X112760101Y-75700633D01*
X112771535Y-75738326D01*
X112776000Y-75783661D01*
X112776000Y-76870339D01*
X112771535Y-76915674D01*
X112760101Y-76953367D01*
X112741534Y-76988103D01*
X112716548Y-77018548D01*
X112686103Y-77043534D01*
X112651367Y-77062101D01*
X112613674Y-77073535D01*
X112568339Y-77078000D01*
X111731661Y-77078000D01*
X111686326Y-77073535D01*
X111648633Y-77062101D01*
X111613897Y-77043534D01*
X111583452Y-77018548D01*
X111558466Y-76988103D01*
X111539899Y-76953367D01*
X111528465Y-76915674D01*
X111524000Y-76870339D01*
X111524000Y-75783661D01*
X111528465Y-75738326D01*
X111539899Y-75700633D01*
X111558466Y-75665897D01*
X111583452Y-75635452D01*
X111613897Y-75610466D01*
X111648633Y-75591899D01*
X111686326Y-75580465D01*
X111731661Y-75576000D01*
X112568339Y-75576000D01*
X112613674Y-75580465D01*
G37*
G36*
X108676674Y-75580465D02*
G01*
X108714367Y-75591899D01*
X108749103Y-75610466D01*
X108779548Y-75635452D01*
X108804534Y-75665897D01*
X108823101Y-75700633D01*
X108834535Y-75738326D01*
X108839000Y-75783661D01*
X108839000Y-76870339D01*
X108834535Y-76915674D01*
X108823101Y-76953367D01*
X108804534Y-76988103D01*
X108779548Y-77018548D01*
X108749103Y-77043534D01*
X108714367Y-77062101D01*
X108676674Y-77073535D01*
X108631339Y-77078000D01*
X107794661Y-77078000D01*
X107749326Y-77073535D01*
X107711633Y-77062101D01*
X107676897Y-77043534D01*
X107646452Y-77018548D01*
X107621466Y-76988103D01*
X107602899Y-76953367D01*
X107591465Y-76915674D01*
X107587000Y-76870339D01*
X107587000Y-75783661D01*
X107591465Y-75738326D01*
X107602899Y-75700633D01*
X107621466Y-75665897D01*
X107646452Y-75635452D01*
X107676897Y-75610466D01*
X107711633Y-75591899D01*
X107749326Y-75580465D01*
X107794661Y-75576000D01*
X108631339Y-75576000D01*
X108676674Y-75580465D01*
G37*
G36*
X101848228Y-75381703D02*
G01*
X102003100Y-75445853D01*
X102142481Y-75538985D01*
X102261015Y-75657519D01*
X102354147Y-75796900D01*
X102418297Y-75951772D01*
X102451000Y-76116184D01*
X102451000Y-76283816D01*
X102418297Y-76448228D01*
X102354147Y-76603100D01*
X102261015Y-76742481D01*
X102142481Y-76861015D01*
X102003100Y-76954147D01*
X101848228Y-77018297D01*
X101683816Y-77051000D01*
X101516184Y-77051000D01*
X101351772Y-77018297D01*
X101196900Y-76954147D01*
X101057519Y-76861015D01*
X100938985Y-76742481D01*
X100845853Y-76603100D01*
X100781703Y-76448228D01*
X100749000Y-76283816D01*
X100749000Y-76116184D01*
X100781703Y-75951772D01*
X100845853Y-75796900D01*
X100938985Y-75657519D01*
X101057519Y-75538985D01*
X101196900Y-75445853D01*
X101351772Y-75381703D01*
X101516184Y-75349000D01*
X101683816Y-75349000D01*
X101848228Y-75381703D01*
G37*
G36*
X114548228Y-75381703D02*
G01*
X114703100Y-75445853D01*
X114842481Y-75538985D01*
X114961015Y-75657519D01*
X115054147Y-75796900D01*
X115118297Y-75951772D01*
X115151000Y-76116184D01*
X115151000Y-76283816D01*
X115118297Y-76448228D01*
X115054147Y-76603100D01*
X114961015Y-76742481D01*
X114842481Y-76861015D01*
X114703100Y-76954147D01*
X114548228Y-77018297D01*
X114383816Y-77051000D01*
X114216184Y-77051000D01*
X114051772Y-77018297D01*
X113896900Y-76954147D01*
X113757519Y-76861015D01*
X113638985Y-76742481D01*
X113545853Y-76603100D01*
X113481703Y-76448228D01*
X113449000Y-76283816D01*
X113449000Y-76116184D01*
X113481703Y-75951772D01*
X113545853Y-75796900D01*
X113638985Y-75657519D01*
X113757519Y-75538985D01*
X113896900Y-75445853D01*
X114051772Y-75381703D01*
X114216184Y-75349000D01*
X114383816Y-75349000D01*
X114548228Y-75381703D01*
G37*
G36*
X117088228Y-75381703D02*
G01*
X117243100Y-75445853D01*
X117382481Y-75538985D01*
X117501015Y-75657519D01*
X117594147Y-75796900D01*
X117658297Y-75951772D01*
X117691000Y-76116184D01*
X117691000Y-76283816D01*
X117658297Y-76448228D01*
X117594147Y-76603100D01*
X117501015Y-76742481D01*
X117382481Y-76861015D01*
X117243100Y-76954147D01*
X117088228Y-77018297D01*
X116923816Y-77051000D01*
X116756184Y-77051000D01*
X116591772Y-77018297D01*
X116436900Y-76954147D01*
X116297519Y-76861015D01*
X116178985Y-76742481D01*
X116085853Y-76603100D01*
X116021703Y-76448228D01*
X115989000Y-76283816D01*
X115989000Y-76116184D01*
X116021703Y-75951772D01*
X116085853Y-75796900D01*
X116178985Y-75657519D01*
X116297519Y-75538985D01*
X116436900Y-75445853D01*
X116591772Y-75381703D01*
X116756184Y-75349000D01*
X116923816Y-75349000D01*
X117088228Y-75381703D01*
G37*
G36*
X99308228Y-75381703D02*
G01*
X99463100Y-75445853D01*
X99602481Y-75538985D01*
X99721015Y-75657519D01*
X99814147Y-75796900D01*
X99878297Y-75951772D01*
X99911000Y-76116184D01*
X99911000Y-76283816D01*
X99878297Y-76448228D01*
X99814147Y-76603100D01*
X99721015Y-76742481D01*
X99602481Y-76861015D01*
X99463100Y-76954147D01*
X99308228Y-77018297D01*
X99143816Y-77051000D01*
X98976184Y-77051000D01*
X98811772Y-77018297D01*
X98656900Y-76954147D01*
X98517519Y-76861015D01*
X98398985Y-76742481D01*
X98305853Y-76603100D01*
X98241703Y-76448228D01*
X98209000Y-76283816D01*
X98209000Y-76116184D01*
X98241703Y-75951772D01*
X98305853Y-75796900D01*
X98398985Y-75657519D01*
X98517519Y-75538985D01*
X98656900Y-75445853D01*
X98811772Y-75381703D01*
X98976184Y-75349000D01*
X99143816Y-75349000D01*
X99308228Y-75381703D01*
G37*
G36*
X112613674Y-73421465D02*
G01*
X112651367Y-73432899D01*
X112686103Y-73451466D01*
X112716548Y-73476452D01*
X112741534Y-73506897D01*
X112760101Y-73541633D01*
X112771535Y-73579326D01*
X112776000Y-73624661D01*
X112776000Y-74711339D01*
X112771535Y-74756674D01*
X112760101Y-74794367D01*
X112741534Y-74829103D01*
X112716548Y-74859548D01*
X112686103Y-74884534D01*
X112651367Y-74903101D01*
X112613674Y-74914535D01*
X112568339Y-74919000D01*
X111731661Y-74919000D01*
X111686326Y-74914535D01*
X111648633Y-74903101D01*
X111613897Y-74884534D01*
X111583452Y-74859548D01*
X111558466Y-74829103D01*
X111539899Y-74794367D01*
X111528465Y-74756674D01*
X111524000Y-74711339D01*
X111524000Y-73624661D01*
X111528465Y-73579326D01*
X111539899Y-73541633D01*
X111558466Y-73506897D01*
X111583452Y-73476452D01*
X111613897Y-73451466D01*
X111648633Y-73432899D01*
X111686326Y-73421465D01*
X111731661Y-73417000D01*
X112568339Y-73417000D01*
X112613674Y-73421465D01*
G37*
G36*
X110563674Y-73421465D02*
G01*
X110601367Y-73432899D01*
X110636103Y-73451466D01*
X110666548Y-73476452D01*
X110691534Y-73506897D01*
X110710101Y-73541633D01*
X110721535Y-73579326D01*
X110726000Y-73624661D01*
X110726000Y-74711339D01*
X110721535Y-74756674D01*
X110710101Y-74794367D01*
X110691534Y-74829103D01*
X110666548Y-74859548D01*
X110636103Y-74884534D01*
X110601367Y-74903101D01*
X110563674Y-74914535D01*
X110518339Y-74919000D01*
X109681661Y-74919000D01*
X109636326Y-74914535D01*
X109598633Y-74903101D01*
X109563897Y-74884534D01*
X109533452Y-74859548D01*
X109508466Y-74829103D01*
X109489899Y-74794367D01*
X109478465Y-74756674D01*
X109474000Y-74711339D01*
X109474000Y-73624661D01*
X109478465Y-73579326D01*
X109489899Y-73541633D01*
X109508466Y-73506897D01*
X109533452Y-73476452D01*
X109563897Y-73451466D01*
X109598633Y-73432899D01*
X109636326Y-73421465D01*
X109681661Y-73417000D01*
X110518339Y-73417000D01*
X110563674Y-73421465D01*
G37*
G36*
X106626674Y-73421465D02*
G01*
X106664367Y-73432899D01*
X106699103Y-73451466D01*
X106729548Y-73476452D01*
X106754534Y-73506897D01*
X106773101Y-73541633D01*
X106784535Y-73579326D01*
X106789000Y-73624661D01*
X106789000Y-74711339D01*
X106784535Y-74756674D01*
X106773101Y-74794367D01*
X106754534Y-74829103D01*
X106729548Y-74859548D01*
X106699103Y-74884534D01*
X106664367Y-74903101D01*
X106626674Y-74914535D01*
X106581339Y-74919000D01*
X105744661Y-74919000D01*
X105699326Y-74914535D01*
X105661633Y-74903101D01*
X105626897Y-74884534D01*
X105596452Y-74859548D01*
X105571466Y-74829103D01*
X105552899Y-74794367D01*
X105541465Y-74756674D01*
X105537000Y-74711339D01*
X105537000Y-73624661D01*
X105541465Y-73579326D01*
X105552899Y-73541633D01*
X105571466Y-73506897D01*
X105596452Y-73476452D01*
X105626897Y-73451466D01*
X105661633Y-73432899D01*
X105699326Y-73421465D01*
X105744661Y-73417000D01*
X106581339Y-73417000D01*
X106626674Y-73421465D01*
G37*
G36*
X108676674Y-73421465D02*
G01*
X108714367Y-73432899D01*
X108749103Y-73451466D01*
X108779548Y-73476452D01*
X108804534Y-73506897D01*
X108823101Y-73541633D01*
X108834535Y-73579326D01*
X108839000Y-73624661D01*
X108839000Y-74711339D01*
X108834535Y-74756674D01*
X108823101Y-74794367D01*
X108804534Y-74829103D01*
X108779548Y-74859548D01*
X108749103Y-74884534D01*
X108714367Y-74903101D01*
X108676674Y-74914535D01*
X108631339Y-74919000D01*
X107794661Y-74919000D01*
X107749326Y-74914535D01*
X107711633Y-74903101D01*
X107676897Y-74884534D01*
X107646452Y-74859548D01*
X107621466Y-74829103D01*
X107602899Y-74794367D01*
X107591465Y-74756674D01*
X107587000Y-74711339D01*
X107587000Y-73624661D01*
X107591465Y-73579326D01*
X107602899Y-73541633D01*
X107621466Y-73506897D01*
X107646452Y-73476452D01*
X107676897Y-73451466D01*
X107711633Y-73432899D01*
X107749326Y-73421465D01*
X107794661Y-73417000D01*
X108631339Y-73417000D01*
X108676674Y-73421465D01*
G37*
G36*
X101848228Y-72841703D02*
G01*
X102003100Y-72905853D01*
X102142481Y-72998985D01*
X102261015Y-73117519D01*
X102354147Y-73256900D01*
X102418297Y-73411772D01*
X102451000Y-73576184D01*
X102451000Y-73743816D01*
X102418297Y-73908228D01*
X102354147Y-74063100D01*
X102261015Y-74202481D01*
X102142481Y-74321015D01*
X102003100Y-74414147D01*
X101848228Y-74478297D01*
X101683816Y-74511000D01*
X101516184Y-74511000D01*
X101351772Y-74478297D01*
X101196900Y-74414147D01*
X101057519Y-74321015D01*
X100938985Y-74202481D01*
X100845853Y-74063100D01*
X100781703Y-73908228D01*
X100749000Y-73743816D01*
X100749000Y-73576184D01*
X100781703Y-73411772D01*
X100845853Y-73256900D01*
X100938985Y-73117519D01*
X101057519Y-72998985D01*
X101196900Y-72905853D01*
X101351772Y-72841703D01*
X101516184Y-72809000D01*
X101683816Y-72809000D01*
X101848228Y-72841703D01*
G37*
G36*
X99308228Y-72841703D02*
G01*
X99463100Y-72905853D01*
X99602481Y-72998985D01*
X99721015Y-73117519D01*
X99814147Y-73256900D01*
X99878297Y-73411772D01*
X99911000Y-73576184D01*
X99911000Y-73743816D01*
X99878297Y-73908228D01*
X99814147Y-74063100D01*
X99721015Y-74202481D01*
X99602481Y-74321015D01*
X99463100Y-74414147D01*
X99308228Y-74478297D01*
X99143816Y-74511000D01*
X98976184Y-74511000D01*
X98811772Y-74478297D01*
X98656900Y-74414147D01*
X98517519Y-74321015D01*
X98398985Y-74202481D01*
X98305853Y-74063100D01*
X98241703Y-73908228D01*
X98209000Y-73743816D01*
X98209000Y-73576184D01*
X98241703Y-73411772D01*
X98305853Y-73256900D01*
X98398985Y-73117519D01*
X98517519Y-72998985D01*
X98656900Y-72905853D01*
X98811772Y-72841703D01*
X98976184Y-72809000D01*
X99143816Y-72809000D01*
X99308228Y-72841703D01*
G37*
G36*
X114548228Y-72841703D02*
G01*
X114703100Y-72905853D01*
X114842481Y-72998985D01*
X114961015Y-73117519D01*
X115054147Y-73256900D01*
X115118297Y-73411772D01*
X115151000Y-73576184D01*
X115151000Y-73743816D01*
X115118297Y-73908228D01*
X115054147Y-74063100D01*
X114961015Y-74202481D01*
X114842481Y-74321015D01*
X114703100Y-74414147D01*
X114548228Y-74478297D01*
X114383816Y-74511000D01*
X114216184Y-74511000D01*
X114051772Y-74478297D01*
X113896900Y-74414147D01*
X113757519Y-74321015D01*
X113638985Y-74202481D01*
X113545853Y-74063100D01*
X113481703Y-73908228D01*
X113449000Y-73743816D01*
X113449000Y-73576184D01*
X113481703Y-73411772D01*
X113545853Y-73256900D01*
X113638985Y-73117519D01*
X113757519Y-72998985D01*
X113896900Y-72905853D01*
X114051772Y-72841703D01*
X114216184Y-72809000D01*
X114383816Y-72809000D01*
X114548228Y-72841703D01*
G37*
G36*
X117088228Y-72841703D02*
G01*
X117243100Y-72905853D01*
X117382481Y-72998985D01*
X117501015Y-73117519D01*
X117594147Y-73256900D01*
X117658297Y-73411772D01*
X117691000Y-73576184D01*
X117691000Y-73743816D01*
X117658297Y-73908228D01*
X117594147Y-74063100D01*
X117501015Y-74202481D01*
X117382481Y-74321015D01*
X117243100Y-74414147D01*
X117088228Y-74478297D01*
X116923816Y-74511000D01*
X116756184Y-74511000D01*
X116591772Y-74478297D01*
X116436900Y-74414147D01*
X116297519Y-74321015D01*
X116178985Y-74202481D01*
X116085853Y-74063100D01*
X116021703Y-73908228D01*
X115989000Y-73743816D01*
X115989000Y-73576184D01*
X116021703Y-73411772D01*
X116085853Y-73256900D01*
X116178985Y-73117519D01*
X116297519Y-72998985D01*
X116436900Y-72905853D01*
X116591772Y-72841703D01*
X116756184Y-72809000D01*
X116923816Y-72809000D01*
X117088228Y-72841703D01*
G37*
G36*
X111459674Y-71523465D02*
G01*
X111497367Y-71534899D01*
X111532103Y-71553466D01*
X111562548Y-71578452D01*
X111587534Y-71608897D01*
X111606101Y-71643633D01*
X111617535Y-71681326D01*
X111622000Y-71726661D01*
X111622000Y-72563339D01*
X111617535Y-72608674D01*
X111606101Y-72646367D01*
X111587534Y-72681103D01*
X111562548Y-72711548D01*
X111532103Y-72736534D01*
X111497367Y-72755101D01*
X111459674Y-72766535D01*
X111414339Y-72771000D01*
X110327661Y-72771000D01*
X110282326Y-72766535D01*
X110244633Y-72755101D01*
X110209897Y-72736534D01*
X110179452Y-72711548D01*
X110154466Y-72681103D01*
X110135899Y-72646367D01*
X110124465Y-72608674D01*
X110120000Y-72563339D01*
X110120000Y-71726661D01*
X110124465Y-71681326D01*
X110135899Y-71643633D01*
X110154466Y-71608897D01*
X110179452Y-71578452D01*
X110209897Y-71553466D01*
X110244633Y-71534899D01*
X110282326Y-71523465D01*
X110327661Y-71519000D01*
X111414339Y-71519000D01*
X111459674Y-71523465D01*
G37*
G36*
X117088228Y-70301703D02*
G01*
X117243100Y-70365853D01*
X117382481Y-70458985D01*
X117501015Y-70577519D01*
X117594147Y-70716900D01*
X117658297Y-70871772D01*
X117691000Y-71036184D01*
X117691000Y-71203816D01*
X117658297Y-71368228D01*
X117594147Y-71523100D01*
X117501015Y-71662481D01*
X117382481Y-71781015D01*
X117243100Y-71874147D01*
X117088228Y-71938297D01*
X116923816Y-71971000D01*
X116756184Y-71971000D01*
X116591772Y-71938297D01*
X116436900Y-71874147D01*
X116297519Y-71781015D01*
X116178985Y-71662481D01*
X116085853Y-71523100D01*
X116021703Y-71368228D01*
X115989000Y-71203816D01*
X115989000Y-71036184D01*
X116021703Y-70871772D01*
X116085853Y-70716900D01*
X116178985Y-70577519D01*
X116297519Y-70458985D01*
X116436900Y-70365853D01*
X116591772Y-70301703D01*
X116756184Y-70269000D01*
X116923816Y-70269000D01*
X117088228Y-70301703D01*
G37*
G36*
X114548228Y-70301703D02*
G01*
X114703100Y-70365853D01*
X114842481Y-70458985D01*
X114961015Y-70577519D01*
X115054147Y-70716900D01*
X115118297Y-70871772D01*
X115151000Y-71036184D01*
X115151000Y-71203816D01*
X115118297Y-71368228D01*
X115054147Y-71523100D01*
X114961015Y-71662481D01*
X114842481Y-71781015D01*
X114703100Y-71874147D01*
X114548228Y-71938297D01*
X114383816Y-71971000D01*
X114216184Y-71971000D01*
X114051772Y-71938297D01*
X113896900Y-71874147D01*
X113757519Y-71781015D01*
X113638985Y-71662481D01*
X113545853Y-71523100D01*
X113481703Y-71368228D01*
X113449000Y-71203816D01*
X113449000Y-71036184D01*
X113481703Y-70871772D01*
X113545853Y-70716900D01*
X113638985Y-70577519D01*
X113757519Y-70458985D01*
X113896900Y-70365853D01*
X114051772Y-70301703D01*
X114216184Y-70269000D01*
X114383816Y-70269000D01*
X114548228Y-70301703D01*
G37*
G36*
X99308228Y-70301703D02*
G01*
X99463100Y-70365853D01*
X99602481Y-70458985D01*
X99721015Y-70577519D01*
X99814147Y-70716900D01*
X99878297Y-70871772D01*
X99911000Y-71036184D01*
X99911000Y-71203816D01*
X99878297Y-71368228D01*
X99814147Y-71523100D01*
X99721015Y-71662481D01*
X99602481Y-71781015D01*
X99463100Y-71874147D01*
X99308228Y-71938297D01*
X99143816Y-71971000D01*
X98976184Y-71971000D01*
X98811772Y-71938297D01*
X98656900Y-71874147D01*
X98517519Y-71781015D01*
X98398985Y-71662481D01*
X98305853Y-71523100D01*
X98241703Y-71368228D01*
X98209000Y-71203816D01*
X98209000Y-71036184D01*
X98241703Y-70871772D01*
X98305853Y-70716900D01*
X98398985Y-70577519D01*
X98517519Y-70458985D01*
X98656900Y-70365853D01*
X98811772Y-70301703D01*
X98976184Y-70269000D01*
X99143816Y-70269000D01*
X99308228Y-70301703D01*
G37*
G36*
X101848228Y-70301703D02*
G01*
X102003100Y-70365853D01*
X102142481Y-70458985D01*
X102261015Y-70577519D01*
X102354147Y-70716900D01*
X102418297Y-70871772D01*
X102451000Y-71036184D01*
X102451000Y-71203816D01*
X102418297Y-71368228D01*
X102354147Y-71523100D01*
X102261015Y-71662481D01*
X102142481Y-71781015D01*
X102003100Y-71874147D01*
X101848228Y-71938297D01*
X101683816Y-71971000D01*
X101516184Y-71971000D01*
X101351772Y-71938297D01*
X101196900Y-71874147D01*
X101057519Y-71781015D01*
X100938985Y-71662481D01*
X100845853Y-71523100D01*
X100781703Y-71368228D01*
X100749000Y-71203816D01*
X100749000Y-71036184D01*
X100781703Y-70871772D01*
X100845853Y-70716900D01*
X100938985Y-70577519D01*
X101057519Y-70458985D01*
X101196900Y-70365853D01*
X101351772Y-70301703D01*
X101516184Y-70269000D01*
X101683816Y-70269000D01*
X101848228Y-70301703D01*
G37*
G36*
X111459674Y-69473465D02*
G01*
X111497367Y-69484899D01*
X111532103Y-69503466D01*
X111562548Y-69528452D01*
X111587534Y-69558897D01*
X111606101Y-69593633D01*
X111617535Y-69631326D01*
X111622000Y-69676661D01*
X111622000Y-70513339D01*
X111617535Y-70558674D01*
X111606101Y-70596367D01*
X111587534Y-70631103D01*
X111562548Y-70661548D01*
X111532103Y-70686534D01*
X111497367Y-70705101D01*
X111459674Y-70716535D01*
X111414339Y-70721000D01*
X110327661Y-70721000D01*
X110282326Y-70716535D01*
X110244633Y-70705101D01*
X110209897Y-70686534D01*
X110179452Y-70661548D01*
X110154466Y-70631103D01*
X110135899Y-70596367D01*
X110124465Y-70558674D01*
X110120000Y-70513339D01*
X110120000Y-69676661D01*
X110124465Y-69631326D01*
X110135899Y-69593633D01*
X110154466Y-69558897D01*
X110179452Y-69528452D01*
X110209897Y-69503466D01*
X110244633Y-69484899D01*
X110282326Y-69473465D01*
X110327661Y-69469000D01*
X111414339Y-69469000D01*
X111459674Y-69473465D01*
G37*
G36*
X114548228Y-67761703D02*
G01*
X114703100Y-67825853D01*
X114842481Y-67918985D01*
X114961015Y-68037519D01*
X115054147Y-68176900D01*
X115118297Y-68331772D01*
X115151000Y-68496184D01*
X115151000Y-68663816D01*
X115118297Y-68828228D01*
X115054147Y-68983100D01*
X114961015Y-69122481D01*
X114842481Y-69241015D01*
X114703100Y-69334147D01*
X114548228Y-69398297D01*
X114383816Y-69431000D01*
X114216184Y-69431000D01*
X114051772Y-69398297D01*
X113896900Y-69334147D01*
X113757519Y-69241015D01*
X113638985Y-69122481D01*
X113545853Y-68983100D01*
X113481703Y-68828228D01*
X113449000Y-68663816D01*
X113449000Y-68496184D01*
X113481703Y-68331772D01*
X113545853Y-68176900D01*
X113638985Y-68037519D01*
X113757519Y-67918985D01*
X113896900Y-67825853D01*
X114051772Y-67761703D01*
X114216184Y-67729000D01*
X114383816Y-67729000D01*
X114548228Y-67761703D01*
G37*
G36*
X101848228Y-67761703D02*
G01*
X102003100Y-67825853D01*
X102142481Y-67918985D01*
X102261015Y-68037519D01*
X102354147Y-68176900D01*
X102418297Y-68331772D01*
X102451000Y-68496184D01*
X102451000Y-68663816D01*
X102418297Y-68828228D01*
X102354147Y-68983100D01*
X102261015Y-69122481D01*
X102142481Y-69241015D01*
X102003100Y-69334147D01*
X101848228Y-69398297D01*
X101683816Y-69431000D01*
X101516184Y-69431000D01*
X101351772Y-69398297D01*
X101196900Y-69334147D01*
X101057519Y-69241015D01*
X100938985Y-69122481D01*
X100845853Y-68983100D01*
X100781703Y-68828228D01*
X100749000Y-68663816D01*
X100749000Y-68496184D01*
X100781703Y-68331772D01*
X100845853Y-68176900D01*
X100938985Y-68037519D01*
X101057519Y-67918985D01*
X101196900Y-67825853D01*
X101351772Y-67761703D01*
X101516184Y-67729000D01*
X101683816Y-67729000D01*
X101848228Y-67761703D01*
G37*
G36*
X117088228Y-67761703D02*
G01*
X117243100Y-67825853D01*
X117382481Y-67918985D01*
X117501015Y-68037519D01*
X117594147Y-68176900D01*
X117658297Y-68331772D01*
X117691000Y-68496184D01*
X117691000Y-68663816D01*
X117658297Y-68828228D01*
X117594147Y-68983100D01*
X117501015Y-69122481D01*
X117382481Y-69241015D01*
X117243100Y-69334147D01*
X117088228Y-69398297D01*
X116923816Y-69431000D01*
X116756184Y-69431000D01*
X116591772Y-69398297D01*
X116436900Y-69334147D01*
X116297519Y-69241015D01*
X116178985Y-69122481D01*
X116085853Y-68983100D01*
X116021703Y-68828228D01*
X115989000Y-68663816D01*
X115989000Y-68496184D01*
X116021703Y-68331772D01*
X116085853Y-68176900D01*
X116178985Y-68037519D01*
X116297519Y-67918985D01*
X116436900Y-67825853D01*
X116591772Y-67761703D01*
X116756184Y-67729000D01*
X116923816Y-67729000D01*
X117088228Y-67761703D01*
G37*
G36*
X99308228Y-67761703D02*
G01*
X99463100Y-67825853D01*
X99602481Y-67918985D01*
X99721015Y-68037519D01*
X99814147Y-68176900D01*
X99878297Y-68331772D01*
X99911000Y-68496184D01*
X99911000Y-68663816D01*
X99878297Y-68828228D01*
X99814147Y-68983100D01*
X99721015Y-69122481D01*
X99602481Y-69241015D01*
X99463100Y-69334147D01*
X99308228Y-69398297D01*
X99143816Y-69431000D01*
X98976184Y-69431000D01*
X98811772Y-69398297D01*
X98656900Y-69334147D01*
X98517519Y-69241015D01*
X98398985Y-69122481D01*
X98305853Y-68983100D01*
X98241703Y-68828228D01*
X98209000Y-68663816D01*
X98209000Y-68496184D01*
X98241703Y-68331772D01*
X98305853Y-68176900D01*
X98398985Y-68037519D01*
X98517519Y-67918985D01*
X98656900Y-67825853D01*
X98811772Y-67761703D01*
X98976184Y-67729000D01*
X99143816Y-67729000D01*
X99308228Y-67761703D01*
G37*
G36*
X99308228Y-65221703D02*
G01*
X99463100Y-65285853D01*
X99602481Y-65378985D01*
X99721015Y-65497519D01*
X99814147Y-65636900D01*
X99878297Y-65791772D01*
X99911000Y-65956184D01*
X99911000Y-66123816D01*
X99878297Y-66288228D01*
X99814147Y-66443100D01*
X99721015Y-66582481D01*
X99602481Y-66701015D01*
X99463100Y-66794147D01*
X99308228Y-66858297D01*
X99143816Y-66891000D01*
X98976184Y-66891000D01*
X98811772Y-66858297D01*
X98656900Y-66794147D01*
X98517519Y-66701015D01*
X98398985Y-66582481D01*
X98305853Y-66443100D01*
X98241703Y-66288228D01*
X98209000Y-66123816D01*
X98209000Y-65956184D01*
X98241703Y-65791772D01*
X98305853Y-65636900D01*
X98398985Y-65497519D01*
X98517519Y-65378985D01*
X98656900Y-65285853D01*
X98811772Y-65221703D01*
X98976184Y-65189000D01*
X99143816Y-65189000D01*
X99308228Y-65221703D01*
G37*
G36*
X101848228Y-65221703D02*
G01*
X102003100Y-65285853D01*
X102142481Y-65378985D01*
X102261015Y-65497519D01*
X102354147Y-65636900D01*
X102418297Y-65791772D01*
X102451000Y-65956184D01*
X102451000Y-66123816D01*
X102418297Y-66288228D01*
X102354147Y-66443100D01*
X102261015Y-66582481D01*
X102142481Y-66701015D01*
X102003100Y-66794147D01*
X101848228Y-66858297D01*
X101683816Y-66891000D01*
X101516184Y-66891000D01*
X101351772Y-66858297D01*
X101196900Y-66794147D01*
X101057519Y-66701015D01*
X100938985Y-66582481D01*
X100845853Y-66443100D01*
X100781703Y-66288228D01*
X100749000Y-66123816D01*
X100749000Y-65956184D01*
X100781703Y-65791772D01*
X100845853Y-65636900D01*
X100938985Y-65497519D01*
X101057519Y-65378985D01*
X101196900Y-65285853D01*
X101351772Y-65221703D01*
X101516184Y-65189000D01*
X101683816Y-65189000D01*
X101848228Y-65221703D01*
G37*
G36*
X114548228Y-65221703D02*
G01*
X114703100Y-65285853D01*
X114842481Y-65378985D01*
X114961015Y-65497519D01*
X115054147Y-65636900D01*
X115118297Y-65791772D01*
X115151000Y-65956184D01*
X115151000Y-66123816D01*
X115118297Y-66288228D01*
X115054147Y-66443100D01*
X114961015Y-66582481D01*
X114842481Y-66701015D01*
X114703100Y-66794147D01*
X114548228Y-66858297D01*
X114383816Y-66891000D01*
X114216184Y-66891000D01*
X114051772Y-66858297D01*
X113896900Y-66794147D01*
X113757519Y-66701015D01*
X113638985Y-66582481D01*
X113545853Y-66443100D01*
X113481703Y-66288228D01*
X113449000Y-66123816D01*
X113449000Y-65956184D01*
X113481703Y-65791772D01*
X113545853Y-65636900D01*
X113638985Y-65497519D01*
X113757519Y-65378985D01*
X113896900Y-65285853D01*
X114051772Y-65221703D01*
X114216184Y-65189000D01*
X114383816Y-65189000D01*
X114548228Y-65221703D01*
G37*
G36*
X117088228Y-65221703D02*
G01*
X117243100Y-65285853D01*
X117382481Y-65378985D01*
X117501015Y-65497519D01*
X117594147Y-65636900D01*
X117658297Y-65791772D01*
X117691000Y-65956184D01*
X117691000Y-66123816D01*
X117658297Y-66288228D01*
X117594147Y-66443100D01*
X117501015Y-66582481D01*
X117382481Y-66701015D01*
X117243100Y-66794147D01*
X117088228Y-66858297D01*
X116923816Y-66891000D01*
X116756184Y-66891000D01*
X116591772Y-66858297D01*
X116436900Y-66794147D01*
X116297519Y-66701015D01*
X116178985Y-66582481D01*
X116085853Y-66443100D01*
X116021703Y-66288228D01*
X115989000Y-66123816D01*
X115989000Y-65956184D01*
X116021703Y-65791772D01*
X116085853Y-65636900D01*
X116178985Y-65497519D01*
X116297519Y-65378985D01*
X116436900Y-65285853D01*
X116591772Y-65221703D01*
X116756184Y-65189000D01*
X116923816Y-65189000D01*
X117088228Y-65221703D01*
G37*
G36*
X114548228Y-62681703D02*
G01*
X114703100Y-62745853D01*
X114842481Y-62838985D01*
X114961015Y-62957519D01*
X115054147Y-63096900D01*
X115118297Y-63251772D01*
X115151000Y-63416184D01*
X115151000Y-63583816D01*
X115118297Y-63748228D01*
X115054147Y-63903100D01*
X114961015Y-64042481D01*
X114842481Y-64161015D01*
X114703100Y-64254147D01*
X114548228Y-64318297D01*
X114383816Y-64351000D01*
X114216184Y-64351000D01*
X114051772Y-64318297D01*
X113896900Y-64254147D01*
X113757519Y-64161015D01*
X113638985Y-64042481D01*
X113545853Y-63903100D01*
X113481703Y-63748228D01*
X113449000Y-63583816D01*
X113449000Y-63416184D01*
X113481703Y-63251772D01*
X113545853Y-63096900D01*
X113638985Y-62957519D01*
X113757519Y-62838985D01*
X113896900Y-62745853D01*
X114051772Y-62681703D01*
X114216184Y-62649000D01*
X114383816Y-62649000D01*
X114548228Y-62681703D01*
G37*
G36*
X117088228Y-62681703D02*
G01*
X117243100Y-62745853D01*
X117382481Y-62838985D01*
X117501015Y-62957519D01*
X117594147Y-63096900D01*
X117658297Y-63251772D01*
X117691000Y-63416184D01*
X117691000Y-63583816D01*
X117658297Y-63748228D01*
X117594147Y-63903100D01*
X117501015Y-64042481D01*
X117382481Y-64161015D01*
X117243100Y-64254147D01*
X117088228Y-64318297D01*
X116923816Y-64351000D01*
X116756184Y-64351000D01*
X116591772Y-64318297D01*
X116436900Y-64254147D01*
X116297519Y-64161015D01*
X116178985Y-64042481D01*
X116085853Y-63903100D01*
X116021703Y-63748228D01*
X115989000Y-63583816D01*
X115989000Y-63416184D01*
X116021703Y-63251772D01*
X116085853Y-63096900D01*
X116178985Y-62957519D01*
X116297519Y-62838985D01*
X116436900Y-62745853D01*
X116591772Y-62681703D01*
X116756184Y-62649000D01*
X116923816Y-62649000D01*
X117088228Y-62681703D01*
G37*
G36*
X99308228Y-62681703D02*
G01*
X99463100Y-62745853D01*
X99602481Y-62838985D01*
X99721015Y-62957519D01*
X99814147Y-63096900D01*
X99878297Y-63251772D01*
X99911000Y-63416184D01*
X99911000Y-63583816D01*
X99878297Y-63748228D01*
X99814147Y-63903100D01*
X99721015Y-64042481D01*
X99602481Y-64161015D01*
X99463100Y-64254147D01*
X99308228Y-64318297D01*
X99143816Y-64351000D01*
X98976184Y-64351000D01*
X98811772Y-64318297D01*
X98656900Y-64254147D01*
X98517519Y-64161015D01*
X98398985Y-64042481D01*
X98305853Y-63903100D01*
X98241703Y-63748228D01*
X98209000Y-63583816D01*
X98209000Y-63416184D01*
X98241703Y-63251772D01*
X98305853Y-63096900D01*
X98398985Y-62957519D01*
X98517519Y-62838985D01*
X98656900Y-62745853D01*
X98811772Y-62681703D01*
X98976184Y-62649000D01*
X99143816Y-62649000D01*
X99308228Y-62681703D01*
G37*
G36*
X101848228Y-62681703D02*
G01*
X102003100Y-62745853D01*
X102142481Y-62838985D01*
X102261015Y-62957519D01*
X102354147Y-63096900D01*
X102418297Y-63251772D01*
X102451000Y-63416184D01*
X102451000Y-63583816D01*
X102418297Y-63748228D01*
X102354147Y-63903100D01*
X102261015Y-64042481D01*
X102142481Y-64161015D01*
X102003100Y-64254147D01*
X101848228Y-64318297D01*
X101683816Y-64351000D01*
X101516184Y-64351000D01*
X101351772Y-64318297D01*
X101196900Y-64254147D01*
X101057519Y-64161015D01*
X100938985Y-64042481D01*
X100845853Y-63903100D01*
X100781703Y-63748228D01*
X100749000Y-63583816D01*
X100749000Y-63416184D01*
X100781703Y-63251772D01*
X100845853Y-63096900D01*
X100938985Y-62957519D01*
X101057519Y-62838985D01*
X101196900Y-62745853D01*
X101351772Y-62681703D01*
X101516184Y-62649000D01*
X101683816Y-62649000D01*
X101848228Y-62681703D01*
G37*
G36*
X106651999Y-62064737D02*
G01*
X106661608Y-62067652D01*
X106670472Y-62072390D01*
X106678237Y-62078763D01*
X106688448Y-62091206D01*
X106695378Y-62101575D01*
X106712705Y-62118902D01*
X106733080Y-62132515D01*
X106755720Y-62141891D01*
X106779753Y-62146671D01*
X106804257Y-62146670D01*
X106828290Y-62141888D01*
X106850929Y-62132510D01*
X106871302Y-62118895D01*
X106888629Y-62101568D01*
X106895558Y-62091198D01*
X106905763Y-62078763D01*
X106913528Y-62072390D01*
X106922392Y-62067652D01*
X106932001Y-62064737D01*
X106948140Y-62063148D01*
X107435861Y-62063148D01*
X107454199Y-62064954D01*
X107466450Y-62065556D01*
X107484869Y-62065556D01*
X107507149Y-62067750D01*
X107591233Y-62084476D01*
X107612660Y-62090976D01*
X107691858Y-62123780D01*
X107697303Y-62126691D01*
X107697309Y-62126693D01*
X107706169Y-62131429D01*
X107706173Y-62131432D01*
X107711614Y-62134340D01*
X107782899Y-62181971D01*
X107800204Y-62196172D01*
X107860828Y-62256796D01*
X107875029Y-62274101D01*
X107922660Y-62345386D01*
X107925568Y-62350827D01*
X107925571Y-62350831D01*
X107930307Y-62359691D01*
X107930309Y-62359697D01*
X107933220Y-62365142D01*
X107966024Y-62444340D01*
X107972524Y-62465767D01*
X107989250Y-62549851D01*
X107991444Y-62572131D01*
X107991444Y-62590550D01*
X107992046Y-62602801D01*
X107993852Y-62621139D01*
X107993852Y-63108862D01*
X107992046Y-63127199D01*
X107991444Y-63139450D01*
X107991444Y-63157869D01*
X107989250Y-63180149D01*
X107972524Y-63264233D01*
X107966024Y-63285660D01*
X107933220Y-63364858D01*
X107930309Y-63370303D01*
X107930307Y-63370309D01*
X107925571Y-63379169D01*
X107925568Y-63379173D01*
X107922660Y-63384614D01*
X107875029Y-63455899D01*
X107860828Y-63473204D01*
X107800204Y-63533828D01*
X107782899Y-63548029D01*
X107711614Y-63595660D01*
X107706173Y-63598568D01*
X107706169Y-63598571D01*
X107697309Y-63603307D01*
X107697303Y-63603309D01*
X107691858Y-63606220D01*
X107612660Y-63639024D01*
X107591233Y-63645524D01*
X107507149Y-63662250D01*
X107484869Y-63664444D01*
X107466450Y-63664444D01*
X107454199Y-63665046D01*
X107435862Y-63666852D01*
X106948140Y-63666852D01*
X106932001Y-63665263D01*
X106922392Y-63662348D01*
X106913528Y-63657610D01*
X106905763Y-63651237D01*
X106895552Y-63638794D01*
X106888622Y-63628425D01*
X106871295Y-63611098D01*
X106850920Y-63597485D01*
X106828280Y-63588109D01*
X106804247Y-63583329D01*
X106779743Y-63583330D01*
X106755710Y-63588112D01*
X106733071Y-63597490D01*
X106712698Y-63611105D01*
X106695371Y-63628432D01*
X106688442Y-63638802D01*
X106678237Y-63651237D01*
X106670472Y-63657610D01*
X106661608Y-63662348D01*
X106651999Y-63665263D01*
X106635860Y-63666852D01*
X106148138Y-63666852D01*
X106129801Y-63665046D01*
X106117550Y-63664444D01*
X106099131Y-63664444D01*
X106076851Y-63662250D01*
X105992767Y-63645524D01*
X105971340Y-63639024D01*
X105892142Y-63606220D01*
X105886697Y-63603309D01*
X105886691Y-63603307D01*
X105877831Y-63598571D01*
X105877827Y-63598568D01*
X105872386Y-63595660D01*
X105801101Y-63548029D01*
X105783796Y-63533828D01*
X105723172Y-63473204D01*
X105708971Y-63455899D01*
X105661340Y-63384614D01*
X105658432Y-63379173D01*
X105658429Y-63379169D01*
X105653693Y-63370309D01*
X105653691Y-63370303D01*
X105650780Y-63364858D01*
X105617976Y-63285660D01*
X105611476Y-63264233D01*
X105594750Y-63180149D01*
X105592556Y-63157869D01*
X105592556Y-63139450D01*
X105591954Y-63127199D01*
X105590148Y-63108862D01*
X105590148Y-62621139D01*
X105591954Y-62602801D01*
X105592556Y-62590550D01*
X105592556Y-62572131D01*
X105594750Y-62549851D01*
X105611476Y-62465767D01*
X105617976Y-62444340D01*
X105650780Y-62365142D01*
X105653691Y-62359697D01*
X105653693Y-62359691D01*
X105658429Y-62350831D01*
X105658432Y-62350827D01*
X105661340Y-62345386D01*
X105708971Y-62274101D01*
X105723172Y-62256796D01*
X105783796Y-62196172D01*
X105801101Y-62181971D01*
X105872386Y-62134340D01*
X105877827Y-62131432D01*
X105877831Y-62131429D01*
X105886691Y-62126693D01*
X105886697Y-62126691D01*
X105892142Y-62123780D01*
X105971340Y-62090976D01*
X105992767Y-62084476D01*
X106076851Y-62067750D01*
X106099131Y-62065556D01*
X106117550Y-62065556D01*
X106129801Y-62064954D01*
X106148139Y-62063148D01*
X106635860Y-62063148D01*
X106651999Y-62064737D01*
G37*
G36*
X99308228Y-60141703D02*
G01*
X99463100Y-60205853D01*
X99602481Y-60298985D01*
X99721015Y-60417519D01*
X99814147Y-60556900D01*
X99878297Y-60711772D01*
X99911000Y-60876184D01*
X99911000Y-61043816D01*
X99878297Y-61208228D01*
X99814147Y-61363100D01*
X99721015Y-61502481D01*
X99602481Y-61621015D01*
X99463100Y-61714147D01*
X99308228Y-61778297D01*
X99143816Y-61811000D01*
X98976184Y-61811000D01*
X98811772Y-61778297D01*
X98656900Y-61714147D01*
X98517519Y-61621015D01*
X98398985Y-61502481D01*
X98305853Y-61363100D01*
X98241703Y-61208228D01*
X98209000Y-61043816D01*
X98209000Y-60876184D01*
X98241703Y-60711772D01*
X98305853Y-60556900D01*
X98398985Y-60417519D01*
X98517519Y-60298985D01*
X98656900Y-60205853D01*
X98811772Y-60141703D01*
X98976184Y-60109000D01*
X99143816Y-60109000D01*
X99308228Y-60141703D01*
G37*
G36*
X117088228Y-60141703D02*
G01*
X117243100Y-60205853D01*
X117382481Y-60298985D01*
X117501015Y-60417519D01*
X117594147Y-60556900D01*
X117658297Y-60711772D01*
X117691000Y-60876184D01*
X117691000Y-61043816D01*
X117658297Y-61208228D01*
X117594147Y-61363100D01*
X117501015Y-61502481D01*
X117382481Y-61621015D01*
X117243100Y-61714147D01*
X117088228Y-61778297D01*
X116923816Y-61811000D01*
X116756184Y-61811000D01*
X116591772Y-61778297D01*
X116436900Y-61714147D01*
X116297519Y-61621015D01*
X116178985Y-61502481D01*
X116085853Y-61363100D01*
X116021703Y-61208228D01*
X115989000Y-61043816D01*
X115989000Y-60876184D01*
X116021703Y-60711772D01*
X116085853Y-60556900D01*
X116178985Y-60417519D01*
X116297519Y-60298985D01*
X116436900Y-60205853D01*
X116591772Y-60141703D01*
X116756184Y-60109000D01*
X116923816Y-60109000D01*
X117088228Y-60141703D01*
G37*
G36*
X101848228Y-60141703D02*
G01*
X102003100Y-60205853D01*
X102142481Y-60298985D01*
X102261015Y-60417519D01*
X102354147Y-60556900D01*
X102418297Y-60711772D01*
X102451000Y-60876184D01*
X102451000Y-61043816D01*
X102418297Y-61208228D01*
X102354147Y-61363100D01*
X102261015Y-61502481D01*
X102142481Y-61621015D01*
X102003100Y-61714147D01*
X101848228Y-61778297D01*
X101683816Y-61811000D01*
X101516184Y-61811000D01*
X101351772Y-61778297D01*
X101196900Y-61714147D01*
X101057519Y-61621015D01*
X100938985Y-61502481D01*
X100845853Y-61363100D01*
X100781703Y-61208228D01*
X100749000Y-61043816D01*
X100749000Y-60876184D01*
X100781703Y-60711772D01*
X100845853Y-60556900D01*
X100938985Y-60417519D01*
X101057519Y-60298985D01*
X101196900Y-60205853D01*
X101351772Y-60141703D01*
X101516184Y-60109000D01*
X101683816Y-60109000D01*
X101848228Y-60141703D01*
G37*
G36*
X114548228Y-60141703D02*
G01*
X114703100Y-60205853D01*
X114842481Y-60298985D01*
X114961015Y-60417519D01*
X115054147Y-60556900D01*
X115118297Y-60711772D01*
X115151000Y-60876184D01*
X115151000Y-61043816D01*
X115118297Y-61208228D01*
X115054147Y-61363100D01*
X114961015Y-61502481D01*
X114842481Y-61621015D01*
X114703100Y-61714147D01*
X114548228Y-61778297D01*
X114383816Y-61811000D01*
X114216184Y-61811000D01*
X114051772Y-61778297D01*
X113896900Y-61714147D01*
X113757519Y-61621015D01*
X113638985Y-61502481D01*
X113545853Y-61363100D01*
X113481703Y-61208228D01*
X113449000Y-61043816D01*
X113449000Y-60876184D01*
X113481703Y-60711772D01*
X113545853Y-60556900D01*
X113638985Y-60417519D01*
X113757519Y-60298985D01*
X113896900Y-60205853D01*
X114051772Y-60141703D01*
X114216184Y-60109000D01*
X114383816Y-60109000D01*
X114548228Y-60141703D01*
G37*
G36*
X108023674Y-59832465D02*
G01*
X108061367Y-59843899D01*
X108096103Y-59862466D01*
X108126548Y-59887452D01*
X108151534Y-59917897D01*
X108170101Y-59952633D01*
X108181535Y-59990326D01*
X108186000Y-60035661D01*
X108186000Y-61122339D01*
X108181535Y-61167674D01*
X108170101Y-61205367D01*
X108151534Y-61240103D01*
X108126548Y-61270548D01*
X108096103Y-61295534D01*
X108061367Y-61314101D01*
X108023674Y-61325535D01*
X107978339Y-61330000D01*
X107141661Y-61330000D01*
X107096326Y-61325535D01*
X107058633Y-61314101D01*
X107023897Y-61295534D01*
X106993452Y-61270548D01*
X106968466Y-61240103D01*
X106949899Y-61205367D01*
X106938465Y-61167674D01*
X106934000Y-61122339D01*
X106934000Y-60035661D01*
X106938465Y-59990326D01*
X106949899Y-59952633D01*
X106968466Y-59917897D01*
X106993452Y-59887452D01*
X107023897Y-59862466D01*
X107058633Y-59843899D01*
X107096326Y-59832465D01*
X107141661Y-59828000D01*
X107978339Y-59828000D01*
X108023674Y-59832465D01*
G37*
G36*
X110073674Y-59832465D02*
G01*
X110111367Y-59843899D01*
X110146103Y-59862466D01*
X110176548Y-59887452D01*
X110201534Y-59917897D01*
X110220101Y-59952633D01*
X110231535Y-59990326D01*
X110236000Y-60035661D01*
X110236000Y-61122339D01*
X110231535Y-61167674D01*
X110220101Y-61205367D01*
X110201534Y-61240103D01*
X110176548Y-61270548D01*
X110146103Y-61295534D01*
X110111367Y-61314101D01*
X110073674Y-61325535D01*
X110028339Y-61330000D01*
X109191661Y-61330000D01*
X109146326Y-61325535D01*
X109108633Y-61314101D01*
X109073897Y-61295534D01*
X109043452Y-61270548D01*
X109018466Y-61240103D01*
X108999899Y-61205367D01*
X108988465Y-61167674D01*
X108984000Y-61122339D01*
X108984000Y-60035661D01*
X108988465Y-59990326D01*
X108999899Y-59952633D01*
X109018466Y-59917897D01*
X109043452Y-59887452D01*
X109073897Y-59862466D01*
X109108633Y-59843899D01*
X109146326Y-59832465D01*
X109191661Y-59828000D01*
X110028339Y-59828000D01*
X110073674Y-59832465D01*
G37*
G36*
X99308228Y-57601703D02*
G01*
X99463100Y-57665853D01*
X99602481Y-57758985D01*
X99721015Y-57877519D01*
X99814147Y-58016900D01*
X99878297Y-58171772D01*
X99911000Y-58336184D01*
X99911000Y-58503816D01*
X99878297Y-58668228D01*
X99814147Y-58823100D01*
X99721015Y-58962481D01*
X99602481Y-59081015D01*
X99463100Y-59174147D01*
X99308228Y-59238297D01*
X99143816Y-59271000D01*
X98976184Y-59271000D01*
X98811772Y-59238297D01*
X98656900Y-59174147D01*
X98517519Y-59081015D01*
X98398985Y-58962481D01*
X98305853Y-58823100D01*
X98241703Y-58668228D01*
X98209000Y-58503816D01*
X98209000Y-58336184D01*
X98241703Y-58171772D01*
X98305853Y-58016900D01*
X98398985Y-57877519D01*
X98517519Y-57758985D01*
X98656900Y-57665853D01*
X98811772Y-57601703D01*
X98976184Y-57569000D01*
X99143816Y-57569000D01*
X99308228Y-57601703D01*
G37*
G36*
X101848228Y-57601703D02*
G01*
X102003100Y-57665853D01*
X102142481Y-57758985D01*
X102261015Y-57877519D01*
X102354147Y-58016900D01*
X102418297Y-58171772D01*
X102451000Y-58336184D01*
X102451000Y-58503816D01*
X102418297Y-58668228D01*
X102354147Y-58823100D01*
X102261015Y-58962481D01*
X102142481Y-59081015D01*
X102003100Y-59174147D01*
X101848228Y-59238297D01*
X101683816Y-59271000D01*
X101516184Y-59271000D01*
X101351772Y-59238297D01*
X101196900Y-59174147D01*
X101057519Y-59081015D01*
X100938985Y-58962481D01*
X100845853Y-58823100D01*
X100781703Y-58668228D01*
X100749000Y-58503816D01*
X100749000Y-58336184D01*
X100781703Y-58171772D01*
X100845853Y-58016900D01*
X100938985Y-57877519D01*
X101057519Y-57758985D01*
X101196900Y-57665853D01*
X101351772Y-57601703D01*
X101516184Y-57569000D01*
X101683816Y-57569000D01*
X101848228Y-57601703D01*
G37*
G36*
X114548228Y-57601703D02*
G01*
X114703100Y-57665853D01*
X114842481Y-57758985D01*
X114961015Y-57877519D01*
X115054147Y-58016900D01*
X115118297Y-58171772D01*
X115151000Y-58336184D01*
X115151000Y-58503816D01*
X115118297Y-58668228D01*
X115054147Y-58823100D01*
X114961015Y-58962481D01*
X114842481Y-59081015D01*
X114703100Y-59174147D01*
X114548228Y-59238297D01*
X114383816Y-59271000D01*
X114216184Y-59271000D01*
X114051772Y-59238297D01*
X113896900Y-59174147D01*
X113757519Y-59081015D01*
X113638985Y-58962481D01*
X113545853Y-58823100D01*
X113481703Y-58668228D01*
X113449000Y-58503816D01*
X113449000Y-58336184D01*
X113481703Y-58171772D01*
X113545853Y-58016900D01*
X113638985Y-57877519D01*
X113757519Y-57758985D01*
X113896900Y-57665853D01*
X114051772Y-57601703D01*
X114216184Y-57569000D01*
X114383816Y-57569000D01*
X114548228Y-57601703D01*
G37*
G36*
X117088228Y-57601703D02*
G01*
X117243100Y-57665853D01*
X117382481Y-57758985D01*
X117501015Y-57877519D01*
X117594147Y-58016900D01*
X117658297Y-58171772D01*
X117691000Y-58336184D01*
X117691000Y-58503816D01*
X117658297Y-58668228D01*
X117594147Y-58823100D01*
X117501015Y-58962481D01*
X117382481Y-59081015D01*
X117243100Y-59174147D01*
X117088228Y-59238297D01*
X116923816Y-59271000D01*
X116756184Y-59271000D01*
X116591772Y-59238297D01*
X116436900Y-59174147D01*
X116297519Y-59081015D01*
X116178985Y-58962481D01*
X116085853Y-58823100D01*
X116021703Y-58668228D01*
X115989000Y-58503816D01*
X115989000Y-58336184D01*
X116021703Y-58171772D01*
X116085853Y-58016900D01*
X116178985Y-57877519D01*
X116297519Y-57758985D01*
X116436900Y-57665853D01*
X116591772Y-57601703D01*
X116756184Y-57569000D01*
X116923816Y-57569000D01*
X117088228Y-57601703D01*
G37*
G36*
X101848228Y-55061703D02*
G01*
X102003100Y-55125853D01*
X102142481Y-55218985D01*
X102261015Y-55337519D01*
X102354147Y-55476900D01*
X102418297Y-55631772D01*
X102451000Y-55796184D01*
X102451000Y-55963816D01*
X102418297Y-56128228D01*
X102354147Y-56283100D01*
X102261015Y-56422481D01*
X102142481Y-56541015D01*
X102003100Y-56634147D01*
X101848228Y-56698297D01*
X101683816Y-56731000D01*
X101516184Y-56731000D01*
X101351772Y-56698297D01*
X101196900Y-56634147D01*
X101057519Y-56541015D01*
X100938985Y-56422481D01*
X100845853Y-56283100D01*
X100781703Y-56128228D01*
X100749000Y-55963816D01*
X100749000Y-55796184D01*
X100781703Y-55631772D01*
X100845853Y-55476900D01*
X100938985Y-55337519D01*
X101057519Y-55218985D01*
X101196900Y-55125853D01*
X101351772Y-55061703D01*
X101516184Y-55029000D01*
X101683816Y-55029000D01*
X101848228Y-55061703D01*
G37*
G36*
X114548228Y-55061703D02*
G01*
X114703100Y-55125853D01*
X114842481Y-55218985D01*
X114961015Y-55337519D01*
X115054147Y-55476900D01*
X115118297Y-55631772D01*
X115151000Y-55796184D01*
X115151000Y-55963816D01*
X115118297Y-56128228D01*
X115054147Y-56283100D01*
X114961015Y-56422481D01*
X114842481Y-56541015D01*
X114703100Y-56634147D01*
X114548228Y-56698297D01*
X114383816Y-56731000D01*
X114216184Y-56731000D01*
X114051772Y-56698297D01*
X113896900Y-56634147D01*
X113757519Y-56541015D01*
X113638985Y-56422481D01*
X113545853Y-56283100D01*
X113481703Y-56128228D01*
X113449000Y-55963816D01*
X113449000Y-55796184D01*
X113481703Y-55631772D01*
X113545853Y-55476900D01*
X113638985Y-55337519D01*
X113757519Y-55218985D01*
X113896900Y-55125853D01*
X114051772Y-55061703D01*
X114216184Y-55029000D01*
X114383816Y-55029000D01*
X114548228Y-55061703D01*
G37*
G36*
X99308228Y-55061703D02*
G01*
X99463100Y-55125853D01*
X99602481Y-55218985D01*
X99721015Y-55337519D01*
X99814147Y-55476900D01*
X99878297Y-55631772D01*
X99911000Y-55796184D01*
X99911000Y-55963816D01*
X99878297Y-56128228D01*
X99814147Y-56283100D01*
X99721015Y-56422481D01*
X99602481Y-56541015D01*
X99463100Y-56634147D01*
X99308228Y-56698297D01*
X99143816Y-56731000D01*
X98976184Y-56731000D01*
X98811772Y-56698297D01*
X98656900Y-56634147D01*
X98517519Y-56541015D01*
X98398985Y-56422481D01*
X98305853Y-56283100D01*
X98241703Y-56128228D01*
X98209000Y-55963816D01*
X98209000Y-55796184D01*
X98241703Y-55631772D01*
X98305853Y-55476900D01*
X98398985Y-55337519D01*
X98517519Y-55218985D01*
X98656900Y-55125853D01*
X98811772Y-55061703D01*
X98976184Y-55029000D01*
X99143816Y-55029000D01*
X99308228Y-55061703D01*
G37*
G36*
X117088228Y-55061703D02*
G01*
X117243100Y-55125853D01*
X117382481Y-55218985D01*
X117501015Y-55337519D01*
X117594147Y-55476900D01*
X117658297Y-55631772D01*
X117691000Y-55796184D01*
X117691000Y-55963816D01*
X117658297Y-56128228D01*
X117594147Y-56283100D01*
X117501015Y-56422481D01*
X117382481Y-56541015D01*
X117243100Y-56634147D01*
X117088228Y-56698297D01*
X116923816Y-56731000D01*
X116756184Y-56731000D01*
X116591772Y-56698297D01*
X116436900Y-56634147D01*
X116297519Y-56541015D01*
X116178985Y-56422481D01*
X116085853Y-56283100D01*
X116021703Y-56128228D01*
X115989000Y-55963816D01*
X115989000Y-55796184D01*
X116021703Y-55631772D01*
X116085853Y-55476900D01*
X116178985Y-55337519D01*
X116297519Y-55218985D01*
X116436900Y-55125853D01*
X116591772Y-55061703D01*
X116756184Y-55029000D01*
X116923816Y-55029000D01*
X117088228Y-55061703D01*
G37*
G36*
X101848228Y-52521703D02*
G01*
X102003100Y-52585853D01*
X102142481Y-52678985D01*
X102261015Y-52797519D01*
X102354147Y-52936900D01*
X102418297Y-53091772D01*
X102451000Y-53256184D01*
X102451000Y-53423816D01*
X102418297Y-53588228D01*
X102354147Y-53743100D01*
X102261015Y-53882481D01*
X102142481Y-54001015D01*
X102003100Y-54094147D01*
X101848228Y-54158297D01*
X101683816Y-54191000D01*
X101516184Y-54191000D01*
X101351772Y-54158297D01*
X101196900Y-54094147D01*
X101057519Y-54001015D01*
X100938985Y-53882481D01*
X100845853Y-53743100D01*
X100781703Y-53588228D01*
X100749000Y-53423816D01*
X100749000Y-53256184D01*
X100781703Y-53091772D01*
X100845853Y-52936900D01*
X100938985Y-52797519D01*
X101057519Y-52678985D01*
X101196900Y-52585853D01*
X101351772Y-52521703D01*
X101516184Y-52489000D01*
X101683816Y-52489000D01*
X101848228Y-52521703D01*
G37*
G36*
X117088228Y-52521703D02*
G01*
X117243100Y-52585853D01*
X117382481Y-52678985D01*
X117501015Y-52797519D01*
X117594147Y-52936900D01*
X117658297Y-53091772D01*
X117691000Y-53256184D01*
X117691000Y-53423816D01*
X117658297Y-53588228D01*
X117594147Y-53743100D01*
X117501015Y-53882481D01*
X117382481Y-54001015D01*
X117243100Y-54094147D01*
X117088228Y-54158297D01*
X116923816Y-54191000D01*
X116756184Y-54191000D01*
X116591772Y-54158297D01*
X116436900Y-54094147D01*
X116297519Y-54001015D01*
X116178985Y-53882481D01*
X116085853Y-53743100D01*
X116021703Y-53588228D01*
X115989000Y-53423816D01*
X115989000Y-53256184D01*
X116021703Y-53091772D01*
X116085853Y-52936900D01*
X116178985Y-52797519D01*
X116297519Y-52678985D01*
X116436900Y-52585853D01*
X116591772Y-52521703D01*
X116756184Y-52489000D01*
X116923816Y-52489000D01*
X117088228Y-52521703D01*
G37*
G36*
X99308228Y-52521703D02*
G01*
X99463100Y-52585853D01*
X99602481Y-52678985D01*
X99721015Y-52797519D01*
X99814147Y-52936900D01*
X99878297Y-53091772D01*
X99911000Y-53256184D01*
X99911000Y-53423816D01*
X99878297Y-53588228D01*
X99814147Y-53743100D01*
X99721015Y-53882481D01*
X99602481Y-54001015D01*
X99463100Y-54094147D01*
X99308228Y-54158297D01*
X99143816Y-54191000D01*
X98976184Y-54191000D01*
X98811772Y-54158297D01*
X98656900Y-54094147D01*
X98517519Y-54001015D01*
X98398985Y-53882481D01*
X98305853Y-53743100D01*
X98241703Y-53588228D01*
X98209000Y-53423816D01*
X98209000Y-53256184D01*
X98241703Y-53091772D01*
X98305853Y-52936900D01*
X98398985Y-52797519D01*
X98517519Y-52678985D01*
X98656900Y-52585853D01*
X98811772Y-52521703D01*
X98976184Y-52489000D01*
X99143816Y-52489000D01*
X99308228Y-52521703D01*
G37*
G36*
X114548228Y-52521703D02*
G01*
X114703100Y-52585853D01*
X114842481Y-52678985D01*
X114961015Y-52797519D01*
X115054147Y-52936900D01*
X115118297Y-53091772D01*
X115151000Y-53256184D01*
X115151000Y-53423816D01*
X115118297Y-53588228D01*
X115054147Y-53743100D01*
X114961015Y-53882481D01*
X114842481Y-54001015D01*
X114703100Y-54094147D01*
X114548228Y-54158297D01*
X114383816Y-54191000D01*
X114216184Y-54191000D01*
X114051772Y-54158297D01*
X113896900Y-54094147D01*
X113757519Y-54001015D01*
X113638985Y-53882481D01*
X113545853Y-53743100D01*
X113481703Y-53588228D01*
X113449000Y-53423816D01*
X113449000Y-53256184D01*
X113481703Y-53091772D01*
X113545853Y-52936900D01*
X113638985Y-52797519D01*
X113757519Y-52678985D01*
X113896900Y-52585853D01*
X114051772Y-52521703D01*
X114216184Y-52489000D01*
X114383816Y-52489000D01*
X114548228Y-52521703D01*
G37*
G36*
X99911000Y-51651000D02*
G01*
X98209000Y-51651000D01*
X98209000Y-49949000D01*
X99911000Y-49949000D01*
X99911000Y-51651000D01*
G37*
G36*
X102451000Y-51651000D02*
G01*
X100749000Y-51651000D01*
X100749000Y-49949000D01*
X102451000Y-49949000D01*
X102451000Y-51651000D01*
G37*
G36*
X117088228Y-49981703D02*
G01*
X117243100Y-50045853D01*
X117382481Y-50138985D01*
X117501015Y-50257519D01*
X117594147Y-50396900D01*
X117658297Y-50551772D01*
X117691000Y-50716184D01*
X117691000Y-50883816D01*
X117658297Y-51048228D01*
X117594147Y-51203100D01*
X117501015Y-51342481D01*
X117382481Y-51461015D01*
X117243100Y-51554147D01*
X117088228Y-51618297D01*
X116923816Y-51651000D01*
X116756184Y-51651000D01*
X116591772Y-51618297D01*
X116436900Y-51554147D01*
X116297519Y-51461015D01*
X116178985Y-51342481D01*
X116085853Y-51203100D01*
X116021703Y-51048228D01*
X115989000Y-50883816D01*
X115989000Y-50716184D01*
X116021703Y-50551772D01*
X116085853Y-50396900D01*
X116178985Y-50257519D01*
X116297519Y-50138985D01*
X116436900Y-50045853D01*
X116591772Y-49981703D01*
X116756184Y-49949000D01*
X116923816Y-49949000D01*
X117088228Y-49981703D01*
G37*
G36*
X114548228Y-49981703D02*
G01*
X114703100Y-50045853D01*
X114842481Y-50138985D01*
X114961015Y-50257519D01*
X115054147Y-50396900D01*
X115118297Y-50551772D01*
X115151000Y-50716184D01*
X115151000Y-50883816D01*
X115118297Y-51048228D01*
X115054147Y-51203100D01*
X114961015Y-51342481D01*
X114842481Y-51461015D01*
X114703100Y-51554147D01*
X114548228Y-51618297D01*
X114383816Y-51651000D01*
X114216184Y-51651000D01*
X114051772Y-51618297D01*
X113896900Y-51554147D01*
X113757519Y-51461015D01*
X113638985Y-51342481D01*
X113545853Y-51203100D01*
X113481703Y-51048228D01*
X113449000Y-50883816D01*
X113449000Y-50716184D01*
X113481703Y-50551772D01*
X113545853Y-50396900D01*
X113638985Y-50257519D01*
X113757519Y-50138985D01*
X113896900Y-50045853D01*
X114051772Y-49981703D01*
X114216184Y-49949000D01*
X114383816Y-49949000D01*
X114548228Y-49981703D01*
G37*
G36*
X110148000Y-50958000D02*
G01*
X108546000Y-50958000D01*
X108546000Y-48356000D01*
X110148000Y-48356000D01*
X110148000Y-50958000D01*
G37*
G36*
X107735000Y-50958000D02*
G01*
X106133000Y-50958000D01*
X106133000Y-48356000D01*
X107735000Y-48356000D01*
X107735000Y-50958000D01*
G37*
G36*
X112561000Y-50958000D02*
G01*
X110959000Y-50958000D01*
X110959000Y-48356000D01*
X112561000Y-48356000D01*
X112561000Y-50958000D01*
G37*
G36*
X100596000Y-46621000D02*
G01*
X98794000Y-46621000D01*
X98794000Y-44819000D01*
X100596000Y-44819000D01*
X100596000Y-46621000D01*
G37*
G36*
X107962000Y-46621000D02*
G01*
X106160000Y-46621000D01*
X106160000Y-44819000D01*
X107962000Y-44819000D01*
X107962000Y-46621000D01*
G37*
G36*
X116191512Y-44823927D02*
G01*
X116340812Y-44853624D01*
X116504784Y-44921544D01*
X116652354Y-45020147D01*
X116777853Y-45145646D01*
X116876456Y-45293216D01*
X116944376Y-45457188D01*
X116979000Y-45631259D01*
X116979000Y-45808741D01*
X116944376Y-45982812D01*
X116876456Y-46146784D01*
X116777853Y-46294354D01*
X116652354Y-46419853D01*
X116504784Y-46518456D01*
X116340812Y-46586376D01*
X116191512Y-46616073D01*
X116166742Y-46621000D01*
X115989258Y-46621000D01*
X115964488Y-46616073D01*
X115815188Y-46586376D01*
X115651216Y-46518456D01*
X115503646Y-46419853D01*
X115378147Y-46294354D01*
X115279544Y-46146784D01*
X115211624Y-45982812D01*
X115177000Y-45808741D01*
X115177000Y-45631259D01*
X115211624Y-45457188D01*
X115279544Y-45293216D01*
X115378147Y-45145646D01*
X115503646Y-45020147D01*
X115651216Y-44921544D01*
X115815188Y-44853624D01*
X115964488Y-44823927D01*
X115989258Y-44819000D01*
X116166742Y-44819000D01*
X116191512Y-44823927D01*
G37*
G36*
X113651512Y-44823927D02*
G01*
X113800812Y-44853624D01*
X113964784Y-44921544D01*
X114112354Y-45020147D01*
X114237853Y-45145646D01*
X114336456Y-45293216D01*
X114404376Y-45457188D01*
X114439000Y-45631259D01*
X114439000Y-45808741D01*
X114404376Y-45982812D01*
X114336456Y-46146784D01*
X114237853Y-46294354D01*
X114112354Y-46419853D01*
X113964784Y-46518456D01*
X113800812Y-46586376D01*
X113651512Y-46616073D01*
X113626742Y-46621000D01*
X113449258Y-46621000D01*
X113424488Y-46616073D01*
X113275188Y-46586376D01*
X113111216Y-46518456D01*
X112963646Y-46419853D01*
X112838147Y-46294354D01*
X112739544Y-46146784D01*
X112671624Y-45982812D01*
X112637000Y-45808741D01*
X112637000Y-45631259D01*
X112671624Y-45457188D01*
X112739544Y-45293216D01*
X112838147Y-45145646D01*
X112963646Y-45020147D01*
X113111216Y-44921544D01*
X113275188Y-44853624D01*
X113424488Y-44823927D01*
X113449258Y-44819000D01*
X113626742Y-44819000D01*
X113651512Y-44823927D01*
G37*
G36*
X111899000Y-46621000D02*
G01*
X110097000Y-46621000D01*
X110097000Y-44819000D01*
X111899000Y-44819000D01*
X111899000Y-46621000D01*
G37*
G36*
X104279000Y-46621000D02*
G01*
X102477000Y-46621000D01*
X102477000Y-44819000D01*
X104279000Y-44819000D01*
X104279000Y-46621000D01*
G37*
M02*
