G04 #@! TF.GenerationSoftware,KiCad,Pcbnew,(5.1.5)-3*
G04 #@! TF.CreationDate,2020-06-01T03:43:57-04:00*
G04 #@! TF.ProjectId,6526KernalSwitcher,36353236-4b65-4726-9e61-6c5377697463,rev?*
G04 #@! TF.SameCoordinates,Original*
G04 #@! TF.FileFunction,Copper,L1,Top*
G04 #@! TF.FilePolarity,Positive*
%FSLAX46Y46*%
G04 Gerber Fmt 4.6, Leading zero omitted, Abs format (unit mm)*
G04 Created by KiCad (PCBNEW (5.1.5)-3) date 2020-06-01 03:43:57*
%MOMM*%
%LPD*%
G04 APERTURE LIST*
%ADD10R,0.550000X1.600000*%
%ADD11R,1.600000X0.550000*%
%ADD12O,1.600000X1.600000*%
%ADD13R,1.600000X1.600000*%
%ADD14C,0.100000*%
%ADD15R,1.700000X1.700000*%
%ADD16O,1.700000X1.700000*%
%ADD17R,0.900000X0.800000*%
%ADD18R,0.800000X0.900000*%
%ADD19R,1.300000X1.700000*%
%ADD20C,0.800000*%
%ADD21C,0.350000*%
%ADD22C,1.500000*%
%ADD23C,0.539000*%
%ADD24C,0.250000*%
%ADD25C,1.000000*%
%ADD26C,0.495000*%
%ADD27C,0.439000*%
%ADD28C,0.400000*%
%ADD29C,0.237000*%
G04 APERTURE END LIST*
D10*
X105150000Y-67750000D03*
X105950000Y-67750000D03*
X106750000Y-67750000D03*
X107550000Y-67750000D03*
X108350000Y-67750000D03*
X109150000Y-67750000D03*
X109950000Y-67750000D03*
X110750000Y-67750000D03*
D11*
X112200000Y-66300000D03*
X112200000Y-65500000D03*
X112200000Y-64700000D03*
X112200000Y-63900000D03*
X112200000Y-63100000D03*
X112200000Y-62300000D03*
X112200000Y-61500000D03*
X112200000Y-60700000D03*
D10*
X110750000Y-59250000D03*
X109950000Y-59250000D03*
X109150000Y-59250000D03*
X108350000Y-59250000D03*
X107550000Y-59250000D03*
X106750000Y-59250000D03*
X105950000Y-59250000D03*
X105150000Y-59250000D03*
D11*
X103700000Y-60700000D03*
X103700000Y-61500000D03*
X103700000Y-62300000D03*
X103700000Y-63100000D03*
X103700000Y-63900000D03*
X103700000Y-64700000D03*
X103700000Y-65500000D03*
X103700000Y-66300000D03*
D12*
X116840000Y-50800000D03*
X101600000Y-99060000D03*
X116840000Y-53340000D03*
X101600000Y-96520000D03*
X116840000Y-55880000D03*
X101600000Y-93980000D03*
X116840000Y-58420000D03*
X101600000Y-91440000D03*
X116840000Y-60960000D03*
X101600000Y-88900000D03*
X116840000Y-63500000D03*
X101600000Y-86360000D03*
X116840000Y-66040000D03*
X101600000Y-83820000D03*
X116840000Y-68580000D03*
X101600000Y-81280000D03*
X116840000Y-71120000D03*
X101600000Y-78740000D03*
X116840000Y-73660000D03*
X101600000Y-76200000D03*
X116840000Y-76200000D03*
X101600000Y-73660000D03*
X116840000Y-78740000D03*
X101600000Y-71120000D03*
X116840000Y-81280000D03*
X101600000Y-68580000D03*
X116840000Y-83820000D03*
X101600000Y-66040000D03*
X116840000Y-86360000D03*
X101600000Y-63500000D03*
X116840000Y-88900000D03*
X101600000Y-60960000D03*
X116840000Y-91440000D03*
X101600000Y-58420000D03*
X116840000Y-93980000D03*
X101600000Y-55880000D03*
X116840000Y-96520000D03*
X101600000Y-53340000D03*
X116840000Y-99060000D03*
D13*
X101600000Y-50800000D03*
X99060000Y-50800000D03*
D12*
X114300000Y-99060000D03*
X99060000Y-53340000D03*
X114300000Y-96520000D03*
X99060000Y-55880000D03*
X114300000Y-93980000D03*
X99060000Y-58420000D03*
X114300000Y-91440000D03*
X99060000Y-60960000D03*
X114300000Y-88900000D03*
X99060000Y-63500000D03*
X114300000Y-86360000D03*
X99060000Y-66040000D03*
X114300000Y-83820000D03*
X99060000Y-68580000D03*
X114300000Y-81280000D03*
X99060000Y-71120000D03*
X114300000Y-78740000D03*
X99060000Y-73660000D03*
X114300000Y-76200000D03*
X99060000Y-76200000D03*
X114300000Y-73660000D03*
X99060000Y-78740000D03*
X114300000Y-71120000D03*
X99060000Y-81280000D03*
X114300000Y-68580000D03*
X99060000Y-83820000D03*
X114300000Y-66040000D03*
X99060000Y-86360000D03*
X114300000Y-63500000D03*
X99060000Y-88900000D03*
X114300000Y-60960000D03*
X99060000Y-91440000D03*
X114300000Y-58420000D03*
X99060000Y-93980000D03*
X114300000Y-55880000D03*
X99060000Y-96520000D03*
X114300000Y-53340000D03*
X99060000Y-99060000D03*
X114300000Y-50800000D03*
G04 #@! TA.AperFunction,SMDPad,CuDef*
D14*
G36*
X107673505Y-55943204D02*
G01*
X107697773Y-55946804D01*
X107721572Y-55952765D01*
X107744671Y-55961030D01*
X107766850Y-55971520D01*
X107787893Y-55984132D01*
X107807599Y-55998747D01*
X107825777Y-56015223D01*
X107842253Y-56033401D01*
X107856868Y-56053107D01*
X107869480Y-56074150D01*
X107879970Y-56096329D01*
X107888235Y-56119428D01*
X107894196Y-56143227D01*
X107897796Y-56167495D01*
X107899000Y-56191999D01*
X107899000Y-57092001D01*
X107897796Y-57116505D01*
X107894196Y-57140773D01*
X107888235Y-57164572D01*
X107879970Y-57187671D01*
X107869480Y-57209850D01*
X107856868Y-57230893D01*
X107842253Y-57250599D01*
X107825777Y-57268777D01*
X107807599Y-57285253D01*
X107787893Y-57299868D01*
X107766850Y-57312480D01*
X107744671Y-57322970D01*
X107721572Y-57331235D01*
X107697773Y-57337196D01*
X107673505Y-57340796D01*
X107649001Y-57342000D01*
X106998999Y-57342000D01*
X106974495Y-57340796D01*
X106950227Y-57337196D01*
X106926428Y-57331235D01*
X106903329Y-57322970D01*
X106881150Y-57312480D01*
X106860107Y-57299868D01*
X106840401Y-57285253D01*
X106822223Y-57268777D01*
X106805747Y-57250599D01*
X106791132Y-57230893D01*
X106778520Y-57209850D01*
X106768030Y-57187671D01*
X106759765Y-57164572D01*
X106753804Y-57140773D01*
X106750204Y-57116505D01*
X106749000Y-57092001D01*
X106749000Y-56191999D01*
X106750204Y-56167495D01*
X106753804Y-56143227D01*
X106759765Y-56119428D01*
X106768030Y-56096329D01*
X106778520Y-56074150D01*
X106791132Y-56053107D01*
X106805747Y-56033401D01*
X106822223Y-56015223D01*
X106840401Y-55998747D01*
X106860107Y-55984132D01*
X106881150Y-55971520D01*
X106903329Y-55961030D01*
X106926428Y-55952765D01*
X106950227Y-55946804D01*
X106974495Y-55943204D01*
X106998999Y-55942000D01*
X107649001Y-55942000D01*
X107673505Y-55943204D01*
G37*
G04 #@! TD.AperFunction*
G04 #@! TA.AperFunction,SMDPad,CuDef*
G36*
X105623505Y-55943204D02*
G01*
X105647773Y-55946804D01*
X105671572Y-55952765D01*
X105694671Y-55961030D01*
X105716850Y-55971520D01*
X105737893Y-55984132D01*
X105757599Y-55998747D01*
X105775777Y-56015223D01*
X105792253Y-56033401D01*
X105806868Y-56053107D01*
X105819480Y-56074150D01*
X105829970Y-56096329D01*
X105838235Y-56119428D01*
X105844196Y-56143227D01*
X105847796Y-56167495D01*
X105849000Y-56191999D01*
X105849000Y-57092001D01*
X105847796Y-57116505D01*
X105844196Y-57140773D01*
X105838235Y-57164572D01*
X105829970Y-57187671D01*
X105819480Y-57209850D01*
X105806868Y-57230893D01*
X105792253Y-57250599D01*
X105775777Y-57268777D01*
X105757599Y-57285253D01*
X105737893Y-57299868D01*
X105716850Y-57312480D01*
X105694671Y-57322970D01*
X105671572Y-57331235D01*
X105647773Y-57337196D01*
X105623505Y-57340796D01*
X105599001Y-57342000D01*
X104948999Y-57342000D01*
X104924495Y-57340796D01*
X104900227Y-57337196D01*
X104876428Y-57331235D01*
X104853329Y-57322970D01*
X104831150Y-57312480D01*
X104810107Y-57299868D01*
X104790401Y-57285253D01*
X104772223Y-57268777D01*
X104755747Y-57250599D01*
X104741132Y-57230893D01*
X104728520Y-57209850D01*
X104718030Y-57187671D01*
X104709765Y-57164572D01*
X104703804Y-57140773D01*
X104700204Y-57116505D01*
X104699000Y-57092001D01*
X104699000Y-56191999D01*
X104700204Y-56167495D01*
X104703804Y-56143227D01*
X104709765Y-56119428D01*
X104718030Y-56096329D01*
X104728520Y-56074150D01*
X104741132Y-56053107D01*
X104755747Y-56033401D01*
X104772223Y-56015223D01*
X104790401Y-55998747D01*
X104810107Y-55984132D01*
X104831150Y-55971520D01*
X104853329Y-55961030D01*
X104876428Y-55952765D01*
X104900227Y-55946804D01*
X104924495Y-55943204D01*
X104948999Y-55942000D01*
X105599001Y-55942000D01*
X105623505Y-55943204D01*
G37*
G04 #@! TD.AperFunction*
G04 #@! TA.AperFunction,SMDPad,CuDef*
G36*
X109814505Y-52133204D02*
G01*
X109838773Y-52136804D01*
X109862572Y-52142765D01*
X109885671Y-52151030D01*
X109907850Y-52161520D01*
X109928893Y-52174132D01*
X109948599Y-52188747D01*
X109966777Y-52205223D01*
X109983253Y-52223401D01*
X109997868Y-52243107D01*
X110010480Y-52264150D01*
X110020970Y-52286329D01*
X110029235Y-52309428D01*
X110035196Y-52333227D01*
X110038796Y-52357495D01*
X110040000Y-52381999D01*
X110040000Y-53282001D01*
X110038796Y-53306505D01*
X110035196Y-53330773D01*
X110029235Y-53354572D01*
X110020970Y-53377671D01*
X110010480Y-53399850D01*
X109997868Y-53420893D01*
X109983253Y-53440599D01*
X109966777Y-53458777D01*
X109948599Y-53475253D01*
X109928893Y-53489868D01*
X109907850Y-53502480D01*
X109885671Y-53512970D01*
X109862572Y-53521235D01*
X109838773Y-53527196D01*
X109814505Y-53530796D01*
X109790001Y-53532000D01*
X109139999Y-53532000D01*
X109115495Y-53530796D01*
X109091227Y-53527196D01*
X109067428Y-53521235D01*
X109044329Y-53512970D01*
X109022150Y-53502480D01*
X109001107Y-53489868D01*
X108981401Y-53475253D01*
X108963223Y-53458777D01*
X108946747Y-53440599D01*
X108932132Y-53420893D01*
X108919520Y-53399850D01*
X108909030Y-53377671D01*
X108900765Y-53354572D01*
X108894804Y-53330773D01*
X108891204Y-53306505D01*
X108890000Y-53282001D01*
X108890000Y-52381999D01*
X108891204Y-52357495D01*
X108894804Y-52333227D01*
X108900765Y-52309428D01*
X108909030Y-52286329D01*
X108919520Y-52264150D01*
X108932132Y-52243107D01*
X108946747Y-52223401D01*
X108963223Y-52205223D01*
X108981401Y-52188747D01*
X109001107Y-52174132D01*
X109022150Y-52161520D01*
X109044329Y-52151030D01*
X109067428Y-52142765D01*
X109091227Y-52136804D01*
X109115495Y-52133204D01*
X109139999Y-52132000D01*
X109790001Y-52132000D01*
X109814505Y-52133204D01*
G37*
G04 #@! TD.AperFunction*
G04 #@! TA.AperFunction,SMDPad,CuDef*
G36*
X111864505Y-52133204D02*
G01*
X111888773Y-52136804D01*
X111912572Y-52142765D01*
X111935671Y-52151030D01*
X111957850Y-52161520D01*
X111978893Y-52174132D01*
X111998599Y-52188747D01*
X112016777Y-52205223D01*
X112033253Y-52223401D01*
X112047868Y-52243107D01*
X112060480Y-52264150D01*
X112070970Y-52286329D01*
X112079235Y-52309428D01*
X112085196Y-52333227D01*
X112088796Y-52357495D01*
X112090000Y-52381999D01*
X112090000Y-53282001D01*
X112088796Y-53306505D01*
X112085196Y-53330773D01*
X112079235Y-53354572D01*
X112070970Y-53377671D01*
X112060480Y-53399850D01*
X112047868Y-53420893D01*
X112033253Y-53440599D01*
X112016777Y-53458777D01*
X111998599Y-53475253D01*
X111978893Y-53489868D01*
X111957850Y-53502480D01*
X111935671Y-53512970D01*
X111912572Y-53521235D01*
X111888773Y-53527196D01*
X111864505Y-53530796D01*
X111840001Y-53532000D01*
X111189999Y-53532000D01*
X111165495Y-53530796D01*
X111141227Y-53527196D01*
X111117428Y-53521235D01*
X111094329Y-53512970D01*
X111072150Y-53502480D01*
X111051107Y-53489868D01*
X111031401Y-53475253D01*
X111013223Y-53458777D01*
X110996747Y-53440599D01*
X110982132Y-53420893D01*
X110969520Y-53399850D01*
X110959030Y-53377671D01*
X110950765Y-53354572D01*
X110944804Y-53330773D01*
X110941204Y-53306505D01*
X110940000Y-53282001D01*
X110940000Y-52381999D01*
X110941204Y-52357495D01*
X110944804Y-52333227D01*
X110950765Y-52309428D01*
X110959030Y-52286329D01*
X110969520Y-52264150D01*
X110982132Y-52243107D01*
X110996747Y-52223401D01*
X111013223Y-52205223D01*
X111031401Y-52188747D01*
X111051107Y-52174132D01*
X111072150Y-52161520D01*
X111094329Y-52151030D01*
X111117428Y-52142765D01*
X111141227Y-52136804D01*
X111165495Y-52133204D01*
X111189999Y-52132000D01*
X111840001Y-52132000D01*
X111864505Y-52133204D01*
G37*
G04 #@! TD.AperFunction*
G04 #@! TA.AperFunction,SMDPad,CuDef*
G36*
X111864505Y-54038204D02*
G01*
X111888773Y-54041804D01*
X111912572Y-54047765D01*
X111935671Y-54056030D01*
X111957850Y-54066520D01*
X111978893Y-54079132D01*
X111998599Y-54093747D01*
X112016777Y-54110223D01*
X112033253Y-54128401D01*
X112047868Y-54148107D01*
X112060480Y-54169150D01*
X112070970Y-54191329D01*
X112079235Y-54214428D01*
X112085196Y-54238227D01*
X112088796Y-54262495D01*
X112090000Y-54286999D01*
X112090000Y-55187001D01*
X112088796Y-55211505D01*
X112085196Y-55235773D01*
X112079235Y-55259572D01*
X112070970Y-55282671D01*
X112060480Y-55304850D01*
X112047868Y-55325893D01*
X112033253Y-55345599D01*
X112016777Y-55363777D01*
X111998599Y-55380253D01*
X111978893Y-55394868D01*
X111957850Y-55407480D01*
X111935671Y-55417970D01*
X111912572Y-55426235D01*
X111888773Y-55432196D01*
X111864505Y-55435796D01*
X111840001Y-55437000D01*
X111189999Y-55437000D01*
X111165495Y-55435796D01*
X111141227Y-55432196D01*
X111117428Y-55426235D01*
X111094329Y-55417970D01*
X111072150Y-55407480D01*
X111051107Y-55394868D01*
X111031401Y-55380253D01*
X111013223Y-55363777D01*
X110996747Y-55345599D01*
X110982132Y-55325893D01*
X110969520Y-55304850D01*
X110959030Y-55282671D01*
X110950765Y-55259572D01*
X110944804Y-55235773D01*
X110941204Y-55211505D01*
X110940000Y-55187001D01*
X110940000Y-54286999D01*
X110941204Y-54262495D01*
X110944804Y-54238227D01*
X110950765Y-54214428D01*
X110959030Y-54191329D01*
X110969520Y-54169150D01*
X110982132Y-54148107D01*
X110996747Y-54128401D01*
X111013223Y-54110223D01*
X111031401Y-54093747D01*
X111051107Y-54079132D01*
X111072150Y-54066520D01*
X111094329Y-54056030D01*
X111117428Y-54047765D01*
X111141227Y-54041804D01*
X111165495Y-54038204D01*
X111189999Y-54037000D01*
X111840001Y-54037000D01*
X111864505Y-54038204D01*
G37*
G04 #@! TD.AperFunction*
G04 #@! TA.AperFunction,SMDPad,CuDef*
G36*
X109814505Y-54038204D02*
G01*
X109838773Y-54041804D01*
X109862572Y-54047765D01*
X109885671Y-54056030D01*
X109907850Y-54066520D01*
X109928893Y-54079132D01*
X109948599Y-54093747D01*
X109966777Y-54110223D01*
X109983253Y-54128401D01*
X109997868Y-54148107D01*
X110010480Y-54169150D01*
X110020970Y-54191329D01*
X110029235Y-54214428D01*
X110035196Y-54238227D01*
X110038796Y-54262495D01*
X110040000Y-54286999D01*
X110040000Y-55187001D01*
X110038796Y-55211505D01*
X110035196Y-55235773D01*
X110029235Y-55259572D01*
X110020970Y-55282671D01*
X110010480Y-55304850D01*
X109997868Y-55325893D01*
X109983253Y-55345599D01*
X109966777Y-55363777D01*
X109948599Y-55380253D01*
X109928893Y-55394868D01*
X109907850Y-55407480D01*
X109885671Y-55417970D01*
X109862572Y-55426235D01*
X109838773Y-55432196D01*
X109814505Y-55435796D01*
X109790001Y-55437000D01*
X109139999Y-55437000D01*
X109115495Y-55435796D01*
X109091227Y-55432196D01*
X109067428Y-55426235D01*
X109044329Y-55417970D01*
X109022150Y-55407480D01*
X109001107Y-55394868D01*
X108981401Y-55380253D01*
X108963223Y-55363777D01*
X108946747Y-55345599D01*
X108932132Y-55325893D01*
X108919520Y-55304850D01*
X108909030Y-55282671D01*
X108900765Y-55259572D01*
X108894804Y-55235773D01*
X108891204Y-55211505D01*
X108890000Y-55187001D01*
X108890000Y-54286999D01*
X108891204Y-54262495D01*
X108894804Y-54238227D01*
X108900765Y-54214428D01*
X108909030Y-54191329D01*
X108919520Y-54169150D01*
X108932132Y-54148107D01*
X108946747Y-54128401D01*
X108963223Y-54110223D01*
X108981401Y-54093747D01*
X109001107Y-54079132D01*
X109022150Y-54066520D01*
X109044329Y-54056030D01*
X109067428Y-54047765D01*
X109091227Y-54041804D01*
X109115495Y-54038204D01*
X109139999Y-54037000D01*
X109790001Y-54037000D01*
X109814505Y-54038204D01*
G37*
G04 #@! TD.AperFunction*
G04 #@! TA.AperFunction,SMDPad,CuDef*
G36*
X109814505Y-55943204D02*
G01*
X109838773Y-55946804D01*
X109862572Y-55952765D01*
X109885671Y-55961030D01*
X109907850Y-55971520D01*
X109928893Y-55984132D01*
X109948599Y-55998747D01*
X109966777Y-56015223D01*
X109983253Y-56033401D01*
X109997868Y-56053107D01*
X110010480Y-56074150D01*
X110020970Y-56096329D01*
X110029235Y-56119428D01*
X110035196Y-56143227D01*
X110038796Y-56167495D01*
X110040000Y-56191999D01*
X110040000Y-57092001D01*
X110038796Y-57116505D01*
X110035196Y-57140773D01*
X110029235Y-57164572D01*
X110020970Y-57187671D01*
X110010480Y-57209850D01*
X109997868Y-57230893D01*
X109983253Y-57250599D01*
X109966777Y-57268777D01*
X109948599Y-57285253D01*
X109928893Y-57299868D01*
X109907850Y-57312480D01*
X109885671Y-57322970D01*
X109862572Y-57331235D01*
X109838773Y-57337196D01*
X109814505Y-57340796D01*
X109790001Y-57342000D01*
X109139999Y-57342000D01*
X109115495Y-57340796D01*
X109091227Y-57337196D01*
X109067428Y-57331235D01*
X109044329Y-57322970D01*
X109022150Y-57312480D01*
X109001107Y-57299868D01*
X108981401Y-57285253D01*
X108963223Y-57268777D01*
X108946747Y-57250599D01*
X108932132Y-57230893D01*
X108919520Y-57209850D01*
X108909030Y-57187671D01*
X108900765Y-57164572D01*
X108894804Y-57140773D01*
X108891204Y-57116505D01*
X108890000Y-57092001D01*
X108890000Y-56191999D01*
X108891204Y-56167495D01*
X108894804Y-56143227D01*
X108900765Y-56119428D01*
X108909030Y-56096329D01*
X108919520Y-56074150D01*
X108932132Y-56053107D01*
X108946747Y-56033401D01*
X108963223Y-56015223D01*
X108981401Y-55998747D01*
X109001107Y-55984132D01*
X109022150Y-55971520D01*
X109044329Y-55961030D01*
X109067428Y-55952765D01*
X109091227Y-55946804D01*
X109115495Y-55943204D01*
X109139999Y-55942000D01*
X109790001Y-55942000D01*
X109814505Y-55943204D01*
G37*
G04 #@! TD.AperFunction*
G04 #@! TA.AperFunction,SMDPad,CuDef*
G36*
X111864505Y-55943204D02*
G01*
X111888773Y-55946804D01*
X111912572Y-55952765D01*
X111935671Y-55961030D01*
X111957850Y-55971520D01*
X111978893Y-55984132D01*
X111998599Y-55998747D01*
X112016777Y-56015223D01*
X112033253Y-56033401D01*
X112047868Y-56053107D01*
X112060480Y-56074150D01*
X112070970Y-56096329D01*
X112079235Y-56119428D01*
X112085196Y-56143227D01*
X112088796Y-56167495D01*
X112090000Y-56191999D01*
X112090000Y-57092001D01*
X112088796Y-57116505D01*
X112085196Y-57140773D01*
X112079235Y-57164572D01*
X112070970Y-57187671D01*
X112060480Y-57209850D01*
X112047868Y-57230893D01*
X112033253Y-57250599D01*
X112016777Y-57268777D01*
X111998599Y-57285253D01*
X111978893Y-57299868D01*
X111957850Y-57312480D01*
X111935671Y-57322970D01*
X111912572Y-57331235D01*
X111888773Y-57337196D01*
X111864505Y-57340796D01*
X111840001Y-57342000D01*
X111189999Y-57342000D01*
X111165495Y-57340796D01*
X111141227Y-57337196D01*
X111117428Y-57331235D01*
X111094329Y-57322970D01*
X111072150Y-57312480D01*
X111051107Y-57299868D01*
X111031401Y-57285253D01*
X111013223Y-57268777D01*
X110996747Y-57250599D01*
X110982132Y-57230893D01*
X110969520Y-57209850D01*
X110959030Y-57187671D01*
X110950765Y-57164572D01*
X110944804Y-57140773D01*
X110941204Y-57116505D01*
X110940000Y-57092001D01*
X110940000Y-56191999D01*
X110941204Y-56167495D01*
X110944804Y-56143227D01*
X110950765Y-56119428D01*
X110959030Y-56096329D01*
X110969520Y-56074150D01*
X110982132Y-56053107D01*
X110996747Y-56033401D01*
X111013223Y-56015223D01*
X111031401Y-55998747D01*
X111051107Y-55984132D01*
X111072150Y-55971520D01*
X111094329Y-55961030D01*
X111117428Y-55952765D01*
X111141227Y-55946804D01*
X111165495Y-55943204D01*
X111189999Y-55942000D01*
X111840001Y-55942000D01*
X111864505Y-55943204D01*
G37*
G04 #@! TD.AperFunction*
D15*
X103378000Y-45720000D03*
X111760000Y-104140000D03*
D16*
X109220000Y-104140000D03*
X106680000Y-104140000D03*
X104140000Y-104140000D03*
X101600000Y-104140000D03*
D15*
X110998000Y-45720000D03*
D16*
X113538000Y-45720000D03*
X116078000Y-45720000D03*
D15*
X107061000Y-45720000D03*
X99695000Y-45720000D03*
D17*
X110379000Y-77663000D03*
X110379000Y-79563000D03*
X112379000Y-78613000D03*
G04 #@! TA.AperFunction,SMDPad,CuDef*
D14*
G36*
X107682505Y-52133204D02*
G01*
X107706773Y-52136804D01*
X107730572Y-52142765D01*
X107753671Y-52151030D01*
X107775850Y-52161520D01*
X107796893Y-52174132D01*
X107816599Y-52188747D01*
X107834777Y-52205223D01*
X107851253Y-52223401D01*
X107865868Y-52243107D01*
X107878480Y-52264150D01*
X107888970Y-52286329D01*
X107897235Y-52309428D01*
X107903196Y-52333227D01*
X107906796Y-52357495D01*
X107908000Y-52381999D01*
X107908000Y-53282001D01*
X107906796Y-53306505D01*
X107903196Y-53330773D01*
X107897235Y-53354572D01*
X107888970Y-53377671D01*
X107878480Y-53399850D01*
X107865868Y-53420893D01*
X107851253Y-53440599D01*
X107834777Y-53458777D01*
X107816599Y-53475253D01*
X107796893Y-53489868D01*
X107775850Y-53502480D01*
X107753671Y-53512970D01*
X107730572Y-53521235D01*
X107706773Y-53527196D01*
X107682505Y-53530796D01*
X107658001Y-53532000D01*
X107007999Y-53532000D01*
X106983495Y-53530796D01*
X106959227Y-53527196D01*
X106935428Y-53521235D01*
X106912329Y-53512970D01*
X106890150Y-53502480D01*
X106869107Y-53489868D01*
X106849401Y-53475253D01*
X106831223Y-53458777D01*
X106814747Y-53440599D01*
X106800132Y-53420893D01*
X106787520Y-53399850D01*
X106777030Y-53377671D01*
X106768765Y-53354572D01*
X106762804Y-53330773D01*
X106759204Y-53306505D01*
X106758000Y-53282001D01*
X106758000Y-52381999D01*
X106759204Y-52357495D01*
X106762804Y-52333227D01*
X106768765Y-52309428D01*
X106777030Y-52286329D01*
X106787520Y-52264150D01*
X106800132Y-52243107D01*
X106814747Y-52223401D01*
X106831223Y-52205223D01*
X106849401Y-52188747D01*
X106869107Y-52174132D01*
X106890150Y-52161520D01*
X106912329Y-52151030D01*
X106935428Y-52142765D01*
X106959227Y-52136804D01*
X106983495Y-52133204D01*
X107007999Y-52132000D01*
X107658001Y-52132000D01*
X107682505Y-52133204D01*
G37*
G04 #@! TD.AperFunction*
G04 #@! TA.AperFunction,SMDPad,CuDef*
G36*
X105632505Y-52133204D02*
G01*
X105656773Y-52136804D01*
X105680572Y-52142765D01*
X105703671Y-52151030D01*
X105725850Y-52161520D01*
X105746893Y-52174132D01*
X105766599Y-52188747D01*
X105784777Y-52205223D01*
X105801253Y-52223401D01*
X105815868Y-52243107D01*
X105828480Y-52264150D01*
X105838970Y-52286329D01*
X105847235Y-52309428D01*
X105853196Y-52333227D01*
X105856796Y-52357495D01*
X105858000Y-52381999D01*
X105858000Y-53282001D01*
X105856796Y-53306505D01*
X105853196Y-53330773D01*
X105847235Y-53354572D01*
X105838970Y-53377671D01*
X105828480Y-53399850D01*
X105815868Y-53420893D01*
X105801253Y-53440599D01*
X105784777Y-53458777D01*
X105766599Y-53475253D01*
X105746893Y-53489868D01*
X105725850Y-53502480D01*
X105703671Y-53512970D01*
X105680572Y-53521235D01*
X105656773Y-53527196D01*
X105632505Y-53530796D01*
X105608001Y-53532000D01*
X104957999Y-53532000D01*
X104933495Y-53530796D01*
X104909227Y-53527196D01*
X104885428Y-53521235D01*
X104862329Y-53512970D01*
X104840150Y-53502480D01*
X104819107Y-53489868D01*
X104799401Y-53475253D01*
X104781223Y-53458777D01*
X104764747Y-53440599D01*
X104750132Y-53420893D01*
X104737520Y-53399850D01*
X104727030Y-53377671D01*
X104718765Y-53354572D01*
X104712804Y-53330773D01*
X104709204Y-53306505D01*
X104708000Y-53282001D01*
X104708000Y-52381999D01*
X104709204Y-52357495D01*
X104712804Y-52333227D01*
X104718765Y-52309428D01*
X104727030Y-52286329D01*
X104737520Y-52264150D01*
X104750132Y-52243107D01*
X104764747Y-52223401D01*
X104781223Y-52205223D01*
X104799401Y-52188747D01*
X104819107Y-52174132D01*
X104840150Y-52161520D01*
X104862329Y-52151030D01*
X104885428Y-52142765D01*
X104909227Y-52136804D01*
X104933495Y-52133204D01*
X104957999Y-52132000D01*
X105608001Y-52132000D01*
X105632505Y-52133204D01*
G37*
G04 #@! TD.AperFunction*
G04 #@! TA.AperFunction,SMDPad,CuDef*
G36*
X105623505Y-54038204D02*
G01*
X105647773Y-54041804D01*
X105671572Y-54047765D01*
X105694671Y-54056030D01*
X105716850Y-54066520D01*
X105737893Y-54079132D01*
X105757599Y-54093747D01*
X105775777Y-54110223D01*
X105792253Y-54128401D01*
X105806868Y-54148107D01*
X105819480Y-54169150D01*
X105829970Y-54191329D01*
X105838235Y-54214428D01*
X105844196Y-54238227D01*
X105847796Y-54262495D01*
X105849000Y-54286999D01*
X105849000Y-55187001D01*
X105847796Y-55211505D01*
X105844196Y-55235773D01*
X105838235Y-55259572D01*
X105829970Y-55282671D01*
X105819480Y-55304850D01*
X105806868Y-55325893D01*
X105792253Y-55345599D01*
X105775777Y-55363777D01*
X105757599Y-55380253D01*
X105737893Y-55394868D01*
X105716850Y-55407480D01*
X105694671Y-55417970D01*
X105671572Y-55426235D01*
X105647773Y-55432196D01*
X105623505Y-55435796D01*
X105599001Y-55437000D01*
X104948999Y-55437000D01*
X104924495Y-55435796D01*
X104900227Y-55432196D01*
X104876428Y-55426235D01*
X104853329Y-55417970D01*
X104831150Y-55407480D01*
X104810107Y-55394868D01*
X104790401Y-55380253D01*
X104772223Y-55363777D01*
X104755747Y-55345599D01*
X104741132Y-55325893D01*
X104728520Y-55304850D01*
X104718030Y-55282671D01*
X104709765Y-55259572D01*
X104703804Y-55235773D01*
X104700204Y-55211505D01*
X104699000Y-55187001D01*
X104699000Y-54286999D01*
X104700204Y-54262495D01*
X104703804Y-54238227D01*
X104709765Y-54214428D01*
X104718030Y-54191329D01*
X104728520Y-54169150D01*
X104741132Y-54148107D01*
X104755747Y-54128401D01*
X104772223Y-54110223D01*
X104790401Y-54093747D01*
X104810107Y-54079132D01*
X104831150Y-54066520D01*
X104853329Y-54056030D01*
X104876428Y-54047765D01*
X104900227Y-54041804D01*
X104924495Y-54038204D01*
X104948999Y-54037000D01*
X105599001Y-54037000D01*
X105623505Y-54038204D01*
G37*
G04 #@! TD.AperFunction*
G04 #@! TA.AperFunction,SMDPad,CuDef*
G36*
X107673505Y-54038204D02*
G01*
X107697773Y-54041804D01*
X107721572Y-54047765D01*
X107744671Y-54056030D01*
X107766850Y-54066520D01*
X107787893Y-54079132D01*
X107807599Y-54093747D01*
X107825777Y-54110223D01*
X107842253Y-54128401D01*
X107856868Y-54148107D01*
X107869480Y-54169150D01*
X107879970Y-54191329D01*
X107888235Y-54214428D01*
X107894196Y-54238227D01*
X107897796Y-54262495D01*
X107899000Y-54286999D01*
X107899000Y-55187001D01*
X107897796Y-55211505D01*
X107894196Y-55235773D01*
X107888235Y-55259572D01*
X107879970Y-55282671D01*
X107869480Y-55304850D01*
X107856868Y-55325893D01*
X107842253Y-55345599D01*
X107825777Y-55363777D01*
X107807599Y-55380253D01*
X107787893Y-55394868D01*
X107766850Y-55407480D01*
X107744671Y-55417970D01*
X107721572Y-55426235D01*
X107697773Y-55432196D01*
X107673505Y-55435796D01*
X107649001Y-55437000D01*
X106998999Y-55437000D01*
X106974495Y-55435796D01*
X106950227Y-55432196D01*
X106926428Y-55426235D01*
X106903329Y-55417970D01*
X106881150Y-55407480D01*
X106860107Y-55394868D01*
X106840401Y-55380253D01*
X106822223Y-55363777D01*
X106805747Y-55345599D01*
X106791132Y-55325893D01*
X106778520Y-55304850D01*
X106768030Y-55282671D01*
X106759765Y-55259572D01*
X106753804Y-55235773D01*
X106750204Y-55211505D01*
X106749000Y-55187001D01*
X106749000Y-54286999D01*
X106750204Y-54262495D01*
X106753804Y-54238227D01*
X106759765Y-54214428D01*
X106768030Y-54191329D01*
X106778520Y-54169150D01*
X106791132Y-54148107D01*
X106805747Y-54128401D01*
X106822223Y-54110223D01*
X106840401Y-54093747D01*
X106860107Y-54079132D01*
X106881150Y-54066520D01*
X106903329Y-54056030D01*
X106926428Y-54047765D01*
X106950227Y-54041804D01*
X106974495Y-54038204D01*
X106998999Y-54037000D01*
X107649001Y-54037000D01*
X107673505Y-54038204D01*
G37*
G04 #@! TD.AperFunction*
D18*
X111083000Y-70166000D03*
X111083000Y-71566000D03*
X112183000Y-71566000D03*
X112183000Y-70166000D03*
G04 #@! TA.AperFunction,SMDPad,CuDef*
D14*
G36*
X107673505Y-91122204D02*
G01*
X107697773Y-91125804D01*
X107721572Y-91131765D01*
X107744671Y-91140030D01*
X107766850Y-91150520D01*
X107787893Y-91163132D01*
X107807599Y-91177747D01*
X107825777Y-91194223D01*
X107842253Y-91212401D01*
X107856868Y-91232107D01*
X107869480Y-91253150D01*
X107879970Y-91275329D01*
X107888235Y-91298428D01*
X107894196Y-91322227D01*
X107897796Y-91346495D01*
X107899000Y-91370999D01*
X107899000Y-92271001D01*
X107897796Y-92295505D01*
X107894196Y-92319773D01*
X107888235Y-92343572D01*
X107879970Y-92366671D01*
X107869480Y-92388850D01*
X107856868Y-92409893D01*
X107842253Y-92429599D01*
X107825777Y-92447777D01*
X107807599Y-92464253D01*
X107787893Y-92478868D01*
X107766850Y-92491480D01*
X107744671Y-92501970D01*
X107721572Y-92510235D01*
X107697773Y-92516196D01*
X107673505Y-92519796D01*
X107649001Y-92521000D01*
X106998999Y-92521000D01*
X106974495Y-92519796D01*
X106950227Y-92516196D01*
X106926428Y-92510235D01*
X106903329Y-92501970D01*
X106881150Y-92491480D01*
X106860107Y-92478868D01*
X106840401Y-92464253D01*
X106822223Y-92447777D01*
X106805747Y-92429599D01*
X106791132Y-92409893D01*
X106778520Y-92388850D01*
X106768030Y-92366671D01*
X106759765Y-92343572D01*
X106753804Y-92319773D01*
X106750204Y-92295505D01*
X106749000Y-92271001D01*
X106749000Y-91370999D01*
X106750204Y-91346495D01*
X106753804Y-91322227D01*
X106759765Y-91298428D01*
X106768030Y-91275329D01*
X106778520Y-91253150D01*
X106791132Y-91232107D01*
X106805747Y-91212401D01*
X106822223Y-91194223D01*
X106840401Y-91177747D01*
X106860107Y-91163132D01*
X106881150Y-91150520D01*
X106903329Y-91140030D01*
X106926428Y-91131765D01*
X106950227Y-91125804D01*
X106974495Y-91122204D01*
X106998999Y-91121000D01*
X107649001Y-91121000D01*
X107673505Y-91122204D01*
G37*
G04 #@! TD.AperFunction*
G04 #@! TA.AperFunction,SMDPad,CuDef*
G36*
X105623505Y-91122204D02*
G01*
X105647773Y-91125804D01*
X105671572Y-91131765D01*
X105694671Y-91140030D01*
X105716850Y-91150520D01*
X105737893Y-91163132D01*
X105757599Y-91177747D01*
X105775777Y-91194223D01*
X105792253Y-91212401D01*
X105806868Y-91232107D01*
X105819480Y-91253150D01*
X105829970Y-91275329D01*
X105838235Y-91298428D01*
X105844196Y-91322227D01*
X105847796Y-91346495D01*
X105849000Y-91370999D01*
X105849000Y-92271001D01*
X105847796Y-92295505D01*
X105844196Y-92319773D01*
X105838235Y-92343572D01*
X105829970Y-92366671D01*
X105819480Y-92388850D01*
X105806868Y-92409893D01*
X105792253Y-92429599D01*
X105775777Y-92447777D01*
X105757599Y-92464253D01*
X105737893Y-92478868D01*
X105716850Y-92491480D01*
X105694671Y-92501970D01*
X105671572Y-92510235D01*
X105647773Y-92516196D01*
X105623505Y-92519796D01*
X105599001Y-92521000D01*
X104948999Y-92521000D01*
X104924495Y-92519796D01*
X104900227Y-92516196D01*
X104876428Y-92510235D01*
X104853329Y-92501970D01*
X104831150Y-92491480D01*
X104810107Y-92478868D01*
X104790401Y-92464253D01*
X104772223Y-92447777D01*
X104755747Y-92429599D01*
X104741132Y-92409893D01*
X104728520Y-92388850D01*
X104718030Y-92366671D01*
X104709765Y-92343572D01*
X104703804Y-92319773D01*
X104700204Y-92295505D01*
X104699000Y-92271001D01*
X104699000Y-91370999D01*
X104700204Y-91346495D01*
X104703804Y-91322227D01*
X104709765Y-91298428D01*
X104718030Y-91275329D01*
X104728520Y-91253150D01*
X104741132Y-91232107D01*
X104755747Y-91212401D01*
X104772223Y-91194223D01*
X104790401Y-91177747D01*
X104810107Y-91163132D01*
X104831150Y-91150520D01*
X104853329Y-91140030D01*
X104876428Y-91131765D01*
X104900227Y-91125804D01*
X104924495Y-91122204D01*
X104948999Y-91121000D01*
X105599001Y-91121000D01*
X105623505Y-91122204D01*
G37*
G04 #@! TD.AperFunction*
G04 #@! TA.AperFunction,SMDPad,CuDef*
G36*
X111599505Y-95701204D02*
G01*
X111623773Y-95704804D01*
X111647572Y-95710765D01*
X111670671Y-95719030D01*
X111692850Y-95729520D01*
X111713893Y-95742132D01*
X111733599Y-95756747D01*
X111751777Y-95773223D01*
X111768253Y-95791401D01*
X111782868Y-95811107D01*
X111795480Y-95832150D01*
X111805970Y-95854329D01*
X111814235Y-95877428D01*
X111820196Y-95901227D01*
X111823796Y-95925495D01*
X111825000Y-95949999D01*
X111825000Y-96600001D01*
X111823796Y-96624505D01*
X111820196Y-96648773D01*
X111814235Y-96672572D01*
X111805970Y-96695671D01*
X111795480Y-96717850D01*
X111782868Y-96738893D01*
X111768253Y-96758599D01*
X111751777Y-96776777D01*
X111733599Y-96793253D01*
X111713893Y-96807868D01*
X111692850Y-96820480D01*
X111670671Y-96830970D01*
X111647572Y-96839235D01*
X111623773Y-96845196D01*
X111599505Y-96848796D01*
X111575001Y-96850000D01*
X110674999Y-96850000D01*
X110650495Y-96848796D01*
X110626227Y-96845196D01*
X110602428Y-96839235D01*
X110579329Y-96830970D01*
X110557150Y-96820480D01*
X110536107Y-96807868D01*
X110516401Y-96793253D01*
X110498223Y-96776777D01*
X110481747Y-96758599D01*
X110467132Y-96738893D01*
X110454520Y-96717850D01*
X110444030Y-96695671D01*
X110435765Y-96672572D01*
X110429804Y-96648773D01*
X110426204Y-96624505D01*
X110425000Y-96600001D01*
X110425000Y-95949999D01*
X110426204Y-95925495D01*
X110429804Y-95901227D01*
X110435765Y-95877428D01*
X110444030Y-95854329D01*
X110454520Y-95832150D01*
X110467132Y-95811107D01*
X110481747Y-95791401D01*
X110498223Y-95773223D01*
X110516401Y-95756747D01*
X110536107Y-95742132D01*
X110557150Y-95729520D01*
X110579329Y-95719030D01*
X110602428Y-95710765D01*
X110626227Y-95704804D01*
X110650495Y-95701204D01*
X110674999Y-95700000D01*
X111575001Y-95700000D01*
X111599505Y-95701204D01*
G37*
G04 #@! TD.AperFunction*
G04 #@! TA.AperFunction,SMDPad,CuDef*
G36*
X111599505Y-93651204D02*
G01*
X111623773Y-93654804D01*
X111647572Y-93660765D01*
X111670671Y-93669030D01*
X111692850Y-93679520D01*
X111713893Y-93692132D01*
X111733599Y-93706747D01*
X111751777Y-93723223D01*
X111768253Y-93741401D01*
X111782868Y-93761107D01*
X111795480Y-93782150D01*
X111805970Y-93804329D01*
X111814235Y-93827428D01*
X111820196Y-93851227D01*
X111823796Y-93875495D01*
X111825000Y-93899999D01*
X111825000Y-94550001D01*
X111823796Y-94574505D01*
X111820196Y-94598773D01*
X111814235Y-94622572D01*
X111805970Y-94645671D01*
X111795480Y-94667850D01*
X111782868Y-94688893D01*
X111768253Y-94708599D01*
X111751777Y-94726777D01*
X111733599Y-94743253D01*
X111713893Y-94757868D01*
X111692850Y-94770480D01*
X111670671Y-94780970D01*
X111647572Y-94789235D01*
X111623773Y-94795196D01*
X111599505Y-94798796D01*
X111575001Y-94800000D01*
X110674999Y-94800000D01*
X110650495Y-94798796D01*
X110626227Y-94795196D01*
X110602428Y-94789235D01*
X110579329Y-94780970D01*
X110557150Y-94770480D01*
X110536107Y-94757868D01*
X110516401Y-94743253D01*
X110498223Y-94726777D01*
X110481747Y-94708599D01*
X110467132Y-94688893D01*
X110454520Y-94667850D01*
X110444030Y-94645671D01*
X110435765Y-94622572D01*
X110429804Y-94598773D01*
X110426204Y-94574505D01*
X110425000Y-94550001D01*
X110425000Y-93899999D01*
X110426204Y-93875495D01*
X110429804Y-93851227D01*
X110435765Y-93827428D01*
X110444030Y-93804329D01*
X110454520Y-93782150D01*
X110467132Y-93761107D01*
X110481747Y-93741401D01*
X110498223Y-93723223D01*
X110516401Y-93706747D01*
X110536107Y-93692132D01*
X110557150Y-93679520D01*
X110579329Y-93669030D01*
X110602428Y-93660765D01*
X110626227Y-93654804D01*
X110650495Y-93651204D01*
X110674999Y-93650000D01*
X111575001Y-93650000D01*
X111599505Y-93651204D01*
G37*
G04 #@! TD.AperFunction*
D19*
X108811000Y-94615000D03*
X105311000Y-94615000D03*
D20*
X114808000Y-48133000D03*
D21*
X111252000Y-72263000D03*
X109474000Y-53721000D03*
X109474000Y-55626000D03*
D20*
X107442000Y-66294000D03*
D21*
X110236000Y-79502000D03*
X112141000Y-69215000D03*
X101600000Y-46228000D03*
X109093000Y-46101000D03*
X117094000Y-47879000D03*
X112395000Y-47371000D03*
D20*
X105283000Y-56642000D03*
D21*
X109982000Y-60071000D03*
X108458000Y-76327000D03*
X111760000Y-73660000D03*
X110490000Y-69596000D03*
X110490000Y-74676000D03*
X110871000Y-68326000D03*
X112903000Y-71882000D03*
X111633000Y-58039000D03*
X110744000Y-59055000D03*
X111506000Y-61468000D03*
X105283000Y-66294000D03*
X104521000Y-68961000D03*
X103251000Y-97028000D03*
X104013000Y-64770000D03*
X103736010Y-68094990D03*
X104140000Y-94742000D03*
X103505000Y-65532000D03*
X103315989Y-67247989D03*
X103378000Y-95377000D03*
X105918000Y-67183000D03*
X112903000Y-66294000D03*
X112903000Y-65532000D03*
X104013000Y-63119000D03*
X107569000Y-62865000D03*
X109982000Y-76327000D03*
X112522000Y-78613000D03*
X112522000Y-76327000D03*
X109347000Y-70612000D03*
X109347000Y-64770000D03*
X107061000Y-53340000D03*
X110744000Y-62992000D03*
X107696000Y-54991000D03*
X110871000Y-62230000D03*
X105283000Y-69244117D03*
X102997000Y-61468000D03*
X103251000Y-62357000D03*
X102235000Y-67283862D03*
D22*
X99060000Y-50800000D02*
X101600000Y-50800000D01*
X103632000Y-52781998D02*
X103632000Y-55576254D01*
X101650002Y-50800000D02*
X103632000Y-52781998D01*
X101600000Y-50800000D02*
X101650002Y-50800000D01*
D23*
X109465000Y-52832000D02*
X109465000Y-54737000D01*
X109465000Y-54737000D02*
X109465000Y-56642000D01*
X108350000Y-66694000D02*
X108350000Y-67750000D01*
X107950000Y-66294000D02*
X108350000Y-66694000D01*
X107188000Y-66294000D02*
X107442000Y-66294000D01*
X106750000Y-67750000D02*
X106750000Y-66732000D01*
X106750000Y-66732000D02*
X107188000Y-66294000D01*
X107442000Y-66294000D02*
X107950000Y-66294000D01*
X111252000Y-71735000D02*
X111083000Y-71566000D01*
X111252000Y-72263000D02*
X111252000Y-71735000D01*
X112141000Y-70124000D02*
X112183000Y-70166000D01*
X112141000Y-69215000D02*
X112141000Y-70124000D01*
X106700968Y-57811510D02*
X105531458Y-56642000D01*
X107231612Y-57811510D02*
X106700968Y-57811510D01*
X105531458Y-56642000D02*
X105283000Y-56642000D01*
X107550000Y-58129898D02*
X107231612Y-57811510D01*
X107550000Y-59250000D02*
X107550000Y-58129898D01*
X104699000Y-56642000D02*
X103633254Y-55576254D01*
X103633254Y-55576254D02*
X103632000Y-55576254D01*
X105274000Y-56642000D02*
X104699000Y-56642000D01*
X105283000Y-56642000D02*
X105274000Y-56642000D01*
D22*
X99060000Y-99060000D02*
X101600000Y-99060000D01*
D23*
X109950000Y-58207000D02*
X111515000Y-56642000D01*
X109950000Y-59250000D02*
X109950000Y-58207000D01*
X111515000Y-56642000D02*
X111515000Y-54737000D01*
X111515000Y-54737000D02*
X111515000Y-52832000D01*
X109950000Y-60039000D02*
X109982000Y-60071000D01*
X109950000Y-59250000D02*
X109950000Y-60039000D01*
X107550000Y-68870102D02*
X107894898Y-69215000D01*
X107550000Y-67750000D02*
X107550000Y-68870102D01*
X107894898Y-69215000D02*
X108585000Y-69215000D01*
X108585000Y-69215000D02*
X108712000Y-69215000D01*
X108805102Y-69215000D02*
X108585000Y-69215000D01*
X109150000Y-68870102D02*
X108805102Y-69215000D01*
X109150000Y-67750000D02*
X109150000Y-68870102D01*
X109150000Y-67750000D02*
X109150000Y-66448883D01*
X109150000Y-66448883D02*
X106201117Y-63500000D01*
X106201117Y-63500000D02*
X106201117Y-62454883D01*
X106201117Y-62454883D02*
X107823000Y-60833000D01*
X107823000Y-60833000D02*
X109706000Y-60833000D01*
X109950000Y-60589000D02*
X109950000Y-59250000D01*
X109706000Y-60833000D02*
X109950000Y-60589000D01*
X107550000Y-69089000D02*
X107550000Y-67750000D01*
X107640898Y-69469000D02*
X107894898Y-69215000D01*
X108805102Y-69502898D02*
X107823000Y-70485000D01*
X108805102Y-69215000D02*
X108805102Y-69502898D01*
D22*
X107823000Y-70485000D02*
X107823000Y-69723000D01*
D23*
X107550000Y-70212000D02*
X107823000Y-70485000D01*
X107550000Y-67750000D02*
X107550000Y-70212000D01*
X108155000Y-93472000D02*
X107823000Y-93472000D01*
X108663000Y-93980000D02*
X108155000Y-93472000D01*
D22*
X107823000Y-94615000D02*
X107823000Y-93472000D01*
D23*
X108028000Y-94615000D02*
X107823000Y-94615000D01*
X108663000Y-93980000D02*
X108028000Y-94615000D01*
X109338000Y-93980000D02*
X108663000Y-93980000D01*
X107823000Y-92465000D02*
X109338000Y-93980000D01*
X107823000Y-90805000D02*
X107823000Y-92465000D01*
D22*
X107823000Y-90805000D02*
X107823000Y-70485000D01*
X107823000Y-93472000D02*
X107823000Y-90805000D01*
D23*
X108703000Y-94615000D02*
X109338000Y-93980000D01*
X108028000Y-94615000D02*
X108703000Y-94615000D01*
D22*
X107823000Y-95313002D02*
X107823000Y-94615000D01*
X104076002Y-99060000D02*
X107823000Y-95313002D01*
X101600000Y-99060000D02*
X104076002Y-99060000D01*
X108911002Y-94225000D02*
X107823000Y-95313002D01*
X111125000Y-94225000D02*
X108911002Y-94225000D01*
D23*
X109950000Y-69033000D02*
X110882500Y-69965500D01*
X109950000Y-67750000D02*
X109950000Y-69033000D01*
X110787898Y-70166000D02*
X111083000Y-70166000D01*
X110213499Y-70740399D02*
X110787898Y-70166000D01*
X110213499Y-72391601D02*
X110213499Y-70740399D01*
X111306899Y-73485001D02*
X110213499Y-72391601D01*
X111585001Y-73485001D02*
X111306899Y-73485001D01*
X111760000Y-73660000D02*
X111585001Y-73485001D01*
X110882500Y-69965500D02*
X111083000Y-70166000D01*
X112499000Y-71882000D02*
X112183000Y-71566000D01*
X112903000Y-71882000D02*
X112499000Y-71882000D01*
X110490000Y-74676000D02*
X112395000Y-74676000D01*
X112395000Y-74676000D02*
X112903000Y-74168000D01*
X112903000Y-74168000D02*
X112903000Y-71882000D01*
X105283000Y-52832000D02*
X105283000Y-47625000D01*
X105283000Y-47625000D02*
X103378000Y-45720000D01*
D24*
X112200000Y-60700000D02*
X112389000Y-60700000D01*
X112200000Y-60700000D02*
X112528000Y-60700000D01*
X112528000Y-60700000D02*
X112649000Y-60579000D01*
X112649000Y-60579000D02*
X112649000Y-59055000D01*
X112649000Y-59055000D02*
X111633000Y-58039000D01*
D23*
X104820102Y-63900000D02*
X105156000Y-64235898D01*
X103700000Y-63900000D02*
X104820102Y-63900000D01*
X105156000Y-64235898D02*
X105156000Y-65786000D01*
X105156000Y-65786000D02*
X105283000Y-65913000D01*
X105283000Y-65913000D02*
X105283000Y-66294000D01*
X103425999Y-96853001D02*
X103251000Y-97028000D01*
X104879008Y-95399992D02*
X103425999Y-96853001D01*
X104879008Y-94211008D02*
X104879008Y-95399992D01*
X104521000Y-93853000D02*
X104879008Y-94211008D01*
X104521000Y-68961000D02*
X104521000Y-93853000D01*
X105274000Y-93980000D02*
X105274000Y-91821000D01*
D25*
X105311000Y-94968000D02*
X105311000Y-94615000D01*
X103251000Y-97028000D02*
X105311000Y-94968000D01*
D23*
X103736010Y-94338010D02*
X104140000Y-94742000D01*
X103736010Y-68094990D02*
X103736010Y-94338010D01*
X102997000Y-94996000D02*
X103378000Y-95377000D01*
X102997000Y-67566978D02*
X103315989Y-67247989D01*
X102997000Y-94996000D02*
X102997000Y-67566978D01*
D26*
X107061000Y-47065000D02*
X107061000Y-45720000D01*
X106310490Y-47815510D02*
X107061000Y-47065000D01*
X106310490Y-53700510D02*
X106310490Y-47815510D01*
X105274000Y-54737000D02*
X106310490Y-53700510D01*
D23*
X110861000Y-63900000D02*
X110842000Y-63881000D01*
X112200000Y-63900000D02*
X110861000Y-63900000D01*
X110842000Y-63881000D02*
X108585000Y-63881000D01*
X108585000Y-63881000D02*
X107569000Y-62865000D01*
X110379000Y-77663000D02*
X110379000Y-76724000D01*
X110379000Y-76724000D02*
X109982000Y-76327000D01*
D22*
X114300000Y-66040000D02*
X116840000Y-66040000D01*
D23*
X112522000Y-76079513D02*
X112134487Y-75692000D01*
X112522000Y-76327000D02*
X112522000Y-76079513D01*
X112134487Y-75692000D02*
X110490000Y-75692000D01*
X110460883Y-75692000D02*
X109347000Y-74578117D01*
X110490000Y-75692000D02*
X110460883Y-75692000D01*
X109347000Y-74578117D02*
X109347000Y-70612000D01*
X109417000Y-64700000D02*
X109347000Y-64770000D01*
X112200000Y-64700000D02*
X109417000Y-64700000D01*
D27*
X110852000Y-63100000D02*
X110744000Y-62992000D01*
X112200000Y-63100000D02*
X110852000Y-63100000D01*
X110941000Y-62300000D02*
X110871000Y-62230000D01*
X112200000Y-62300000D02*
X110941000Y-62300000D01*
D22*
X99060000Y-81280000D02*
X101600000Y-81280000D01*
D28*
X105150000Y-67750000D02*
X105150000Y-68701000D01*
X105283000Y-68834000D02*
X105283000Y-69244117D01*
X105150000Y-68701000D02*
X105283000Y-68834000D01*
D22*
X99060000Y-55880000D02*
X101600000Y-55880000D01*
D23*
X105950000Y-58293000D02*
X105605102Y-57948102D01*
X101600000Y-55880000D02*
X102399999Y-56679999D01*
X105950000Y-58293000D02*
X105950000Y-59250000D01*
X104279202Y-57948102D02*
X105605102Y-57948102D01*
X103011099Y-56679999D02*
X104279202Y-57948102D01*
X102399999Y-56679999D02*
X103011099Y-56679999D01*
D22*
X99060000Y-58420000D02*
X101600000Y-58420000D01*
D23*
X102430000Y-59250000D02*
X101600000Y-58420000D01*
X105150000Y-59250000D02*
X102430000Y-59250000D01*
D22*
X99060000Y-60960000D02*
X101600000Y-60960000D01*
D23*
X101860000Y-60700000D02*
X101600000Y-60960000D01*
X103700000Y-60700000D02*
X101860000Y-60700000D01*
D22*
X99060000Y-63500000D02*
X101600000Y-63500000D01*
X99060000Y-71120000D02*
X101600000Y-71120000D01*
X99060000Y-73660000D02*
X101600000Y-73660000D01*
D23*
X103218862Y-66300000D02*
X102235000Y-67283862D01*
X103700000Y-66300000D02*
X103218862Y-66300000D01*
D22*
X114300000Y-50800000D02*
X116840000Y-50800000D01*
X114300000Y-53340000D02*
X116840000Y-53340000D01*
X99060000Y-96520000D02*
X101600000Y-96520000D01*
X114300000Y-55880000D02*
X116840000Y-55880000D01*
X99060000Y-93980000D02*
X101600000Y-93980000D01*
X114300000Y-58420000D02*
X116840000Y-58420000D01*
X99060000Y-91440000D02*
X101600000Y-91440000D01*
X114300000Y-60960000D02*
X116840000Y-60960000D01*
X99060000Y-88900000D02*
X101600000Y-88900000D01*
X114300000Y-63500000D02*
X116840000Y-63500000D01*
X99060000Y-86360000D02*
X101600000Y-86360000D01*
X99060000Y-83820000D02*
X101600000Y-83820000D01*
X114300000Y-68580000D02*
X116840000Y-68580000D01*
X114300000Y-71120000D02*
X116840000Y-71120000D01*
X99060000Y-78740000D02*
X101600000Y-78740000D01*
X114300000Y-73660000D02*
X116840000Y-73660000D01*
X99060000Y-76200000D02*
X101600000Y-76200000D01*
X114300000Y-76200000D02*
X116840000Y-76200000D01*
X114300000Y-78740000D02*
X116840000Y-78740000D01*
X114300000Y-81280000D02*
X116840000Y-81280000D01*
X99060000Y-68580000D02*
X101600000Y-68580000D01*
X114300000Y-83820000D02*
X116840000Y-83820000D01*
X99060000Y-66040000D02*
X101600000Y-66040000D01*
X114300000Y-86360000D02*
X116840000Y-86360000D01*
X114300000Y-88900000D02*
X116840000Y-88900000D01*
X114300000Y-91440000D02*
X116840000Y-91440000D01*
X114300000Y-93980000D02*
X116840000Y-93980000D01*
X114300000Y-96520000D02*
X116840000Y-96520000D01*
X99060000Y-53340000D02*
X101600000Y-53340000D01*
X114300000Y-99060000D02*
X116840000Y-99060000D01*
X109220000Y-98180000D02*
X109220000Y-104140000D01*
X111125000Y-96275000D02*
X109220000Y-98180000D01*
D23*
X108350000Y-57668000D02*
X107324000Y-56642000D01*
X108350000Y-59250000D02*
X108350000Y-57668000D01*
D29*
G36*
X109670057Y-75785058D02*
G01*
X109633089Y-75804818D01*
X109537920Y-75882920D01*
X109459818Y-75978089D01*
X109401782Y-76086666D01*
X109366044Y-76204479D01*
X109353977Y-76327000D01*
X109366044Y-76449521D01*
X109401782Y-76567334D01*
X109459818Y-76675911D01*
X109518348Y-76747230D01*
X109734815Y-76963697D01*
X109730539Y-76965982D01*
X109676407Y-77010407D01*
X109631982Y-77064539D01*
X109598972Y-77126298D01*
X109578644Y-77193310D01*
X109571780Y-77263000D01*
X109571780Y-78063000D01*
X109578644Y-78132690D01*
X109598972Y-78199702D01*
X109631982Y-78261461D01*
X109676407Y-78315593D01*
X109730539Y-78360018D01*
X109792298Y-78393028D01*
X109859310Y-78413356D01*
X109929000Y-78420220D01*
X110829000Y-78420220D01*
X110898690Y-78413356D01*
X110965702Y-78393028D01*
X111027461Y-78360018D01*
X111081593Y-78315593D01*
X111126018Y-78261461D01*
X111159028Y-78199702D01*
X111179356Y-78132690D01*
X111186220Y-78063000D01*
X111186220Y-77263000D01*
X111179356Y-77193310D01*
X111159028Y-77126298D01*
X111126018Y-77064539D01*
X111081593Y-77010407D01*
X111027461Y-76965982D01*
X111004000Y-76953442D01*
X111004000Y-76754701D01*
X111007024Y-76724000D01*
X111004000Y-76693296D01*
X110994957Y-76601479D01*
X110959219Y-76483666D01*
X110901183Y-76375089D01*
X110853511Y-76317000D01*
X111875605Y-76317000D01*
X111897000Y-76338395D01*
X111897000Y-76357703D01*
X111906043Y-76449520D01*
X111941781Y-76567333D01*
X111999817Y-76675910D01*
X112077920Y-76771080D01*
X112173089Y-76849183D01*
X112281666Y-76907219D01*
X112399479Y-76942957D01*
X112522000Y-76955024D01*
X112644520Y-76942957D01*
X112762333Y-76907219D01*
X112870910Y-76849183D01*
X112966080Y-76771080D01*
X113044183Y-76675911D01*
X113102219Y-76567334D01*
X113137957Y-76449521D01*
X113147000Y-76357704D01*
X113147000Y-76326375D01*
X113188905Y-76537047D01*
X113276009Y-76747335D01*
X113402465Y-76936588D01*
X113563412Y-77097535D01*
X113752665Y-77223991D01*
X113962953Y-77311095D01*
X114186193Y-77355500D01*
X114413807Y-77355500D01*
X114637047Y-77311095D01*
X114650555Y-77305500D01*
X116489445Y-77305500D01*
X116502953Y-77311095D01*
X116726193Y-77355500D01*
X116953807Y-77355500D01*
X117177047Y-77311095D01*
X117387335Y-77223991D01*
X117475501Y-77165080D01*
X117475501Y-77774920D01*
X117387335Y-77716009D01*
X117177047Y-77628905D01*
X116953807Y-77584500D01*
X116726193Y-77584500D01*
X116502953Y-77628905D01*
X116489445Y-77634500D01*
X114650555Y-77634500D01*
X114637047Y-77628905D01*
X114413807Y-77584500D01*
X114186193Y-77584500D01*
X113962953Y-77628905D01*
X113752665Y-77716009D01*
X113563412Y-77842465D01*
X113402465Y-78003412D01*
X113276009Y-78192665D01*
X113188905Y-78402953D01*
X113186220Y-78416451D01*
X113186220Y-78213000D01*
X113179356Y-78143310D01*
X113159028Y-78076298D01*
X113126018Y-78014539D01*
X113081593Y-77960407D01*
X113027461Y-77915982D01*
X112965702Y-77882972D01*
X112898690Y-77862644D01*
X112829000Y-77855780D01*
X111929000Y-77855780D01*
X111859310Y-77862644D01*
X111792298Y-77882972D01*
X111730539Y-77915982D01*
X111676407Y-77960407D01*
X111631982Y-78014539D01*
X111598972Y-78076298D01*
X111578644Y-78143310D01*
X111571780Y-78213000D01*
X111571780Y-79013000D01*
X111578644Y-79082690D01*
X111598972Y-79149702D01*
X111631982Y-79211461D01*
X111676407Y-79265593D01*
X111730539Y-79310018D01*
X111792298Y-79343028D01*
X111859310Y-79363356D01*
X111929000Y-79370220D01*
X112829000Y-79370220D01*
X112898690Y-79363356D01*
X112965702Y-79343028D01*
X113027461Y-79310018D01*
X113081593Y-79265593D01*
X113126018Y-79211461D01*
X113159028Y-79149702D01*
X113179356Y-79082690D01*
X113182890Y-79046808D01*
X113188905Y-79077047D01*
X113276009Y-79287335D01*
X113402465Y-79476588D01*
X113563412Y-79637535D01*
X113752665Y-79763991D01*
X113962953Y-79851095D01*
X114186193Y-79895500D01*
X114413807Y-79895500D01*
X114637047Y-79851095D01*
X114650555Y-79845500D01*
X116489445Y-79845500D01*
X116502953Y-79851095D01*
X116726193Y-79895500D01*
X116953807Y-79895500D01*
X117177047Y-79851095D01*
X117387335Y-79763991D01*
X117475501Y-79705080D01*
X117475501Y-80314920D01*
X117387335Y-80256009D01*
X117177047Y-80168905D01*
X116953807Y-80124500D01*
X116726193Y-80124500D01*
X116502953Y-80168905D01*
X116489445Y-80174500D01*
X114650555Y-80174500D01*
X114637047Y-80168905D01*
X114413807Y-80124500D01*
X114186193Y-80124500D01*
X113962953Y-80168905D01*
X113752665Y-80256009D01*
X113563412Y-80382465D01*
X113402465Y-80543412D01*
X113276009Y-80732665D01*
X113188905Y-80942953D01*
X113144500Y-81166193D01*
X113144500Y-81393807D01*
X113188905Y-81617047D01*
X113276009Y-81827335D01*
X113402465Y-82016588D01*
X113563412Y-82177535D01*
X113752665Y-82303991D01*
X113962953Y-82391095D01*
X114186193Y-82435500D01*
X114413807Y-82435500D01*
X114637047Y-82391095D01*
X114650555Y-82385500D01*
X116489445Y-82385500D01*
X116502953Y-82391095D01*
X116726193Y-82435500D01*
X116953807Y-82435500D01*
X117177047Y-82391095D01*
X117387335Y-82303991D01*
X117475501Y-82245080D01*
X117475501Y-82854920D01*
X117387335Y-82796009D01*
X117177047Y-82708905D01*
X116953807Y-82664500D01*
X116726193Y-82664500D01*
X116502953Y-82708905D01*
X116489445Y-82714500D01*
X114650555Y-82714500D01*
X114637047Y-82708905D01*
X114413807Y-82664500D01*
X114186193Y-82664500D01*
X113962953Y-82708905D01*
X113752665Y-82796009D01*
X113563412Y-82922465D01*
X113402465Y-83083412D01*
X113276009Y-83272665D01*
X113188905Y-83482953D01*
X113144500Y-83706193D01*
X113144500Y-83933807D01*
X113188905Y-84157047D01*
X113276009Y-84367335D01*
X113402465Y-84556588D01*
X113563412Y-84717535D01*
X113752665Y-84843991D01*
X113962953Y-84931095D01*
X114186193Y-84975500D01*
X114413807Y-84975500D01*
X114637047Y-84931095D01*
X114650555Y-84925500D01*
X116489445Y-84925500D01*
X116502953Y-84931095D01*
X116726193Y-84975500D01*
X116953807Y-84975500D01*
X117177047Y-84931095D01*
X117387335Y-84843991D01*
X117475501Y-84785080D01*
X117475501Y-85394920D01*
X117387335Y-85336009D01*
X117177047Y-85248905D01*
X116953807Y-85204500D01*
X116726193Y-85204500D01*
X116502953Y-85248905D01*
X116489445Y-85254500D01*
X114650555Y-85254500D01*
X114637047Y-85248905D01*
X114413807Y-85204500D01*
X114186193Y-85204500D01*
X113962953Y-85248905D01*
X113752665Y-85336009D01*
X113563412Y-85462465D01*
X113402465Y-85623412D01*
X113276009Y-85812665D01*
X113188905Y-86022953D01*
X113144500Y-86246193D01*
X113144500Y-86473807D01*
X113188905Y-86697047D01*
X113276009Y-86907335D01*
X113402465Y-87096588D01*
X113563412Y-87257535D01*
X113752665Y-87383991D01*
X113962953Y-87471095D01*
X114186193Y-87515500D01*
X114413807Y-87515500D01*
X114637047Y-87471095D01*
X114650555Y-87465500D01*
X116489445Y-87465500D01*
X116502953Y-87471095D01*
X116726193Y-87515500D01*
X116953807Y-87515500D01*
X117177047Y-87471095D01*
X117387335Y-87383991D01*
X117475501Y-87325080D01*
X117475501Y-87934920D01*
X117387335Y-87876009D01*
X117177047Y-87788905D01*
X116953807Y-87744500D01*
X116726193Y-87744500D01*
X116502953Y-87788905D01*
X116489445Y-87794500D01*
X114650555Y-87794500D01*
X114637047Y-87788905D01*
X114413807Y-87744500D01*
X114186193Y-87744500D01*
X113962953Y-87788905D01*
X113752665Y-87876009D01*
X113563412Y-88002465D01*
X113402465Y-88163412D01*
X113276009Y-88352665D01*
X113188905Y-88562953D01*
X113144500Y-88786193D01*
X113144500Y-89013807D01*
X113188905Y-89237047D01*
X113276009Y-89447335D01*
X113402465Y-89636588D01*
X113563412Y-89797535D01*
X113752665Y-89923991D01*
X113962953Y-90011095D01*
X114186193Y-90055500D01*
X114413807Y-90055500D01*
X114637047Y-90011095D01*
X114650555Y-90005500D01*
X116489445Y-90005500D01*
X116502953Y-90011095D01*
X116726193Y-90055500D01*
X116953807Y-90055500D01*
X117177047Y-90011095D01*
X117387335Y-89923991D01*
X117475501Y-89865080D01*
X117475501Y-90474920D01*
X117387335Y-90416009D01*
X117177047Y-90328905D01*
X116953807Y-90284500D01*
X116726193Y-90284500D01*
X116502953Y-90328905D01*
X116489445Y-90334500D01*
X114650555Y-90334500D01*
X114637047Y-90328905D01*
X114413807Y-90284500D01*
X114186193Y-90284500D01*
X113962953Y-90328905D01*
X113752665Y-90416009D01*
X113563412Y-90542465D01*
X113402465Y-90703412D01*
X113276009Y-90892665D01*
X113188905Y-91102953D01*
X113144500Y-91326193D01*
X113144500Y-91553807D01*
X113188905Y-91777047D01*
X113276009Y-91987335D01*
X113402465Y-92176588D01*
X113563412Y-92337535D01*
X113752665Y-92463991D01*
X113962953Y-92551095D01*
X114186193Y-92595500D01*
X114413807Y-92595500D01*
X114637047Y-92551095D01*
X114650555Y-92545500D01*
X116489445Y-92545500D01*
X116502953Y-92551095D01*
X116726193Y-92595500D01*
X116953807Y-92595500D01*
X117177047Y-92551095D01*
X117387335Y-92463991D01*
X117475501Y-92405080D01*
X117475501Y-93014920D01*
X117387335Y-92956009D01*
X117177047Y-92868905D01*
X116953807Y-92824500D01*
X116726193Y-92824500D01*
X116502953Y-92868905D01*
X116489445Y-92874500D01*
X114650555Y-92874500D01*
X114637047Y-92868905D01*
X114413807Y-92824500D01*
X114186193Y-92824500D01*
X113962953Y-92868905D01*
X113752665Y-92956009D01*
X113563412Y-93082465D01*
X113402465Y-93243412D01*
X113276009Y-93432665D01*
X113188905Y-93642953D01*
X113144500Y-93866193D01*
X113144500Y-94093807D01*
X113188905Y-94317047D01*
X113276009Y-94527335D01*
X113402465Y-94716588D01*
X113563412Y-94877535D01*
X113752665Y-95003991D01*
X113962953Y-95091095D01*
X114186193Y-95135500D01*
X114413807Y-95135500D01*
X114637047Y-95091095D01*
X114650555Y-95085500D01*
X116489445Y-95085500D01*
X116502953Y-95091095D01*
X116726193Y-95135500D01*
X116953807Y-95135500D01*
X117177047Y-95091095D01*
X117387335Y-95003991D01*
X117475501Y-94945080D01*
X117475501Y-95554920D01*
X117387335Y-95496009D01*
X117177047Y-95408905D01*
X116953807Y-95364500D01*
X116726193Y-95364500D01*
X116502953Y-95408905D01*
X116489445Y-95414500D01*
X114650555Y-95414500D01*
X114637047Y-95408905D01*
X114413807Y-95364500D01*
X114186193Y-95364500D01*
X113962953Y-95408905D01*
X113752665Y-95496009D01*
X113563412Y-95622465D01*
X113402465Y-95783412D01*
X113276009Y-95972665D01*
X113188905Y-96182953D01*
X113144500Y-96406193D01*
X113144500Y-96633807D01*
X113188905Y-96857047D01*
X113276009Y-97067335D01*
X113402465Y-97256588D01*
X113563412Y-97417535D01*
X113752665Y-97543991D01*
X113962953Y-97631095D01*
X114186193Y-97675500D01*
X114413807Y-97675500D01*
X114637047Y-97631095D01*
X114650555Y-97625500D01*
X116489445Y-97625500D01*
X116502953Y-97631095D01*
X116726193Y-97675500D01*
X116953807Y-97675500D01*
X117177047Y-97631095D01*
X117387335Y-97543991D01*
X117475501Y-97485080D01*
X117475501Y-98094920D01*
X117387335Y-98036009D01*
X117177047Y-97948905D01*
X116953807Y-97904500D01*
X116726193Y-97904500D01*
X116502953Y-97948905D01*
X116489445Y-97954500D01*
X114650555Y-97954500D01*
X114637047Y-97948905D01*
X114413807Y-97904500D01*
X114186193Y-97904500D01*
X113962953Y-97948905D01*
X113752665Y-98036009D01*
X113563412Y-98162465D01*
X113402465Y-98323412D01*
X113276009Y-98512665D01*
X113188905Y-98722953D01*
X113144500Y-98946193D01*
X113144500Y-99173807D01*
X113188905Y-99397047D01*
X113276009Y-99607335D01*
X113402465Y-99796588D01*
X113563412Y-99957535D01*
X113752665Y-100083991D01*
X113962953Y-100171095D01*
X114186193Y-100215500D01*
X114413807Y-100215500D01*
X114637047Y-100171095D01*
X114650555Y-100165500D01*
X116489445Y-100165500D01*
X116502953Y-100171095D01*
X116726193Y-100215500D01*
X116953807Y-100215500D01*
X117177047Y-100171095D01*
X117387335Y-100083991D01*
X117475501Y-100025080D01*
X117475501Y-105029500D01*
X113235641Y-105029500D01*
X113239531Y-104990000D01*
X113236500Y-104432125D01*
X113079875Y-104275500D01*
X111895500Y-104275500D01*
X111895500Y-104295500D01*
X111624500Y-104295500D01*
X111624500Y-104275500D01*
X111604500Y-104275500D01*
X111604500Y-104004500D01*
X111624500Y-104004500D01*
X111624500Y-102820125D01*
X111895500Y-102820125D01*
X111895500Y-104004500D01*
X113079875Y-104004500D01*
X113236500Y-103847875D01*
X113239531Y-103290000D01*
X113227435Y-103167185D01*
X113191611Y-103049089D01*
X113133436Y-102940251D01*
X113055146Y-102844854D01*
X112959749Y-102766564D01*
X112850911Y-102708389D01*
X112732815Y-102672565D01*
X112610000Y-102660469D01*
X112052125Y-102663500D01*
X111895500Y-102820125D01*
X111624500Y-102820125D01*
X111467875Y-102663500D01*
X110910000Y-102660469D01*
X110787185Y-102672565D01*
X110669089Y-102708389D01*
X110560251Y-102766564D01*
X110464854Y-102844854D01*
X110386564Y-102940251D01*
X110328389Y-103049089D01*
X110325500Y-103058613D01*
X110325500Y-98637912D01*
X111800256Y-97163157D01*
X111807374Y-97160998D01*
X111912354Y-97104885D01*
X112004370Y-97029370D01*
X112079885Y-96937354D01*
X112135998Y-96832374D01*
X112170552Y-96718464D01*
X112182220Y-96600001D01*
X112182220Y-96598143D01*
X112214504Y-96491716D01*
X112235849Y-96275000D01*
X112214504Y-96058285D01*
X112182220Y-95951858D01*
X112182220Y-95949999D01*
X112170552Y-95831536D01*
X112135998Y-95717626D01*
X112079885Y-95612646D01*
X112004370Y-95520630D01*
X111912354Y-95445115D01*
X111807374Y-95389002D01*
X111776667Y-95379687D01*
X111742154Y-95351363D01*
X111552519Y-95250000D01*
X111742155Y-95148637D01*
X111776669Y-95120312D01*
X111807374Y-95110998D01*
X111912354Y-95054885D01*
X112004370Y-94979370D01*
X112079885Y-94887354D01*
X112135998Y-94782374D01*
X112170552Y-94668464D01*
X112182220Y-94550001D01*
X112182220Y-94548143D01*
X112214504Y-94441716D01*
X112235849Y-94225000D01*
X112214504Y-94008284D01*
X112182220Y-93901857D01*
X112182220Y-93899999D01*
X112170552Y-93781536D01*
X112135998Y-93667626D01*
X112079885Y-93562646D01*
X112004370Y-93470630D01*
X111912354Y-93395115D01*
X111807374Y-93339002D01*
X111776669Y-93329688D01*
X111742155Y-93301363D01*
X111550104Y-93198709D01*
X111341716Y-93135496D01*
X111179308Y-93119500D01*
X109361383Y-93119500D01*
X108928500Y-92686617D01*
X108928500Y-79963000D01*
X109299469Y-79963000D01*
X109311565Y-80085815D01*
X109347389Y-80203911D01*
X109405564Y-80312749D01*
X109483854Y-80408146D01*
X109579251Y-80486436D01*
X109688089Y-80544611D01*
X109806185Y-80580435D01*
X109929000Y-80592531D01*
X110086875Y-80589500D01*
X110243500Y-80432875D01*
X110243500Y-79698500D01*
X110514500Y-79698500D01*
X110514500Y-80432875D01*
X110671125Y-80589500D01*
X110829000Y-80592531D01*
X110951815Y-80580435D01*
X111069911Y-80544611D01*
X111178749Y-80486436D01*
X111274146Y-80408146D01*
X111352436Y-80312749D01*
X111410611Y-80203911D01*
X111446435Y-80085815D01*
X111458531Y-79963000D01*
X111455500Y-79855125D01*
X111298875Y-79698500D01*
X110514500Y-79698500D01*
X110243500Y-79698500D01*
X109459125Y-79698500D01*
X109302500Y-79855125D01*
X109299469Y-79963000D01*
X108928500Y-79963000D01*
X108928500Y-79163000D01*
X109299469Y-79163000D01*
X109302500Y-79270875D01*
X109459125Y-79427500D01*
X110243500Y-79427500D01*
X110243500Y-78693125D01*
X110514500Y-78693125D01*
X110514500Y-79427500D01*
X111298875Y-79427500D01*
X111455500Y-79270875D01*
X111458531Y-79163000D01*
X111446435Y-79040185D01*
X111410611Y-78922089D01*
X111352436Y-78813251D01*
X111274146Y-78717854D01*
X111178749Y-78639564D01*
X111069911Y-78581389D01*
X110951815Y-78545565D01*
X110829000Y-78533469D01*
X110671125Y-78536500D01*
X110514500Y-78693125D01*
X110243500Y-78693125D01*
X110086875Y-78536500D01*
X109929000Y-78533469D01*
X109806185Y-78545565D01*
X109688089Y-78581389D01*
X109579251Y-78639564D01*
X109483854Y-78717854D01*
X109405564Y-78813251D01*
X109347389Y-78922089D01*
X109311565Y-79040185D01*
X109299469Y-79163000D01*
X108928500Y-79163000D01*
X108928500Y-76577376D01*
X108968113Y-76481741D01*
X108988500Y-76379250D01*
X108988500Y-76274750D01*
X108968113Y-76172259D01*
X108928500Y-76076624D01*
X108928500Y-75043499D01*
X109670057Y-75785058D01*
G37*
X109670057Y-75785058D02*
X109633089Y-75804818D01*
X109537920Y-75882920D01*
X109459818Y-75978089D01*
X109401782Y-76086666D01*
X109366044Y-76204479D01*
X109353977Y-76327000D01*
X109366044Y-76449521D01*
X109401782Y-76567334D01*
X109459818Y-76675911D01*
X109518348Y-76747230D01*
X109734815Y-76963697D01*
X109730539Y-76965982D01*
X109676407Y-77010407D01*
X109631982Y-77064539D01*
X109598972Y-77126298D01*
X109578644Y-77193310D01*
X109571780Y-77263000D01*
X109571780Y-78063000D01*
X109578644Y-78132690D01*
X109598972Y-78199702D01*
X109631982Y-78261461D01*
X109676407Y-78315593D01*
X109730539Y-78360018D01*
X109792298Y-78393028D01*
X109859310Y-78413356D01*
X109929000Y-78420220D01*
X110829000Y-78420220D01*
X110898690Y-78413356D01*
X110965702Y-78393028D01*
X111027461Y-78360018D01*
X111081593Y-78315593D01*
X111126018Y-78261461D01*
X111159028Y-78199702D01*
X111179356Y-78132690D01*
X111186220Y-78063000D01*
X111186220Y-77263000D01*
X111179356Y-77193310D01*
X111159028Y-77126298D01*
X111126018Y-77064539D01*
X111081593Y-77010407D01*
X111027461Y-76965982D01*
X111004000Y-76953442D01*
X111004000Y-76754701D01*
X111007024Y-76724000D01*
X111004000Y-76693296D01*
X110994957Y-76601479D01*
X110959219Y-76483666D01*
X110901183Y-76375089D01*
X110853511Y-76317000D01*
X111875605Y-76317000D01*
X111897000Y-76338395D01*
X111897000Y-76357703D01*
X111906043Y-76449520D01*
X111941781Y-76567333D01*
X111999817Y-76675910D01*
X112077920Y-76771080D01*
X112173089Y-76849183D01*
X112281666Y-76907219D01*
X112399479Y-76942957D01*
X112522000Y-76955024D01*
X112644520Y-76942957D01*
X112762333Y-76907219D01*
X112870910Y-76849183D01*
X112966080Y-76771080D01*
X113044183Y-76675911D01*
X113102219Y-76567334D01*
X113137957Y-76449521D01*
X113147000Y-76357704D01*
X113147000Y-76326375D01*
X113188905Y-76537047D01*
X113276009Y-76747335D01*
X113402465Y-76936588D01*
X113563412Y-77097535D01*
X113752665Y-77223991D01*
X113962953Y-77311095D01*
X114186193Y-77355500D01*
X114413807Y-77355500D01*
X114637047Y-77311095D01*
X114650555Y-77305500D01*
X116489445Y-77305500D01*
X116502953Y-77311095D01*
X116726193Y-77355500D01*
X116953807Y-77355500D01*
X117177047Y-77311095D01*
X117387335Y-77223991D01*
X117475501Y-77165080D01*
X117475501Y-77774920D01*
X117387335Y-77716009D01*
X117177047Y-77628905D01*
X116953807Y-77584500D01*
X116726193Y-77584500D01*
X116502953Y-77628905D01*
X116489445Y-77634500D01*
X114650555Y-77634500D01*
X114637047Y-77628905D01*
X114413807Y-77584500D01*
X114186193Y-77584500D01*
X113962953Y-77628905D01*
X113752665Y-77716009D01*
X113563412Y-77842465D01*
X113402465Y-78003412D01*
X113276009Y-78192665D01*
X113188905Y-78402953D01*
X113186220Y-78416451D01*
X113186220Y-78213000D01*
X113179356Y-78143310D01*
X113159028Y-78076298D01*
X113126018Y-78014539D01*
X113081593Y-77960407D01*
X113027461Y-77915982D01*
X112965702Y-77882972D01*
X112898690Y-77862644D01*
X112829000Y-77855780D01*
X111929000Y-77855780D01*
X111859310Y-77862644D01*
X111792298Y-77882972D01*
X111730539Y-77915982D01*
X111676407Y-77960407D01*
X111631982Y-78014539D01*
X111598972Y-78076298D01*
X111578644Y-78143310D01*
X111571780Y-78213000D01*
X111571780Y-79013000D01*
X111578644Y-79082690D01*
X111598972Y-79149702D01*
X111631982Y-79211461D01*
X111676407Y-79265593D01*
X111730539Y-79310018D01*
X111792298Y-79343028D01*
X111859310Y-79363356D01*
X111929000Y-79370220D01*
X112829000Y-79370220D01*
X112898690Y-79363356D01*
X112965702Y-79343028D01*
X113027461Y-79310018D01*
X113081593Y-79265593D01*
X113126018Y-79211461D01*
X113159028Y-79149702D01*
X113179356Y-79082690D01*
X113182890Y-79046808D01*
X113188905Y-79077047D01*
X113276009Y-79287335D01*
X113402465Y-79476588D01*
X113563412Y-79637535D01*
X113752665Y-79763991D01*
X113962953Y-79851095D01*
X114186193Y-79895500D01*
X114413807Y-79895500D01*
X114637047Y-79851095D01*
X114650555Y-79845500D01*
X116489445Y-79845500D01*
X116502953Y-79851095D01*
X116726193Y-79895500D01*
X116953807Y-79895500D01*
X117177047Y-79851095D01*
X117387335Y-79763991D01*
X117475501Y-79705080D01*
X117475501Y-80314920D01*
X117387335Y-80256009D01*
X117177047Y-80168905D01*
X116953807Y-80124500D01*
X116726193Y-80124500D01*
X116502953Y-80168905D01*
X116489445Y-80174500D01*
X114650555Y-80174500D01*
X114637047Y-80168905D01*
X114413807Y-80124500D01*
X114186193Y-80124500D01*
X113962953Y-80168905D01*
X113752665Y-80256009D01*
X113563412Y-80382465D01*
X113402465Y-80543412D01*
X113276009Y-80732665D01*
X113188905Y-80942953D01*
X113144500Y-81166193D01*
X113144500Y-81393807D01*
X113188905Y-81617047D01*
X113276009Y-81827335D01*
X113402465Y-82016588D01*
X113563412Y-82177535D01*
X113752665Y-82303991D01*
X113962953Y-82391095D01*
X114186193Y-82435500D01*
X114413807Y-82435500D01*
X114637047Y-82391095D01*
X114650555Y-82385500D01*
X116489445Y-82385500D01*
X116502953Y-82391095D01*
X116726193Y-82435500D01*
X116953807Y-82435500D01*
X117177047Y-82391095D01*
X117387335Y-82303991D01*
X117475501Y-82245080D01*
X117475501Y-82854920D01*
X117387335Y-82796009D01*
X117177047Y-82708905D01*
X116953807Y-82664500D01*
X116726193Y-82664500D01*
X116502953Y-82708905D01*
X116489445Y-82714500D01*
X114650555Y-82714500D01*
X114637047Y-82708905D01*
X114413807Y-82664500D01*
X114186193Y-82664500D01*
X113962953Y-82708905D01*
X113752665Y-82796009D01*
X113563412Y-82922465D01*
X113402465Y-83083412D01*
X113276009Y-83272665D01*
X113188905Y-83482953D01*
X113144500Y-83706193D01*
X113144500Y-83933807D01*
X113188905Y-84157047D01*
X113276009Y-84367335D01*
X113402465Y-84556588D01*
X113563412Y-84717535D01*
X113752665Y-84843991D01*
X113962953Y-84931095D01*
X114186193Y-84975500D01*
X114413807Y-84975500D01*
X114637047Y-84931095D01*
X114650555Y-84925500D01*
X116489445Y-84925500D01*
X116502953Y-84931095D01*
X116726193Y-84975500D01*
X116953807Y-84975500D01*
X117177047Y-84931095D01*
X117387335Y-84843991D01*
X117475501Y-84785080D01*
X117475501Y-85394920D01*
X117387335Y-85336009D01*
X117177047Y-85248905D01*
X116953807Y-85204500D01*
X116726193Y-85204500D01*
X116502953Y-85248905D01*
X116489445Y-85254500D01*
X114650555Y-85254500D01*
X114637047Y-85248905D01*
X114413807Y-85204500D01*
X114186193Y-85204500D01*
X113962953Y-85248905D01*
X113752665Y-85336009D01*
X113563412Y-85462465D01*
X113402465Y-85623412D01*
X113276009Y-85812665D01*
X113188905Y-86022953D01*
X113144500Y-86246193D01*
X113144500Y-86473807D01*
X113188905Y-86697047D01*
X113276009Y-86907335D01*
X113402465Y-87096588D01*
X113563412Y-87257535D01*
X113752665Y-87383991D01*
X113962953Y-87471095D01*
X114186193Y-87515500D01*
X114413807Y-87515500D01*
X114637047Y-87471095D01*
X114650555Y-87465500D01*
X116489445Y-87465500D01*
X116502953Y-87471095D01*
X116726193Y-87515500D01*
X116953807Y-87515500D01*
X117177047Y-87471095D01*
X117387335Y-87383991D01*
X117475501Y-87325080D01*
X117475501Y-87934920D01*
X117387335Y-87876009D01*
X117177047Y-87788905D01*
X116953807Y-87744500D01*
X116726193Y-87744500D01*
X116502953Y-87788905D01*
X116489445Y-87794500D01*
X114650555Y-87794500D01*
X114637047Y-87788905D01*
X114413807Y-87744500D01*
X114186193Y-87744500D01*
X113962953Y-87788905D01*
X113752665Y-87876009D01*
X113563412Y-88002465D01*
X113402465Y-88163412D01*
X113276009Y-88352665D01*
X113188905Y-88562953D01*
X113144500Y-88786193D01*
X113144500Y-89013807D01*
X113188905Y-89237047D01*
X113276009Y-89447335D01*
X113402465Y-89636588D01*
X113563412Y-89797535D01*
X113752665Y-89923991D01*
X113962953Y-90011095D01*
X114186193Y-90055500D01*
X114413807Y-90055500D01*
X114637047Y-90011095D01*
X114650555Y-90005500D01*
X116489445Y-90005500D01*
X116502953Y-90011095D01*
X116726193Y-90055500D01*
X116953807Y-90055500D01*
X117177047Y-90011095D01*
X117387335Y-89923991D01*
X117475501Y-89865080D01*
X117475501Y-90474920D01*
X117387335Y-90416009D01*
X117177047Y-90328905D01*
X116953807Y-90284500D01*
X116726193Y-90284500D01*
X116502953Y-90328905D01*
X116489445Y-90334500D01*
X114650555Y-90334500D01*
X114637047Y-90328905D01*
X114413807Y-90284500D01*
X114186193Y-90284500D01*
X113962953Y-90328905D01*
X113752665Y-90416009D01*
X113563412Y-90542465D01*
X113402465Y-90703412D01*
X113276009Y-90892665D01*
X113188905Y-91102953D01*
X113144500Y-91326193D01*
X113144500Y-91553807D01*
X113188905Y-91777047D01*
X113276009Y-91987335D01*
X113402465Y-92176588D01*
X113563412Y-92337535D01*
X113752665Y-92463991D01*
X113962953Y-92551095D01*
X114186193Y-92595500D01*
X114413807Y-92595500D01*
X114637047Y-92551095D01*
X114650555Y-92545500D01*
X116489445Y-92545500D01*
X116502953Y-92551095D01*
X116726193Y-92595500D01*
X116953807Y-92595500D01*
X117177047Y-92551095D01*
X117387335Y-92463991D01*
X117475501Y-92405080D01*
X117475501Y-93014920D01*
X117387335Y-92956009D01*
X117177047Y-92868905D01*
X116953807Y-92824500D01*
X116726193Y-92824500D01*
X116502953Y-92868905D01*
X116489445Y-92874500D01*
X114650555Y-92874500D01*
X114637047Y-92868905D01*
X114413807Y-92824500D01*
X114186193Y-92824500D01*
X113962953Y-92868905D01*
X113752665Y-92956009D01*
X113563412Y-93082465D01*
X113402465Y-93243412D01*
X113276009Y-93432665D01*
X113188905Y-93642953D01*
X113144500Y-93866193D01*
X113144500Y-94093807D01*
X113188905Y-94317047D01*
X113276009Y-94527335D01*
X113402465Y-94716588D01*
X113563412Y-94877535D01*
X113752665Y-95003991D01*
X113962953Y-95091095D01*
X114186193Y-95135500D01*
X114413807Y-95135500D01*
X114637047Y-95091095D01*
X114650555Y-95085500D01*
X116489445Y-95085500D01*
X116502953Y-95091095D01*
X116726193Y-95135500D01*
X116953807Y-95135500D01*
X117177047Y-95091095D01*
X117387335Y-95003991D01*
X117475501Y-94945080D01*
X117475501Y-95554920D01*
X117387335Y-95496009D01*
X117177047Y-95408905D01*
X116953807Y-95364500D01*
X116726193Y-95364500D01*
X116502953Y-95408905D01*
X116489445Y-95414500D01*
X114650555Y-95414500D01*
X114637047Y-95408905D01*
X114413807Y-95364500D01*
X114186193Y-95364500D01*
X113962953Y-95408905D01*
X113752665Y-95496009D01*
X113563412Y-95622465D01*
X113402465Y-95783412D01*
X113276009Y-95972665D01*
X113188905Y-96182953D01*
X113144500Y-96406193D01*
X113144500Y-96633807D01*
X113188905Y-96857047D01*
X113276009Y-97067335D01*
X113402465Y-97256588D01*
X113563412Y-97417535D01*
X113752665Y-97543991D01*
X113962953Y-97631095D01*
X114186193Y-97675500D01*
X114413807Y-97675500D01*
X114637047Y-97631095D01*
X114650555Y-97625500D01*
X116489445Y-97625500D01*
X116502953Y-97631095D01*
X116726193Y-97675500D01*
X116953807Y-97675500D01*
X117177047Y-97631095D01*
X117387335Y-97543991D01*
X117475501Y-97485080D01*
X117475501Y-98094920D01*
X117387335Y-98036009D01*
X117177047Y-97948905D01*
X116953807Y-97904500D01*
X116726193Y-97904500D01*
X116502953Y-97948905D01*
X116489445Y-97954500D01*
X114650555Y-97954500D01*
X114637047Y-97948905D01*
X114413807Y-97904500D01*
X114186193Y-97904500D01*
X113962953Y-97948905D01*
X113752665Y-98036009D01*
X113563412Y-98162465D01*
X113402465Y-98323412D01*
X113276009Y-98512665D01*
X113188905Y-98722953D01*
X113144500Y-98946193D01*
X113144500Y-99173807D01*
X113188905Y-99397047D01*
X113276009Y-99607335D01*
X113402465Y-99796588D01*
X113563412Y-99957535D01*
X113752665Y-100083991D01*
X113962953Y-100171095D01*
X114186193Y-100215500D01*
X114413807Y-100215500D01*
X114637047Y-100171095D01*
X114650555Y-100165500D01*
X116489445Y-100165500D01*
X116502953Y-100171095D01*
X116726193Y-100215500D01*
X116953807Y-100215500D01*
X117177047Y-100171095D01*
X117387335Y-100083991D01*
X117475501Y-100025080D01*
X117475501Y-105029500D01*
X113235641Y-105029500D01*
X113239531Y-104990000D01*
X113236500Y-104432125D01*
X113079875Y-104275500D01*
X111895500Y-104275500D01*
X111895500Y-104295500D01*
X111624500Y-104295500D01*
X111624500Y-104275500D01*
X111604500Y-104275500D01*
X111604500Y-104004500D01*
X111624500Y-104004500D01*
X111624500Y-102820125D01*
X111895500Y-102820125D01*
X111895500Y-104004500D01*
X113079875Y-104004500D01*
X113236500Y-103847875D01*
X113239531Y-103290000D01*
X113227435Y-103167185D01*
X113191611Y-103049089D01*
X113133436Y-102940251D01*
X113055146Y-102844854D01*
X112959749Y-102766564D01*
X112850911Y-102708389D01*
X112732815Y-102672565D01*
X112610000Y-102660469D01*
X112052125Y-102663500D01*
X111895500Y-102820125D01*
X111624500Y-102820125D01*
X111467875Y-102663500D01*
X110910000Y-102660469D01*
X110787185Y-102672565D01*
X110669089Y-102708389D01*
X110560251Y-102766564D01*
X110464854Y-102844854D01*
X110386564Y-102940251D01*
X110328389Y-103049089D01*
X110325500Y-103058613D01*
X110325500Y-98637912D01*
X111800256Y-97163157D01*
X111807374Y-97160998D01*
X111912354Y-97104885D01*
X112004370Y-97029370D01*
X112079885Y-96937354D01*
X112135998Y-96832374D01*
X112170552Y-96718464D01*
X112182220Y-96600001D01*
X112182220Y-96598143D01*
X112214504Y-96491716D01*
X112235849Y-96275000D01*
X112214504Y-96058285D01*
X112182220Y-95951858D01*
X112182220Y-95949999D01*
X112170552Y-95831536D01*
X112135998Y-95717626D01*
X112079885Y-95612646D01*
X112004370Y-95520630D01*
X111912354Y-95445115D01*
X111807374Y-95389002D01*
X111776667Y-95379687D01*
X111742154Y-95351363D01*
X111552519Y-95250000D01*
X111742155Y-95148637D01*
X111776669Y-95120312D01*
X111807374Y-95110998D01*
X111912354Y-95054885D01*
X112004370Y-94979370D01*
X112079885Y-94887354D01*
X112135998Y-94782374D01*
X112170552Y-94668464D01*
X112182220Y-94550001D01*
X112182220Y-94548143D01*
X112214504Y-94441716D01*
X112235849Y-94225000D01*
X112214504Y-94008284D01*
X112182220Y-93901857D01*
X112182220Y-93899999D01*
X112170552Y-93781536D01*
X112135998Y-93667626D01*
X112079885Y-93562646D01*
X112004370Y-93470630D01*
X111912354Y-93395115D01*
X111807374Y-93339002D01*
X111776669Y-93329688D01*
X111742155Y-93301363D01*
X111550104Y-93198709D01*
X111341716Y-93135496D01*
X111179308Y-93119500D01*
X109361383Y-93119500D01*
X108928500Y-92686617D01*
X108928500Y-79963000D01*
X109299469Y-79963000D01*
X109311565Y-80085815D01*
X109347389Y-80203911D01*
X109405564Y-80312749D01*
X109483854Y-80408146D01*
X109579251Y-80486436D01*
X109688089Y-80544611D01*
X109806185Y-80580435D01*
X109929000Y-80592531D01*
X110086875Y-80589500D01*
X110243500Y-80432875D01*
X110243500Y-79698500D01*
X110514500Y-79698500D01*
X110514500Y-80432875D01*
X110671125Y-80589500D01*
X110829000Y-80592531D01*
X110951815Y-80580435D01*
X111069911Y-80544611D01*
X111178749Y-80486436D01*
X111274146Y-80408146D01*
X111352436Y-80312749D01*
X111410611Y-80203911D01*
X111446435Y-80085815D01*
X111458531Y-79963000D01*
X111455500Y-79855125D01*
X111298875Y-79698500D01*
X110514500Y-79698500D01*
X110243500Y-79698500D01*
X109459125Y-79698500D01*
X109302500Y-79855125D01*
X109299469Y-79963000D01*
X108928500Y-79963000D01*
X108928500Y-79163000D01*
X109299469Y-79163000D01*
X109302500Y-79270875D01*
X109459125Y-79427500D01*
X110243500Y-79427500D01*
X110243500Y-78693125D01*
X110514500Y-78693125D01*
X110514500Y-79427500D01*
X111298875Y-79427500D01*
X111455500Y-79270875D01*
X111458531Y-79163000D01*
X111446435Y-79040185D01*
X111410611Y-78922089D01*
X111352436Y-78813251D01*
X111274146Y-78717854D01*
X111178749Y-78639564D01*
X111069911Y-78581389D01*
X110951815Y-78545565D01*
X110829000Y-78533469D01*
X110671125Y-78536500D01*
X110514500Y-78693125D01*
X110243500Y-78693125D01*
X110086875Y-78536500D01*
X109929000Y-78533469D01*
X109806185Y-78545565D01*
X109688089Y-78581389D01*
X109579251Y-78639564D01*
X109483854Y-78717854D01*
X109405564Y-78813251D01*
X109347389Y-78922089D01*
X109311565Y-79040185D01*
X109299469Y-79163000D01*
X108928500Y-79163000D01*
X108928500Y-76577376D01*
X108968113Y-76481741D01*
X108988500Y-76379250D01*
X108988500Y-76274750D01*
X108968113Y-76172259D01*
X108928500Y-76076624D01*
X108928500Y-75043499D01*
X109670057Y-75785058D01*
G36*
X106405310Y-60400356D02*
G01*
X106475000Y-60407220D01*
X106758187Y-60407220D01*
X106826444Y-60491709D01*
X106921236Y-60570730D01*
X107029623Y-60629741D01*
X107115578Y-60656539D01*
X105780889Y-61991229D01*
X105757038Y-62010803D01*
X105701159Y-62078892D01*
X105678935Y-62105972D01*
X105620899Y-62214549D01*
X105585161Y-62332362D01*
X105573094Y-62454883D01*
X105576118Y-62485586D01*
X105576117Y-63469306D01*
X105573094Y-63500000D01*
X105576117Y-63530694D01*
X105576117Y-63530703D01*
X105585160Y-63622520D01*
X105620898Y-63740333D01*
X105678934Y-63848910D01*
X105757037Y-63944080D01*
X105780893Y-63963658D01*
X108214498Y-66397264D01*
X108214498Y-66480123D01*
X108057875Y-66323500D01*
X107947439Y-66333528D01*
X107829623Y-66370259D01*
X107721236Y-66429270D01*
X107626444Y-66508291D01*
X107558187Y-66592780D01*
X107541813Y-66592780D01*
X107473556Y-66508291D01*
X107378764Y-66429270D01*
X107270377Y-66370259D01*
X107152561Y-66333528D01*
X107042125Y-66323500D01*
X106885500Y-66480125D01*
X106885500Y-67614500D01*
X106905500Y-67614500D01*
X106905500Y-67885500D01*
X106885500Y-67885500D01*
X106885500Y-69019875D01*
X106925000Y-69059375D01*
X106925000Y-69074607D01*
X106899364Y-69105845D01*
X106796710Y-69297896D01*
X106733496Y-69506284D01*
X106717500Y-69668692D01*
X106717500Y-70539307D01*
X106717501Y-70539317D01*
X106717500Y-90836260D01*
X106661646Y-90866115D01*
X106569630Y-90941630D01*
X106494115Y-91033646D01*
X106438002Y-91138626D01*
X106403448Y-91252536D01*
X106391780Y-91370999D01*
X106391780Y-92271001D01*
X106403448Y-92389464D01*
X106438002Y-92503374D01*
X106494115Y-92608354D01*
X106569630Y-92700370D01*
X106661646Y-92775885D01*
X106717500Y-92805740D01*
X106717500Y-94855089D01*
X106318220Y-95254369D01*
X106318220Y-93765000D01*
X106311356Y-93695310D01*
X106291028Y-93628298D01*
X106258018Y-93566539D01*
X106213593Y-93512407D01*
X106159461Y-93467982D01*
X106097702Y-93434972D01*
X106030690Y-93414644D01*
X105961000Y-93407780D01*
X105899000Y-93407780D01*
X105899000Y-92795851D01*
X105936354Y-92775885D01*
X106028370Y-92700370D01*
X106103885Y-92608354D01*
X106159998Y-92503374D01*
X106194552Y-92389464D01*
X106206220Y-92271001D01*
X106206220Y-91370999D01*
X106194552Y-91252536D01*
X106159998Y-91138626D01*
X106103885Y-91033646D01*
X106028370Y-90941630D01*
X105936354Y-90866115D01*
X105831374Y-90810002D01*
X105717464Y-90775448D01*
X105599001Y-90763780D01*
X105146000Y-90763780D01*
X105146000Y-69783054D01*
X105174104Y-69791579D01*
X105283000Y-69802304D01*
X105391897Y-69791579D01*
X105496609Y-69759815D01*
X105593112Y-69708233D01*
X105677698Y-69638815D01*
X105747116Y-69554229D01*
X105798698Y-69457726D01*
X105830462Y-69353013D01*
X105838500Y-69271399D01*
X105838500Y-68907220D01*
X105958187Y-68907220D01*
X106026444Y-68991709D01*
X106121236Y-69070730D01*
X106229623Y-69129741D01*
X106347439Y-69166472D01*
X106457875Y-69176500D01*
X106614500Y-69019875D01*
X106614500Y-67885500D01*
X106594500Y-67885500D01*
X106594500Y-67614500D01*
X106614500Y-67614500D01*
X106614500Y-66480125D01*
X106457875Y-66323500D01*
X106347439Y-66333528D01*
X106229623Y-66370259D01*
X106121236Y-66429270D01*
X106026444Y-66508291D01*
X105958187Y-66592780D01*
X105831979Y-66592780D01*
X105863219Y-66534334D01*
X105898957Y-66416520D01*
X105908000Y-66324703D01*
X105908000Y-65943693D01*
X105911023Y-65912999D01*
X105908000Y-65882305D01*
X105908000Y-65882296D01*
X105898957Y-65790479D01*
X105863219Y-65672666D01*
X105805183Y-65564089D01*
X105781000Y-65534622D01*
X105781000Y-64266600D01*
X105784024Y-64235898D01*
X105781000Y-64205194D01*
X105771957Y-64113377D01*
X105736219Y-63995564D01*
X105678183Y-63886987D01*
X105600080Y-63791818D01*
X105576230Y-63772245D01*
X105283760Y-63479776D01*
X105264182Y-63455920D01*
X105169013Y-63377817D01*
X105060436Y-63319781D01*
X104942623Y-63284043D01*
X104857220Y-63275632D01*
X104857220Y-62825000D01*
X104850356Y-62755310D01*
X104833578Y-62700000D01*
X104850356Y-62644690D01*
X104857220Y-62575000D01*
X104857220Y-62025000D01*
X104850356Y-61955310D01*
X104833578Y-61900000D01*
X104850356Y-61844690D01*
X104857220Y-61775000D01*
X104857220Y-61225000D01*
X104850356Y-61155310D01*
X104833578Y-61100000D01*
X104850356Y-61044690D01*
X104857220Y-60975000D01*
X104857220Y-60425000D01*
X104855277Y-60405277D01*
X104875000Y-60407220D01*
X105425000Y-60407220D01*
X105494690Y-60400356D01*
X105550000Y-60383578D01*
X105605310Y-60400356D01*
X105675000Y-60407220D01*
X106225000Y-60407220D01*
X106294690Y-60400356D01*
X106350000Y-60383578D01*
X106405310Y-60400356D01*
G37*
X106405310Y-60400356D02*
X106475000Y-60407220D01*
X106758187Y-60407220D01*
X106826444Y-60491709D01*
X106921236Y-60570730D01*
X107029623Y-60629741D01*
X107115578Y-60656539D01*
X105780889Y-61991229D01*
X105757038Y-62010803D01*
X105701159Y-62078892D01*
X105678935Y-62105972D01*
X105620899Y-62214549D01*
X105585161Y-62332362D01*
X105573094Y-62454883D01*
X105576118Y-62485586D01*
X105576117Y-63469306D01*
X105573094Y-63500000D01*
X105576117Y-63530694D01*
X105576117Y-63530703D01*
X105585160Y-63622520D01*
X105620898Y-63740333D01*
X105678934Y-63848910D01*
X105757037Y-63944080D01*
X105780893Y-63963658D01*
X108214498Y-66397264D01*
X108214498Y-66480123D01*
X108057875Y-66323500D01*
X107947439Y-66333528D01*
X107829623Y-66370259D01*
X107721236Y-66429270D01*
X107626444Y-66508291D01*
X107558187Y-66592780D01*
X107541813Y-66592780D01*
X107473556Y-66508291D01*
X107378764Y-66429270D01*
X107270377Y-66370259D01*
X107152561Y-66333528D01*
X107042125Y-66323500D01*
X106885500Y-66480125D01*
X106885500Y-67614500D01*
X106905500Y-67614500D01*
X106905500Y-67885500D01*
X106885500Y-67885500D01*
X106885500Y-69019875D01*
X106925000Y-69059375D01*
X106925000Y-69074607D01*
X106899364Y-69105845D01*
X106796710Y-69297896D01*
X106733496Y-69506284D01*
X106717500Y-69668692D01*
X106717500Y-70539307D01*
X106717501Y-70539317D01*
X106717500Y-90836260D01*
X106661646Y-90866115D01*
X106569630Y-90941630D01*
X106494115Y-91033646D01*
X106438002Y-91138626D01*
X106403448Y-91252536D01*
X106391780Y-91370999D01*
X106391780Y-92271001D01*
X106403448Y-92389464D01*
X106438002Y-92503374D01*
X106494115Y-92608354D01*
X106569630Y-92700370D01*
X106661646Y-92775885D01*
X106717500Y-92805740D01*
X106717500Y-94855089D01*
X106318220Y-95254369D01*
X106318220Y-93765000D01*
X106311356Y-93695310D01*
X106291028Y-93628298D01*
X106258018Y-93566539D01*
X106213593Y-93512407D01*
X106159461Y-93467982D01*
X106097702Y-93434972D01*
X106030690Y-93414644D01*
X105961000Y-93407780D01*
X105899000Y-93407780D01*
X105899000Y-92795851D01*
X105936354Y-92775885D01*
X106028370Y-92700370D01*
X106103885Y-92608354D01*
X106159998Y-92503374D01*
X106194552Y-92389464D01*
X106206220Y-92271001D01*
X106206220Y-91370999D01*
X106194552Y-91252536D01*
X106159998Y-91138626D01*
X106103885Y-91033646D01*
X106028370Y-90941630D01*
X105936354Y-90866115D01*
X105831374Y-90810002D01*
X105717464Y-90775448D01*
X105599001Y-90763780D01*
X105146000Y-90763780D01*
X105146000Y-69783054D01*
X105174104Y-69791579D01*
X105283000Y-69802304D01*
X105391897Y-69791579D01*
X105496609Y-69759815D01*
X105593112Y-69708233D01*
X105677698Y-69638815D01*
X105747116Y-69554229D01*
X105798698Y-69457726D01*
X105830462Y-69353013D01*
X105838500Y-69271399D01*
X105838500Y-68907220D01*
X105958187Y-68907220D01*
X106026444Y-68991709D01*
X106121236Y-69070730D01*
X106229623Y-69129741D01*
X106347439Y-69166472D01*
X106457875Y-69176500D01*
X106614500Y-69019875D01*
X106614500Y-67885500D01*
X106594500Y-67885500D01*
X106594500Y-67614500D01*
X106614500Y-67614500D01*
X106614500Y-66480125D01*
X106457875Y-66323500D01*
X106347439Y-66333528D01*
X106229623Y-66370259D01*
X106121236Y-66429270D01*
X106026444Y-66508291D01*
X105958187Y-66592780D01*
X105831979Y-66592780D01*
X105863219Y-66534334D01*
X105898957Y-66416520D01*
X105908000Y-66324703D01*
X105908000Y-65943693D01*
X105911023Y-65912999D01*
X105908000Y-65882305D01*
X105908000Y-65882296D01*
X105898957Y-65790479D01*
X105863219Y-65672666D01*
X105805183Y-65564089D01*
X105781000Y-65534622D01*
X105781000Y-64266600D01*
X105784024Y-64235898D01*
X105781000Y-64205194D01*
X105771957Y-64113377D01*
X105736219Y-63995564D01*
X105678183Y-63886987D01*
X105600080Y-63791818D01*
X105576230Y-63772245D01*
X105283760Y-63479776D01*
X105264182Y-63455920D01*
X105169013Y-63377817D01*
X105060436Y-63319781D01*
X104942623Y-63284043D01*
X104857220Y-63275632D01*
X104857220Y-62825000D01*
X104850356Y-62755310D01*
X104833578Y-62700000D01*
X104850356Y-62644690D01*
X104857220Y-62575000D01*
X104857220Y-62025000D01*
X104850356Y-61955310D01*
X104833578Y-61900000D01*
X104850356Y-61844690D01*
X104857220Y-61775000D01*
X104857220Y-61225000D01*
X104850356Y-61155310D01*
X104833578Y-61100000D01*
X104850356Y-61044690D01*
X104857220Y-60975000D01*
X104857220Y-60425000D01*
X104855277Y-60405277D01*
X104875000Y-60407220D01*
X105425000Y-60407220D01*
X105494690Y-60400356D01*
X105550000Y-60383578D01*
X105605310Y-60400356D01*
X105675000Y-60407220D01*
X106225000Y-60407220D01*
X106294690Y-60400356D01*
X106350000Y-60383578D01*
X106405310Y-60400356D01*
G36*
X111218500Y-71430500D02*
G01*
X111238500Y-71430500D01*
X111238500Y-71701500D01*
X111218500Y-71701500D01*
X111218500Y-71721500D01*
X110947500Y-71721500D01*
X110947500Y-71701500D01*
X110927500Y-71701500D01*
X110927500Y-71430500D01*
X110947500Y-71430500D01*
X110947500Y-71410500D01*
X111218500Y-71410500D01*
X111218500Y-71430500D01*
G37*
X111218500Y-71430500D02*
X111238500Y-71430500D01*
X111238500Y-71701500D01*
X111218500Y-71701500D01*
X111218500Y-71721500D01*
X110947500Y-71721500D01*
X110947500Y-71701500D01*
X110927500Y-71701500D01*
X110927500Y-71430500D01*
X110947500Y-71430500D01*
X110947500Y-71410500D01*
X111218500Y-71410500D01*
X111218500Y-71430500D01*
G36*
X113402465Y-66776588D02*
G01*
X113563412Y-66937535D01*
X113752665Y-67063991D01*
X113962953Y-67151095D01*
X114186193Y-67195500D01*
X114413807Y-67195500D01*
X114637047Y-67151095D01*
X114650555Y-67145500D01*
X116489445Y-67145500D01*
X116502953Y-67151095D01*
X116726193Y-67195500D01*
X116953807Y-67195500D01*
X117177047Y-67151095D01*
X117387335Y-67063991D01*
X117475500Y-67005080D01*
X117475500Y-67614920D01*
X117387335Y-67556009D01*
X117177047Y-67468905D01*
X116953807Y-67424500D01*
X116726193Y-67424500D01*
X116502953Y-67468905D01*
X116489445Y-67474500D01*
X114650555Y-67474500D01*
X114637047Y-67468905D01*
X114413807Y-67424500D01*
X114186193Y-67424500D01*
X113962953Y-67468905D01*
X113752665Y-67556009D01*
X113563412Y-67682465D01*
X113402465Y-67843412D01*
X113276009Y-68032665D01*
X113188905Y-68242953D01*
X113144500Y-68466193D01*
X113144500Y-68693807D01*
X113188905Y-68917047D01*
X113276009Y-69127335D01*
X113402465Y-69316588D01*
X113563412Y-69477535D01*
X113752665Y-69603991D01*
X113962953Y-69691095D01*
X114186193Y-69735500D01*
X114413807Y-69735500D01*
X114637047Y-69691095D01*
X114650555Y-69685500D01*
X116489445Y-69685500D01*
X116502953Y-69691095D01*
X116726193Y-69735500D01*
X116953807Y-69735500D01*
X117177047Y-69691095D01*
X117387335Y-69603991D01*
X117475500Y-69545080D01*
X117475500Y-70154920D01*
X117387335Y-70096009D01*
X117177047Y-70008905D01*
X116953807Y-69964500D01*
X116726193Y-69964500D01*
X116502953Y-70008905D01*
X116489445Y-70014500D01*
X114650555Y-70014500D01*
X114637047Y-70008905D01*
X114413807Y-69964500D01*
X114186193Y-69964500D01*
X113962953Y-70008905D01*
X113752665Y-70096009D01*
X113563412Y-70222465D01*
X113402465Y-70383412D01*
X113276009Y-70572665D01*
X113188905Y-70782953D01*
X113144500Y-71006193D01*
X113144500Y-71233807D01*
X113159768Y-71310565D01*
X113143334Y-71301781D01*
X113025521Y-71266043D01*
X112940220Y-71257642D01*
X112940220Y-71133305D01*
X113028146Y-71061146D01*
X113106436Y-70965749D01*
X113164611Y-70856911D01*
X113200435Y-70738815D01*
X113212531Y-70616000D01*
X113209500Y-70458125D01*
X113052875Y-70301500D01*
X112318500Y-70301500D01*
X112318500Y-70321500D01*
X112047500Y-70321500D01*
X112047500Y-70301500D01*
X112027500Y-70301500D01*
X112027500Y-70030500D01*
X112047500Y-70030500D01*
X112047500Y-69246125D01*
X112318500Y-69246125D01*
X112318500Y-70030500D01*
X113052875Y-70030500D01*
X113209500Y-69873875D01*
X113212531Y-69716000D01*
X113200435Y-69593185D01*
X113164611Y-69475089D01*
X113106436Y-69366251D01*
X113028146Y-69270854D01*
X112932749Y-69192564D01*
X112823911Y-69134389D01*
X112705815Y-69098565D01*
X112583000Y-69086469D01*
X112475125Y-69089500D01*
X112318500Y-69246125D01*
X112047500Y-69246125D01*
X111890875Y-69089500D01*
X111783000Y-69086469D01*
X111660185Y-69098565D01*
X111542089Y-69134389D01*
X111433251Y-69192564D01*
X111337854Y-69270854D01*
X111265695Y-69358780D01*
X111159663Y-69358780D01*
X110708102Y-68907220D01*
X111025000Y-68907220D01*
X111094690Y-68900356D01*
X111161702Y-68880028D01*
X111223461Y-68847018D01*
X111277593Y-68802593D01*
X111322018Y-68748461D01*
X111355028Y-68686702D01*
X111375356Y-68619690D01*
X111382220Y-68550000D01*
X111382220Y-68475176D01*
X111401500Y-68378250D01*
X111401500Y-68273750D01*
X111382220Y-68176824D01*
X111382220Y-66950000D01*
X111380277Y-66930277D01*
X111400000Y-66932220D01*
X113000000Y-66932220D01*
X113069690Y-66925356D01*
X113136702Y-66905028D01*
X113198461Y-66872018D01*
X113252593Y-66827593D01*
X113297018Y-66773461D01*
X113330028Y-66711702D01*
X113339108Y-66681769D01*
X113402465Y-66776588D01*
G37*
X113402465Y-66776588D02*
X113563412Y-66937535D01*
X113752665Y-67063991D01*
X113962953Y-67151095D01*
X114186193Y-67195500D01*
X114413807Y-67195500D01*
X114637047Y-67151095D01*
X114650555Y-67145500D01*
X116489445Y-67145500D01*
X116502953Y-67151095D01*
X116726193Y-67195500D01*
X116953807Y-67195500D01*
X117177047Y-67151095D01*
X117387335Y-67063991D01*
X117475500Y-67005080D01*
X117475500Y-67614920D01*
X117387335Y-67556009D01*
X117177047Y-67468905D01*
X116953807Y-67424500D01*
X116726193Y-67424500D01*
X116502953Y-67468905D01*
X116489445Y-67474500D01*
X114650555Y-67474500D01*
X114637047Y-67468905D01*
X114413807Y-67424500D01*
X114186193Y-67424500D01*
X113962953Y-67468905D01*
X113752665Y-67556009D01*
X113563412Y-67682465D01*
X113402465Y-67843412D01*
X113276009Y-68032665D01*
X113188905Y-68242953D01*
X113144500Y-68466193D01*
X113144500Y-68693807D01*
X113188905Y-68917047D01*
X113276009Y-69127335D01*
X113402465Y-69316588D01*
X113563412Y-69477535D01*
X113752665Y-69603991D01*
X113962953Y-69691095D01*
X114186193Y-69735500D01*
X114413807Y-69735500D01*
X114637047Y-69691095D01*
X114650555Y-69685500D01*
X116489445Y-69685500D01*
X116502953Y-69691095D01*
X116726193Y-69735500D01*
X116953807Y-69735500D01*
X117177047Y-69691095D01*
X117387335Y-69603991D01*
X117475500Y-69545080D01*
X117475500Y-70154920D01*
X117387335Y-70096009D01*
X117177047Y-70008905D01*
X116953807Y-69964500D01*
X116726193Y-69964500D01*
X116502953Y-70008905D01*
X116489445Y-70014500D01*
X114650555Y-70014500D01*
X114637047Y-70008905D01*
X114413807Y-69964500D01*
X114186193Y-69964500D01*
X113962953Y-70008905D01*
X113752665Y-70096009D01*
X113563412Y-70222465D01*
X113402465Y-70383412D01*
X113276009Y-70572665D01*
X113188905Y-70782953D01*
X113144500Y-71006193D01*
X113144500Y-71233807D01*
X113159768Y-71310565D01*
X113143334Y-71301781D01*
X113025521Y-71266043D01*
X112940220Y-71257642D01*
X112940220Y-71133305D01*
X113028146Y-71061146D01*
X113106436Y-70965749D01*
X113164611Y-70856911D01*
X113200435Y-70738815D01*
X113212531Y-70616000D01*
X113209500Y-70458125D01*
X113052875Y-70301500D01*
X112318500Y-70301500D01*
X112318500Y-70321500D01*
X112047500Y-70321500D01*
X112047500Y-70301500D01*
X112027500Y-70301500D01*
X112027500Y-70030500D01*
X112047500Y-70030500D01*
X112047500Y-69246125D01*
X112318500Y-69246125D01*
X112318500Y-70030500D01*
X113052875Y-70030500D01*
X113209500Y-69873875D01*
X113212531Y-69716000D01*
X113200435Y-69593185D01*
X113164611Y-69475089D01*
X113106436Y-69366251D01*
X113028146Y-69270854D01*
X112932749Y-69192564D01*
X112823911Y-69134389D01*
X112705815Y-69098565D01*
X112583000Y-69086469D01*
X112475125Y-69089500D01*
X112318500Y-69246125D01*
X112047500Y-69246125D01*
X111890875Y-69089500D01*
X111783000Y-69086469D01*
X111660185Y-69098565D01*
X111542089Y-69134389D01*
X111433251Y-69192564D01*
X111337854Y-69270854D01*
X111265695Y-69358780D01*
X111159663Y-69358780D01*
X110708102Y-68907220D01*
X111025000Y-68907220D01*
X111094690Y-68900356D01*
X111161702Y-68880028D01*
X111223461Y-68847018D01*
X111277593Y-68802593D01*
X111322018Y-68748461D01*
X111355028Y-68686702D01*
X111375356Y-68619690D01*
X111382220Y-68550000D01*
X111382220Y-68475176D01*
X111401500Y-68378250D01*
X111401500Y-68273750D01*
X111382220Y-68176824D01*
X111382220Y-66950000D01*
X111380277Y-66930277D01*
X111400000Y-66932220D01*
X113000000Y-66932220D01*
X113069690Y-66925356D01*
X113136702Y-66905028D01*
X113198461Y-66872018D01*
X113252593Y-66827593D01*
X113297018Y-66773461D01*
X113330028Y-66711702D01*
X113339108Y-66681769D01*
X113402465Y-66776588D01*
G36*
X108485500Y-67614500D02*
G01*
X108505500Y-67614500D01*
X108505500Y-67885500D01*
X108485500Y-67885500D01*
X108485500Y-67905500D01*
X108214500Y-67905500D01*
X108214500Y-67885500D01*
X108194500Y-67885500D01*
X108194500Y-67614500D01*
X108214500Y-67614500D01*
X108214500Y-67594500D01*
X108485500Y-67594500D01*
X108485500Y-67614500D01*
G37*
X108485500Y-67614500D02*
X108505500Y-67614500D01*
X108505500Y-67885500D01*
X108485500Y-67885500D01*
X108485500Y-67905500D01*
X108214500Y-67905500D01*
X108214500Y-67885500D01*
X108194500Y-67885500D01*
X108194500Y-67614500D01*
X108214500Y-67614500D01*
X108214500Y-67594500D01*
X108485500Y-67594500D01*
X108485500Y-67614500D01*
G36*
X109895407Y-44617407D02*
G01*
X109850982Y-44671539D01*
X109817972Y-44733298D01*
X109797644Y-44800310D01*
X109790780Y-44870000D01*
X109790780Y-46570000D01*
X109797644Y-46639690D01*
X109817972Y-46706702D01*
X109850982Y-46768461D01*
X109895407Y-46822593D01*
X109949539Y-46867018D01*
X110011298Y-46900028D01*
X110078310Y-46920356D01*
X110148000Y-46927220D01*
X111848000Y-46927220D01*
X111917690Y-46920356D01*
X111984702Y-46900028D01*
X112046461Y-46867018D01*
X112100593Y-46822593D01*
X112145018Y-46768461D01*
X112178028Y-46706702D01*
X112198356Y-46639690D01*
X112205220Y-46570000D01*
X112205220Y-44870000D01*
X112198356Y-44800310D01*
X112178028Y-44733298D01*
X112145018Y-44671539D01*
X112100593Y-44617407D01*
X112050748Y-44576500D01*
X113148531Y-44576500D01*
X112966982Y-44651700D01*
X112769538Y-44783627D01*
X112601627Y-44951538D01*
X112469700Y-45148982D01*
X112378827Y-45368369D01*
X112332500Y-45601269D01*
X112332500Y-45838731D01*
X112378827Y-46071631D01*
X112469700Y-46291018D01*
X112601627Y-46488462D01*
X112769538Y-46656373D01*
X112966982Y-46788300D01*
X113186369Y-46879173D01*
X113419269Y-46925500D01*
X113656731Y-46925500D01*
X113889631Y-46879173D01*
X114109018Y-46788300D01*
X114306462Y-46656373D01*
X114474373Y-46488462D01*
X114606300Y-46291018D01*
X114697173Y-46071631D01*
X114743500Y-45838731D01*
X114743500Y-45601269D01*
X114697173Y-45368369D01*
X114606300Y-45148982D01*
X114474373Y-44951538D01*
X114306462Y-44783627D01*
X114109018Y-44651700D01*
X113927469Y-44576500D01*
X115688531Y-44576500D01*
X115506982Y-44651700D01*
X115309538Y-44783627D01*
X115141627Y-44951538D01*
X115009700Y-45148982D01*
X114918827Y-45368369D01*
X114872500Y-45601269D01*
X114872500Y-45838731D01*
X114918827Y-46071631D01*
X115009700Y-46291018D01*
X115141627Y-46488462D01*
X115309538Y-46656373D01*
X115506982Y-46788300D01*
X115726369Y-46879173D01*
X115959269Y-46925500D01*
X116196731Y-46925500D01*
X116429631Y-46879173D01*
X116649018Y-46788300D01*
X116846462Y-46656373D01*
X117014373Y-46488462D01*
X117146300Y-46291018D01*
X117237173Y-46071631D01*
X117283500Y-45838731D01*
X117283500Y-45601269D01*
X117237173Y-45368369D01*
X117146300Y-45148982D01*
X117014373Y-44951538D01*
X116846462Y-44783627D01*
X116649018Y-44651700D01*
X116467469Y-44576500D01*
X117475500Y-44576500D01*
X117475500Y-49834920D01*
X117387335Y-49776009D01*
X117177047Y-49688905D01*
X116953807Y-49644500D01*
X116726193Y-49644500D01*
X116502953Y-49688905D01*
X116489445Y-49694500D01*
X114650555Y-49694500D01*
X114637047Y-49688905D01*
X114413807Y-49644500D01*
X114186193Y-49644500D01*
X113962953Y-49688905D01*
X113752665Y-49776009D01*
X113563412Y-49902465D01*
X113402465Y-50063412D01*
X113276009Y-50252665D01*
X113188905Y-50462953D01*
X113144500Y-50686193D01*
X113144500Y-50913807D01*
X113188905Y-51137047D01*
X113276009Y-51347335D01*
X113402465Y-51536588D01*
X113563412Y-51697535D01*
X113752665Y-51823991D01*
X113962953Y-51911095D01*
X114186193Y-51955500D01*
X114413807Y-51955500D01*
X114637047Y-51911095D01*
X114650555Y-51905500D01*
X116489445Y-51905500D01*
X116502953Y-51911095D01*
X116726193Y-51955500D01*
X116953807Y-51955500D01*
X117177047Y-51911095D01*
X117387335Y-51823991D01*
X117475500Y-51765080D01*
X117475500Y-52374920D01*
X117387335Y-52316009D01*
X117177047Y-52228905D01*
X116953807Y-52184500D01*
X116726193Y-52184500D01*
X116502953Y-52228905D01*
X116489445Y-52234500D01*
X114650555Y-52234500D01*
X114637047Y-52228905D01*
X114413807Y-52184500D01*
X114186193Y-52184500D01*
X113962953Y-52228905D01*
X113752665Y-52316009D01*
X113563412Y-52442465D01*
X113402465Y-52603412D01*
X113276009Y-52792665D01*
X113188905Y-53002953D01*
X113144500Y-53226193D01*
X113144500Y-53453807D01*
X113188905Y-53677047D01*
X113276009Y-53887335D01*
X113402465Y-54076588D01*
X113563412Y-54237535D01*
X113752665Y-54363991D01*
X113962953Y-54451095D01*
X114186193Y-54495500D01*
X114413807Y-54495500D01*
X114637047Y-54451095D01*
X114650555Y-54445500D01*
X116489445Y-54445500D01*
X116502953Y-54451095D01*
X116726193Y-54495500D01*
X116953807Y-54495500D01*
X117177047Y-54451095D01*
X117387335Y-54363991D01*
X117475500Y-54305080D01*
X117475500Y-54914920D01*
X117387335Y-54856009D01*
X117177047Y-54768905D01*
X116953807Y-54724500D01*
X116726193Y-54724500D01*
X116502953Y-54768905D01*
X116489445Y-54774500D01*
X114650555Y-54774500D01*
X114637047Y-54768905D01*
X114413807Y-54724500D01*
X114186193Y-54724500D01*
X113962953Y-54768905D01*
X113752665Y-54856009D01*
X113563412Y-54982465D01*
X113402465Y-55143412D01*
X113276009Y-55332665D01*
X113188905Y-55542953D01*
X113144500Y-55766193D01*
X113144500Y-55993807D01*
X113188905Y-56217047D01*
X113276009Y-56427335D01*
X113402465Y-56616588D01*
X113563412Y-56777535D01*
X113752665Y-56903991D01*
X113962953Y-56991095D01*
X114186193Y-57035500D01*
X114413807Y-57035500D01*
X114637047Y-56991095D01*
X114650555Y-56985500D01*
X116489445Y-56985500D01*
X116502953Y-56991095D01*
X116726193Y-57035500D01*
X116953807Y-57035500D01*
X117177047Y-56991095D01*
X117387335Y-56903991D01*
X117475500Y-56845080D01*
X117475500Y-57454920D01*
X117387335Y-57396009D01*
X117177047Y-57308905D01*
X116953807Y-57264500D01*
X116726193Y-57264500D01*
X116502953Y-57308905D01*
X116489445Y-57314500D01*
X114650555Y-57314500D01*
X114637047Y-57308905D01*
X114413807Y-57264500D01*
X114186193Y-57264500D01*
X113962953Y-57308905D01*
X113752665Y-57396009D01*
X113563412Y-57522465D01*
X113402465Y-57683412D01*
X113276009Y-57872665D01*
X113188905Y-58082953D01*
X113144500Y-58306193D01*
X113144500Y-58533807D01*
X113188905Y-58757047D01*
X113276009Y-58967335D01*
X113402465Y-59156588D01*
X113563412Y-59317535D01*
X113752665Y-59443991D01*
X113962953Y-59531095D01*
X114186193Y-59575500D01*
X114413807Y-59575500D01*
X114637047Y-59531095D01*
X114650555Y-59525500D01*
X116489445Y-59525500D01*
X116502953Y-59531095D01*
X116726193Y-59575500D01*
X116953807Y-59575500D01*
X117177047Y-59531095D01*
X117387335Y-59443991D01*
X117475500Y-59385080D01*
X117475500Y-59994920D01*
X117387335Y-59936009D01*
X117177047Y-59848905D01*
X116953807Y-59804500D01*
X116726193Y-59804500D01*
X116502953Y-59848905D01*
X116489445Y-59854500D01*
X114650555Y-59854500D01*
X114637047Y-59848905D01*
X114413807Y-59804500D01*
X114186193Y-59804500D01*
X113962953Y-59848905D01*
X113752665Y-59936009D01*
X113563412Y-60062465D01*
X113402465Y-60223412D01*
X113339108Y-60318231D01*
X113330028Y-60288298D01*
X113297018Y-60226539D01*
X113252593Y-60172407D01*
X113198461Y-60127982D01*
X113136702Y-60094972D01*
X113129500Y-60092787D01*
X113129500Y-59078586D01*
X113131823Y-59055000D01*
X113129500Y-59031413D01*
X113129500Y-59031403D01*
X113122547Y-58960806D01*
X113095071Y-58870231D01*
X113059517Y-58803714D01*
X113050453Y-58786756D01*
X113005450Y-58731920D01*
X113005447Y-58731917D01*
X112990408Y-58713592D01*
X112972083Y-58698553D01*
X112132736Y-57859207D01*
X112103123Y-57787714D01*
X112045066Y-57700826D01*
X112014725Y-57670485D01*
X112072374Y-57652998D01*
X112177354Y-57596885D01*
X112269370Y-57521370D01*
X112344885Y-57429354D01*
X112400998Y-57324374D01*
X112435552Y-57210464D01*
X112447220Y-57092001D01*
X112447220Y-56191999D01*
X112435552Y-56073536D01*
X112400998Y-55959626D01*
X112344885Y-55854646D01*
X112269370Y-55762630D01*
X112180260Y-55689500D01*
X112269370Y-55616370D01*
X112344885Y-55524354D01*
X112400998Y-55419374D01*
X112435552Y-55305464D01*
X112447220Y-55187001D01*
X112447220Y-54286999D01*
X112435552Y-54168536D01*
X112400998Y-54054626D01*
X112344885Y-53949646D01*
X112269370Y-53857630D01*
X112180260Y-53784500D01*
X112269370Y-53711370D01*
X112344885Y-53619354D01*
X112400998Y-53514374D01*
X112435552Y-53400464D01*
X112447220Y-53282001D01*
X112447220Y-52381999D01*
X112435552Y-52263536D01*
X112400998Y-52149626D01*
X112344885Y-52044646D01*
X112269370Y-51952630D01*
X112177354Y-51877115D01*
X112072374Y-51821002D01*
X111958464Y-51786448D01*
X111840001Y-51774780D01*
X111189999Y-51774780D01*
X111071536Y-51786448D01*
X110957626Y-51821002D01*
X110852646Y-51877115D01*
X110760630Y-51952630D01*
X110685115Y-52044646D01*
X110664691Y-52082857D01*
X110657435Y-52009185D01*
X110621611Y-51891089D01*
X110563436Y-51782251D01*
X110485146Y-51686854D01*
X110389749Y-51608564D01*
X110280911Y-51550389D01*
X110162815Y-51514565D01*
X110040000Y-51502469D01*
X109757125Y-51505500D01*
X109600500Y-51662125D01*
X109600500Y-52696500D01*
X109620500Y-52696500D01*
X109620500Y-52967500D01*
X109600500Y-52967500D01*
X109600500Y-54601500D01*
X109620500Y-54601500D01*
X109620500Y-54872500D01*
X109600500Y-54872500D01*
X109600500Y-56506500D01*
X109620500Y-56506500D01*
X109620500Y-56777500D01*
X109600500Y-56777500D01*
X109600500Y-56797500D01*
X109329500Y-56797500D01*
X109329500Y-56777500D01*
X108420125Y-56777500D01*
X108381754Y-56815871D01*
X108256220Y-56690338D01*
X108256220Y-56191999D01*
X108244552Y-56073536D01*
X108209998Y-55959626D01*
X108153885Y-55854646D01*
X108078370Y-55762630D01*
X107989260Y-55689500D01*
X108078370Y-55616370D01*
X108153885Y-55524354D01*
X108200576Y-55437000D01*
X108260469Y-55437000D01*
X108272565Y-55559815D01*
X108308389Y-55677911D01*
X108314583Y-55689500D01*
X108308389Y-55701089D01*
X108272565Y-55819185D01*
X108260469Y-55942000D01*
X108263500Y-56349875D01*
X108420125Y-56506500D01*
X109329500Y-56506500D01*
X109329500Y-54872500D01*
X108420125Y-54872500D01*
X108263500Y-55029125D01*
X108260469Y-55437000D01*
X108200576Y-55437000D01*
X108209998Y-55419374D01*
X108244552Y-55305464D01*
X108256220Y-55187001D01*
X108256220Y-54286999D01*
X108244552Y-54168536D01*
X108209998Y-54054626D01*
X108153885Y-53949646D01*
X108078370Y-53857630D01*
X107993424Y-53787917D01*
X107995354Y-53786885D01*
X108087370Y-53711370D01*
X108162885Y-53619354D01*
X108218998Y-53514374D01*
X108253552Y-53400464D01*
X108262091Y-53313772D01*
X108260469Y-53532000D01*
X108272565Y-53654815D01*
X108308389Y-53772911D01*
X108314583Y-53784500D01*
X108308389Y-53796089D01*
X108272565Y-53914185D01*
X108260469Y-54037000D01*
X108263500Y-54444875D01*
X108420125Y-54601500D01*
X109329500Y-54601500D01*
X109329500Y-52967500D01*
X109309500Y-52967500D01*
X109309500Y-52696500D01*
X109329500Y-52696500D01*
X109329500Y-51662125D01*
X109172875Y-51505500D01*
X108890000Y-51502469D01*
X108767185Y-51514565D01*
X108649089Y-51550389D01*
X108540251Y-51608564D01*
X108444854Y-51686854D01*
X108366564Y-51782251D01*
X108308389Y-51891089D01*
X108272565Y-52009185D01*
X108260469Y-52132000D01*
X108262091Y-52350228D01*
X108253552Y-52263536D01*
X108218998Y-52149626D01*
X108162885Y-52044646D01*
X108087370Y-51952630D01*
X107995354Y-51877115D01*
X107890374Y-51821002D01*
X107776464Y-51786448D01*
X107658001Y-51774780D01*
X107007999Y-51774780D01*
X106913490Y-51784089D01*
X106913490Y-48065280D01*
X107466445Y-47512326D01*
X107489448Y-47493448D01*
X107564802Y-47401629D01*
X107620794Y-47296874D01*
X107644814Y-47217690D01*
X107655274Y-47183210D01*
X107663192Y-47102817D01*
X107664000Y-47094616D01*
X107664000Y-47094609D01*
X107666916Y-47065001D01*
X107664000Y-47035393D01*
X107664000Y-46927220D01*
X107911000Y-46927220D01*
X107980690Y-46920356D01*
X108047702Y-46900028D01*
X108109461Y-46867018D01*
X108163593Y-46822593D01*
X108208018Y-46768461D01*
X108241028Y-46706702D01*
X108261356Y-46639690D01*
X108268220Y-46570000D01*
X108268220Y-44870000D01*
X108261356Y-44800310D01*
X108241028Y-44733298D01*
X108208018Y-44671539D01*
X108163593Y-44617407D01*
X108113748Y-44576500D01*
X109945252Y-44576500D01*
X109895407Y-44617407D01*
G37*
X109895407Y-44617407D02*
X109850982Y-44671539D01*
X109817972Y-44733298D01*
X109797644Y-44800310D01*
X109790780Y-44870000D01*
X109790780Y-46570000D01*
X109797644Y-46639690D01*
X109817972Y-46706702D01*
X109850982Y-46768461D01*
X109895407Y-46822593D01*
X109949539Y-46867018D01*
X110011298Y-46900028D01*
X110078310Y-46920356D01*
X110148000Y-46927220D01*
X111848000Y-46927220D01*
X111917690Y-46920356D01*
X111984702Y-46900028D01*
X112046461Y-46867018D01*
X112100593Y-46822593D01*
X112145018Y-46768461D01*
X112178028Y-46706702D01*
X112198356Y-46639690D01*
X112205220Y-46570000D01*
X112205220Y-44870000D01*
X112198356Y-44800310D01*
X112178028Y-44733298D01*
X112145018Y-44671539D01*
X112100593Y-44617407D01*
X112050748Y-44576500D01*
X113148531Y-44576500D01*
X112966982Y-44651700D01*
X112769538Y-44783627D01*
X112601627Y-44951538D01*
X112469700Y-45148982D01*
X112378827Y-45368369D01*
X112332500Y-45601269D01*
X112332500Y-45838731D01*
X112378827Y-46071631D01*
X112469700Y-46291018D01*
X112601627Y-46488462D01*
X112769538Y-46656373D01*
X112966982Y-46788300D01*
X113186369Y-46879173D01*
X113419269Y-46925500D01*
X113656731Y-46925500D01*
X113889631Y-46879173D01*
X114109018Y-46788300D01*
X114306462Y-46656373D01*
X114474373Y-46488462D01*
X114606300Y-46291018D01*
X114697173Y-46071631D01*
X114743500Y-45838731D01*
X114743500Y-45601269D01*
X114697173Y-45368369D01*
X114606300Y-45148982D01*
X114474373Y-44951538D01*
X114306462Y-44783627D01*
X114109018Y-44651700D01*
X113927469Y-44576500D01*
X115688531Y-44576500D01*
X115506982Y-44651700D01*
X115309538Y-44783627D01*
X115141627Y-44951538D01*
X115009700Y-45148982D01*
X114918827Y-45368369D01*
X114872500Y-45601269D01*
X114872500Y-45838731D01*
X114918827Y-46071631D01*
X115009700Y-46291018D01*
X115141627Y-46488462D01*
X115309538Y-46656373D01*
X115506982Y-46788300D01*
X115726369Y-46879173D01*
X115959269Y-46925500D01*
X116196731Y-46925500D01*
X116429631Y-46879173D01*
X116649018Y-46788300D01*
X116846462Y-46656373D01*
X117014373Y-46488462D01*
X117146300Y-46291018D01*
X117237173Y-46071631D01*
X117283500Y-45838731D01*
X117283500Y-45601269D01*
X117237173Y-45368369D01*
X117146300Y-45148982D01*
X117014373Y-44951538D01*
X116846462Y-44783627D01*
X116649018Y-44651700D01*
X116467469Y-44576500D01*
X117475500Y-44576500D01*
X117475500Y-49834920D01*
X117387335Y-49776009D01*
X117177047Y-49688905D01*
X116953807Y-49644500D01*
X116726193Y-49644500D01*
X116502953Y-49688905D01*
X116489445Y-49694500D01*
X114650555Y-49694500D01*
X114637047Y-49688905D01*
X114413807Y-49644500D01*
X114186193Y-49644500D01*
X113962953Y-49688905D01*
X113752665Y-49776009D01*
X113563412Y-49902465D01*
X113402465Y-50063412D01*
X113276009Y-50252665D01*
X113188905Y-50462953D01*
X113144500Y-50686193D01*
X113144500Y-50913807D01*
X113188905Y-51137047D01*
X113276009Y-51347335D01*
X113402465Y-51536588D01*
X113563412Y-51697535D01*
X113752665Y-51823991D01*
X113962953Y-51911095D01*
X114186193Y-51955500D01*
X114413807Y-51955500D01*
X114637047Y-51911095D01*
X114650555Y-51905500D01*
X116489445Y-51905500D01*
X116502953Y-51911095D01*
X116726193Y-51955500D01*
X116953807Y-51955500D01*
X117177047Y-51911095D01*
X117387335Y-51823991D01*
X117475500Y-51765080D01*
X117475500Y-52374920D01*
X117387335Y-52316009D01*
X117177047Y-52228905D01*
X116953807Y-52184500D01*
X116726193Y-52184500D01*
X116502953Y-52228905D01*
X116489445Y-52234500D01*
X114650555Y-52234500D01*
X114637047Y-52228905D01*
X114413807Y-52184500D01*
X114186193Y-52184500D01*
X113962953Y-52228905D01*
X113752665Y-52316009D01*
X113563412Y-52442465D01*
X113402465Y-52603412D01*
X113276009Y-52792665D01*
X113188905Y-53002953D01*
X113144500Y-53226193D01*
X113144500Y-53453807D01*
X113188905Y-53677047D01*
X113276009Y-53887335D01*
X113402465Y-54076588D01*
X113563412Y-54237535D01*
X113752665Y-54363991D01*
X113962953Y-54451095D01*
X114186193Y-54495500D01*
X114413807Y-54495500D01*
X114637047Y-54451095D01*
X114650555Y-54445500D01*
X116489445Y-54445500D01*
X116502953Y-54451095D01*
X116726193Y-54495500D01*
X116953807Y-54495500D01*
X117177047Y-54451095D01*
X117387335Y-54363991D01*
X117475500Y-54305080D01*
X117475500Y-54914920D01*
X117387335Y-54856009D01*
X117177047Y-54768905D01*
X116953807Y-54724500D01*
X116726193Y-54724500D01*
X116502953Y-54768905D01*
X116489445Y-54774500D01*
X114650555Y-54774500D01*
X114637047Y-54768905D01*
X114413807Y-54724500D01*
X114186193Y-54724500D01*
X113962953Y-54768905D01*
X113752665Y-54856009D01*
X113563412Y-54982465D01*
X113402465Y-55143412D01*
X113276009Y-55332665D01*
X113188905Y-55542953D01*
X113144500Y-55766193D01*
X113144500Y-55993807D01*
X113188905Y-56217047D01*
X113276009Y-56427335D01*
X113402465Y-56616588D01*
X113563412Y-56777535D01*
X113752665Y-56903991D01*
X113962953Y-56991095D01*
X114186193Y-57035500D01*
X114413807Y-57035500D01*
X114637047Y-56991095D01*
X114650555Y-56985500D01*
X116489445Y-56985500D01*
X116502953Y-56991095D01*
X116726193Y-57035500D01*
X116953807Y-57035500D01*
X117177047Y-56991095D01*
X117387335Y-56903991D01*
X117475500Y-56845080D01*
X117475500Y-57454920D01*
X117387335Y-57396009D01*
X117177047Y-57308905D01*
X116953807Y-57264500D01*
X116726193Y-57264500D01*
X116502953Y-57308905D01*
X116489445Y-57314500D01*
X114650555Y-57314500D01*
X114637047Y-57308905D01*
X114413807Y-57264500D01*
X114186193Y-57264500D01*
X113962953Y-57308905D01*
X113752665Y-57396009D01*
X113563412Y-57522465D01*
X113402465Y-57683412D01*
X113276009Y-57872665D01*
X113188905Y-58082953D01*
X113144500Y-58306193D01*
X113144500Y-58533807D01*
X113188905Y-58757047D01*
X113276009Y-58967335D01*
X113402465Y-59156588D01*
X113563412Y-59317535D01*
X113752665Y-59443991D01*
X113962953Y-59531095D01*
X114186193Y-59575500D01*
X114413807Y-59575500D01*
X114637047Y-59531095D01*
X114650555Y-59525500D01*
X116489445Y-59525500D01*
X116502953Y-59531095D01*
X116726193Y-59575500D01*
X116953807Y-59575500D01*
X117177047Y-59531095D01*
X117387335Y-59443991D01*
X117475500Y-59385080D01*
X117475500Y-59994920D01*
X117387335Y-59936009D01*
X117177047Y-59848905D01*
X116953807Y-59804500D01*
X116726193Y-59804500D01*
X116502953Y-59848905D01*
X116489445Y-59854500D01*
X114650555Y-59854500D01*
X114637047Y-59848905D01*
X114413807Y-59804500D01*
X114186193Y-59804500D01*
X113962953Y-59848905D01*
X113752665Y-59936009D01*
X113563412Y-60062465D01*
X113402465Y-60223412D01*
X113339108Y-60318231D01*
X113330028Y-60288298D01*
X113297018Y-60226539D01*
X113252593Y-60172407D01*
X113198461Y-60127982D01*
X113136702Y-60094972D01*
X113129500Y-60092787D01*
X113129500Y-59078586D01*
X113131823Y-59055000D01*
X113129500Y-59031413D01*
X113129500Y-59031403D01*
X113122547Y-58960806D01*
X113095071Y-58870231D01*
X113059517Y-58803714D01*
X113050453Y-58786756D01*
X113005450Y-58731920D01*
X113005447Y-58731917D01*
X112990408Y-58713592D01*
X112972083Y-58698553D01*
X112132736Y-57859207D01*
X112103123Y-57787714D01*
X112045066Y-57700826D01*
X112014725Y-57670485D01*
X112072374Y-57652998D01*
X112177354Y-57596885D01*
X112269370Y-57521370D01*
X112344885Y-57429354D01*
X112400998Y-57324374D01*
X112435552Y-57210464D01*
X112447220Y-57092001D01*
X112447220Y-56191999D01*
X112435552Y-56073536D01*
X112400998Y-55959626D01*
X112344885Y-55854646D01*
X112269370Y-55762630D01*
X112180260Y-55689500D01*
X112269370Y-55616370D01*
X112344885Y-55524354D01*
X112400998Y-55419374D01*
X112435552Y-55305464D01*
X112447220Y-55187001D01*
X112447220Y-54286999D01*
X112435552Y-54168536D01*
X112400998Y-54054626D01*
X112344885Y-53949646D01*
X112269370Y-53857630D01*
X112180260Y-53784500D01*
X112269370Y-53711370D01*
X112344885Y-53619354D01*
X112400998Y-53514374D01*
X112435552Y-53400464D01*
X112447220Y-53282001D01*
X112447220Y-52381999D01*
X112435552Y-52263536D01*
X112400998Y-52149626D01*
X112344885Y-52044646D01*
X112269370Y-51952630D01*
X112177354Y-51877115D01*
X112072374Y-51821002D01*
X111958464Y-51786448D01*
X111840001Y-51774780D01*
X111189999Y-51774780D01*
X111071536Y-51786448D01*
X110957626Y-51821002D01*
X110852646Y-51877115D01*
X110760630Y-51952630D01*
X110685115Y-52044646D01*
X110664691Y-52082857D01*
X110657435Y-52009185D01*
X110621611Y-51891089D01*
X110563436Y-51782251D01*
X110485146Y-51686854D01*
X110389749Y-51608564D01*
X110280911Y-51550389D01*
X110162815Y-51514565D01*
X110040000Y-51502469D01*
X109757125Y-51505500D01*
X109600500Y-51662125D01*
X109600500Y-52696500D01*
X109620500Y-52696500D01*
X109620500Y-52967500D01*
X109600500Y-52967500D01*
X109600500Y-54601500D01*
X109620500Y-54601500D01*
X109620500Y-54872500D01*
X109600500Y-54872500D01*
X109600500Y-56506500D01*
X109620500Y-56506500D01*
X109620500Y-56777500D01*
X109600500Y-56777500D01*
X109600500Y-56797500D01*
X109329500Y-56797500D01*
X109329500Y-56777500D01*
X108420125Y-56777500D01*
X108381754Y-56815871D01*
X108256220Y-56690338D01*
X108256220Y-56191999D01*
X108244552Y-56073536D01*
X108209998Y-55959626D01*
X108153885Y-55854646D01*
X108078370Y-55762630D01*
X107989260Y-55689500D01*
X108078370Y-55616370D01*
X108153885Y-55524354D01*
X108200576Y-55437000D01*
X108260469Y-55437000D01*
X108272565Y-55559815D01*
X108308389Y-55677911D01*
X108314583Y-55689500D01*
X108308389Y-55701089D01*
X108272565Y-55819185D01*
X108260469Y-55942000D01*
X108263500Y-56349875D01*
X108420125Y-56506500D01*
X109329500Y-56506500D01*
X109329500Y-54872500D01*
X108420125Y-54872500D01*
X108263500Y-55029125D01*
X108260469Y-55437000D01*
X108200576Y-55437000D01*
X108209998Y-55419374D01*
X108244552Y-55305464D01*
X108256220Y-55187001D01*
X108256220Y-54286999D01*
X108244552Y-54168536D01*
X108209998Y-54054626D01*
X108153885Y-53949646D01*
X108078370Y-53857630D01*
X107993424Y-53787917D01*
X107995354Y-53786885D01*
X108087370Y-53711370D01*
X108162885Y-53619354D01*
X108218998Y-53514374D01*
X108253552Y-53400464D01*
X108262091Y-53313772D01*
X108260469Y-53532000D01*
X108272565Y-53654815D01*
X108308389Y-53772911D01*
X108314583Y-53784500D01*
X108308389Y-53796089D01*
X108272565Y-53914185D01*
X108260469Y-54037000D01*
X108263500Y-54444875D01*
X108420125Y-54601500D01*
X109329500Y-54601500D01*
X109329500Y-52967500D01*
X109309500Y-52967500D01*
X109309500Y-52696500D01*
X109329500Y-52696500D01*
X109329500Y-51662125D01*
X109172875Y-51505500D01*
X108890000Y-51502469D01*
X108767185Y-51514565D01*
X108649089Y-51550389D01*
X108540251Y-51608564D01*
X108444854Y-51686854D01*
X108366564Y-51782251D01*
X108308389Y-51891089D01*
X108272565Y-52009185D01*
X108260469Y-52132000D01*
X108262091Y-52350228D01*
X108253552Y-52263536D01*
X108218998Y-52149626D01*
X108162885Y-52044646D01*
X108087370Y-51952630D01*
X107995354Y-51877115D01*
X107890374Y-51821002D01*
X107776464Y-51786448D01*
X107658001Y-51774780D01*
X107007999Y-51774780D01*
X106913490Y-51784089D01*
X106913490Y-48065280D01*
X107466445Y-47512326D01*
X107489448Y-47493448D01*
X107564802Y-47401629D01*
X107620794Y-47296874D01*
X107644814Y-47217690D01*
X107655274Y-47183210D01*
X107663192Y-47102817D01*
X107664000Y-47094616D01*
X107664000Y-47094609D01*
X107666916Y-47065001D01*
X107664000Y-47035393D01*
X107664000Y-46927220D01*
X107911000Y-46927220D01*
X107980690Y-46920356D01*
X108047702Y-46900028D01*
X108109461Y-46867018D01*
X108163593Y-46822593D01*
X108208018Y-46768461D01*
X108241028Y-46706702D01*
X108261356Y-46639690D01*
X108268220Y-46570000D01*
X108268220Y-44870000D01*
X108261356Y-44800310D01*
X108241028Y-44733298D01*
X108208018Y-44671539D01*
X108163593Y-44617407D01*
X108113748Y-44576500D01*
X109945252Y-44576500D01*
X109895407Y-44617407D01*
G36*
X106494115Y-57429354D02*
G01*
X106569630Y-57521370D01*
X106661646Y-57596885D01*
X106766626Y-57652998D01*
X106880536Y-57687552D01*
X106998999Y-57699220D01*
X107497337Y-57699220D01*
X107725001Y-57926884D01*
X107725001Y-57940624D01*
X107685500Y-57980125D01*
X107685500Y-59114500D01*
X107705500Y-59114500D01*
X107705500Y-59385500D01*
X107685500Y-59385500D01*
X107685500Y-59405500D01*
X107414500Y-59405500D01*
X107414500Y-59385500D01*
X107394500Y-59385500D01*
X107394500Y-59114500D01*
X107414500Y-59114500D01*
X107414500Y-57980125D01*
X107257875Y-57823500D01*
X107147439Y-57833528D01*
X107029623Y-57870259D01*
X106921236Y-57929270D01*
X106826444Y-58008291D01*
X106758187Y-58092780D01*
X106542387Y-58092780D01*
X106530219Y-58052666D01*
X106472183Y-57944089D01*
X106394080Y-57848920D01*
X106370230Y-57829347D01*
X106309419Y-57768536D01*
X106372436Y-57691749D01*
X106430611Y-57582911D01*
X106466435Y-57464815D01*
X106473691Y-57391143D01*
X106494115Y-57429354D01*
G37*
X106494115Y-57429354D02*
X106569630Y-57521370D01*
X106661646Y-57596885D01*
X106766626Y-57652998D01*
X106880536Y-57687552D01*
X106998999Y-57699220D01*
X107497337Y-57699220D01*
X107725001Y-57926884D01*
X107725001Y-57940624D01*
X107685500Y-57980125D01*
X107685500Y-59114500D01*
X107705500Y-59114500D01*
X107705500Y-59385500D01*
X107685500Y-59385500D01*
X107685500Y-59405500D01*
X107414500Y-59405500D01*
X107414500Y-59385500D01*
X107394500Y-59385500D01*
X107394500Y-59114500D01*
X107414500Y-59114500D01*
X107414500Y-57980125D01*
X107257875Y-57823500D01*
X107147439Y-57833528D01*
X107029623Y-57870259D01*
X106921236Y-57929270D01*
X106826444Y-58008291D01*
X106758187Y-58092780D01*
X106542387Y-58092780D01*
X106530219Y-58052666D01*
X106472183Y-57944089D01*
X106394080Y-57848920D01*
X106370230Y-57829347D01*
X106309419Y-57768536D01*
X106372436Y-57691749D01*
X106430611Y-57582911D01*
X106466435Y-57464815D01*
X106473691Y-57391143D01*
X106494115Y-57429354D01*
G36*
X98592407Y-44617407D02*
G01*
X98547982Y-44671539D01*
X98514972Y-44733298D01*
X98494644Y-44800310D01*
X98487780Y-44870000D01*
X98487780Y-46570000D01*
X98494644Y-46639690D01*
X98514972Y-46706702D01*
X98547982Y-46768461D01*
X98592407Y-46822593D01*
X98646539Y-46867018D01*
X98708298Y-46900028D01*
X98775310Y-46920356D01*
X98845000Y-46927220D01*
X100545000Y-46927220D01*
X100614690Y-46920356D01*
X100681702Y-46900028D01*
X100743461Y-46867018D01*
X100797593Y-46822593D01*
X100842018Y-46768461D01*
X100875028Y-46706702D01*
X100895356Y-46639690D01*
X100902220Y-46570000D01*
X100902220Y-44870000D01*
X100895356Y-44800310D01*
X100875028Y-44733298D01*
X100842018Y-44671539D01*
X100797593Y-44617407D01*
X100747748Y-44576500D01*
X102325252Y-44576500D01*
X102275407Y-44617407D01*
X102230982Y-44671539D01*
X102197972Y-44733298D01*
X102177644Y-44800310D01*
X102170780Y-44870000D01*
X102170780Y-46570000D01*
X102177644Y-46639690D01*
X102197972Y-46706702D01*
X102230982Y-46768461D01*
X102275407Y-46822593D01*
X102329539Y-46867018D01*
X102391298Y-46900028D01*
X102458310Y-46920356D01*
X102528000Y-46927220D01*
X103701338Y-46927220D01*
X104658001Y-47883884D01*
X104658000Y-51857149D01*
X104620646Y-51877115D01*
X104528630Y-51952630D01*
X104453115Y-52044646D01*
X104397002Y-52149626D01*
X104362448Y-52263536D01*
X104350780Y-52381999D01*
X104350780Y-53282001D01*
X104362448Y-53400464D01*
X104397002Y-53514374D01*
X104453115Y-53619354D01*
X104528630Y-53711370D01*
X104613576Y-53781083D01*
X104611646Y-53782115D01*
X104519630Y-53857630D01*
X104444115Y-53949646D01*
X104388002Y-54054626D01*
X104353448Y-54168536D01*
X104341780Y-54286999D01*
X104341780Y-55187001D01*
X104353448Y-55305464D01*
X104382384Y-55400854D01*
X104349251Y-55418564D01*
X104253854Y-55496854D01*
X104175564Y-55592251D01*
X104117389Y-55701089D01*
X104081565Y-55819185D01*
X104069469Y-55942000D01*
X104072500Y-56349875D01*
X104229125Y-56506500D01*
X105138500Y-56506500D01*
X105138500Y-56486500D01*
X105409500Y-56486500D01*
X105409500Y-56506500D01*
X105429500Y-56506500D01*
X105429500Y-56777500D01*
X105409500Y-56777500D01*
X105409500Y-56797500D01*
X105138500Y-56797500D01*
X105138500Y-56777500D01*
X104229125Y-56777500D01*
X104110804Y-56895821D01*
X103474757Y-56259775D01*
X103455179Y-56235919D01*
X103360010Y-56157816D01*
X103251433Y-56099780D01*
X103133620Y-56064042D01*
X103041803Y-56054999D01*
X103041793Y-56054999D01*
X103011099Y-56051976D01*
X102980405Y-56054999D01*
X102743328Y-56054999D01*
X102755500Y-55993807D01*
X102755500Y-55766193D01*
X102711095Y-55542953D01*
X102623991Y-55332665D01*
X102497535Y-55143412D01*
X102336588Y-54982465D01*
X102147335Y-54856009D01*
X101937047Y-54768905D01*
X101713807Y-54724500D01*
X101486193Y-54724500D01*
X101262953Y-54768905D01*
X101249445Y-54774500D01*
X99410555Y-54774500D01*
X99397047Y-54768905D01*
X99173807Y-54724500D01*
X98946193Y-54724500D01*
X98722953Y-54768905D01*
X98512665Y-54856009D01*
X98424500Y-54914920D01*
X98424500Y-54305080D01*
X98512665Y-54363991D01*
X98722953Y-54451095D01*
X98946193Y-54495500D01*
X99173807Y-54495500D01*
X99397047Y-54451095D01*
X99410555Y-54445500D01*
X101249445Y-54445500D01*
X101262953Y-54451095D01*
X101486193Y-54495500D01*
X101713807Y-54495500D01*
X101937047Y-54451095D01*
X102147335Y-54363991D01*
X102336588Y-54237535D01*
X102497535Y-54076588D01*
X102623991Y-53887335D01*
X102711095Y-53677047D01*
X102755500Y-53453807D01*
X102755500Y-53226193D01*
X102711095Y-53002953D01*
X102623991Y-52792665D01*
X102497535Y-52603412D01*
X102336588Y-52442465D01*
X102147335Y-52316009D01*
X101937047Y-52228905D01*
X101925972Y-52226702D01*
X102400000Y-52229531D01*
X102522815Y-52217435D01*
X102640911Y-52181611D01*
X102749749Y-52123436D01*
X102845146Y-52045146D01*
X102923436Y-51949749D01*
X102981611Y-51840911D01*
X103017435Y-51722815D01*
X103029531Y-51600000D01*
X103026500Y-51092125D01*
X102869875Y-50935500D01*
X101735500Y-50935500D01*
X101735500Y-50955500D01*
X101464500Y-50955500D01*
X101464500Y-50935500D01*
X100330125Y-50935500D01*
X100330000Y-50935625D01*
X100329875Y-50935500D01*
X99195500Y-50935500D01*
X99195500Y-50955500D01*
X98924500Y-50955500D01*
X98924500Y-50935500D01*
X98904500Y-50935500D01*
X98904500Y-50664500D01*
X98924500Y-50664500D01*
X98924500Y-49530125D01*
X99195500Y-49530125D01*
X99195500Y-50664500D01*
X100329875Y-50664500D01*
X100330000Y-50664375D01*
X100330125Y-50664500D01*
X101464500Y-50664500D01*
X101464500Y-49530125D01*
X101735500Y-49530125D01*
X101735500Y-50664500D01*
X102869875Y-50664500D01*
X103026500Y-50507875D01*
X103029531Y-50000000D01*
X103017435Y-49877185D01*
X102981611Y-49759089D01*
X102923436Y-49650251D01*
X102845146Y-49554854D01*
X102749749Y-49476564D01*
X102640911Y-49418389D01*
X102522815Y-49382565D01*
X102400000Y-49370469D01*
X101892125Y-49373500D01*
X101735500Y-49530125D01*
X101464500Y-49530125D01*
X101307875Y-49373500D01*
X100800000Y-49370469D01*
X100677185Y-49382565D01*
X100559089Y-49418389D01*
X100450251Y-49476564D01*
X100354854Y-49554854D01*
X100330000Y-49585139D01*
X100305146Y-49554854D01*
X100209749Y-49476564D01*
X100100911Y-49418389D01*
X99982815Y-49382565D01*
X99860000Y-49370469D01*
X99352125Y-49373500D01*
X99195500Y-49530125D01*
X98924500Y-49530125D01*
X98767875Y-49373500D01*
X98424500Y-49371451D01*
X98424500Y-44576500D01*
X98642252Y-44576500D01*
X98592407Y-44617407D01*
G37*
X98592407Y-44617407D02*
X98547982Y-44671539D01*
X98514972Y-44733298D01*
X98494644Y-44800310D01*
X98487780Y-44870000D01*
X98487780Y-46570000D01*
X98494644Y-46639690D01*
X98514972Y-46706702D01*
X98547982Y-46768461D01*
X98592407Y-46822593D01*
X98646539Y-46867018D01*
X98708298Y-46900028D01*
X98775310Y-46920356D01*
X98845000Y-46927220D01*
X100545000Y-46927220D01*
X100614690Y-46920356D01*
X100681702Y-46900028D01*
X100743461Y-46867018D01*
X100797593Y-46822593D01*
X100842018Y-46768461D01*
X100875028Y-46706702D01*
X100895356Y-46639690D01*
X100902220Y-46570000D01*
X100902220Y-44870000D01*
X100895356Y-44800310D01*
X100875028Y-44733298D01*
X100842018Y-44671539D01*
X100797593Y-44617407D01*
X100747748Y-44576500D01*
X102325252Y-44576500D01*
X102275407Y-44617407D01*
X102230982Y-44671539D01*
X102197972Y-44733298D01*
X102177644Y-44800310D01*
X102170780Y-44870000D01*
X102170780Y-46570000D01*
X102177644Y-46639690D01*
X102197972Y-46706702D01*
X102230982Y-46768461D01*
X102275407Y-46822593D01*
X102329539Y-46867018D01*
X102391298Y-46900028D01*
X102458310Y-46920356D01*
X102528000Y-46927220D01*
X103701338Y-46927220D01*
X104658001Y-47883884D01*
X104658000Y-51857149D01*
X104620646Y-51877115D01*
X104528630Y-51952630D01*
X104453115Y-52044646D01*
X104397002Y-52149626D01*
X104362448Y-52263536D01*
X104350780Y-52381999D01*
X104350780Y-53282001D01*
X104362448Y-53400464D01*
X104397002Y-53514374D01*
X104453115Y-53619354D01*
X104528630Y-53711370D01*
X104613576Y-53781083D01*
X104611646Y-53782115D01*
X104519630Y-53857630D01*
X104444115Y-53949646D01*
X104388002Y-54054626D01*
X104353448Y-54168536D01*
X104341780Y-54286999D01*
X104341780Y-55187001D01*
X104353448Y-55305464D01*
X104382384Y-55400854D01*
X104349251Y-55418564D01*
X104253854Y-55496854D01*
X104175564Y-55592251D01*
X104117389Y-55701089D01*
X104081565Y-55819185D01*
X104069469Y-55942000D01*
X104072500Y-56349875D01*
X104229125Y-56506500D01*
X105138500Y-56506500D01*
X105138500Y-56486500D01*
X105409500Y-56486500D01*
X105409500Y-56506500D01*
X105429500Y-56506500D01*
X105429500Y-56777500D01*
X105409500Y-56777500D01*
X105409500Y-56797500D01*
X105138500Y-56797500D01*
X105138500Y-56777500D01*
X104229125Y-56777500D01*
X104110804Y-56895821D01*
X103474757Y-56259775D01*
X103455179Y-56235919D01*
X103360010Y-56157816D01*
X103251433Y-56099780D01*
X103133620Y-56064042D01*
X103041803Y-56054999D01*
X103041793Y-56054999D01*
X103011099Y-56051976D01*
X102980405Y-56054999D01*
X102743328Y-56054999D01*
X102755500Y-55993807D01*
X102755500Y-55766193D01*
X102711095Y-55542953D01*
X102623991Y-55332665D01*
X102497535Y-55143412D01*
X102336588Y-54982465D01*
X102147335Y-54856009D01*
X101937047Y-54768905D01*
X101713807Y-54724500D01*
X101486193Y-54724500D01*
X101262953Y-54768905D01*
X101249445Y-54774500D01*
X99410555Y-54774500D01*
X99397047Y-54768905D01*
X99173807Y-54724500D01*
X98946193Y-54724500D01*
X98722953Y-54768905D01*
X98512665Y-54856009D01*
X98424500Y-54914920D01*
X98424500Y-54305080D01*
X98512665Y-54363991D01*
X98722953Y-54451095D01*
X98946193Y-54495500D01*
X99173807Y-54495500D01*
X99397047Y-54451095D01*
X99410555Y-54445500D01*
X101249445Y-54445500D01*
X101262953Y-54451095D01*
X101486193Y-54495500D01*
X101713807Y-54495500D01*
X101937047Y-54451095D01*
X102147335Y-54363991D01*
X102336588Y-54237535D01*
X102497535Y-54076588D01*
X102623991Y-53887335D01*
X102711095Y-53677047D01*
X102755500Y-53453807D01*
X102755500Y-53226193D01*
X102711095Y-53002953D01*
X102623991Y-52792665D01*
X102497535Y-52603412D01*
X102336588Y-52442465D01*
X102147335Y-52316009D01*
X101937047Y-52228905D01*
X101925972Y-52226702D01*
X102400000Y-52229531D01*
X102522815Y-52217435D01*
X102640911Y-52181611D01*
X102749749Y-52123436D01*
X102845146Y-52045146D01*
X102923436Y-51949749D01*
X102981611Y-51840911D01*
X103017435Y-51722815D01*
X103029531Y-51600000D01*
X103026500Y-51092125D01*
X102869875Y-50935500D01*
X101735500Y-50935500D01*
X101735500Y-50955500D01*
X101464500Y-50955500D01*
X101464500Y-50935500D01*
X100330125Y-50935500D01*
X100330000Y-50935625D01*
X100329875Y-50935500D01*
X99195500Y-50935500D01*
X99195500Y-50955500D01*
X98924500Y-50955500D01*
X98924500Y-50935500D01*
X98904500Y-50935500D01*
X98904500Y-50664500D01*
X98924500Y-50664500D01*
X98924500Y-49530125D01*
X99195500Y-49530125D01*
X99195500Y-50664500D01*
X100329875Y-50664500D01*
X100330000Y-50664375D01*
X100330125Y-50664500D01*
X101464500Y-50664500D01*
X101464500Y-49530125D01*
X101735500Y-49530125D01*
X101735500Y-50664500D01*
X102869875Y-50664500D01*
X103026500Y-50507875D01*
X103029531Y-50000000D01*
X103017435Y-49877185D01*
X102981611Y-49759089D01*
X102923436Y-49650251D01*
X102845146Y-49554854D01*
X102749749Y-49476564D01*
X102640911Y-49418389D01*
X102522815Y-49382565D01*
X102400000Y-49370469D01*
X101892125Y-49373500D01*
X101735500Y-49530125D01*
X101464500Y-49530125D01*
X101307875Y-49373500D01*
X100800000Y-49370469D01*
X100677185Y-49382565D01*
X100559089Y-49418389D01*
X100450251Y-49476564D01*
X100354854Y-49554854D01*
X100330000Y-49585139D01*
X100305146Y-49554854D01*
X100209749Y-49476564D01*
X100100911Y-49418389D01*
X99982815Y-49382565D01*
X99860000Y-49370469D01*
X99352125Y-49373500D01*
X99195500Y-49530125D01*
X98924500Y-49530125D01*
X98767875Y-49373500D01*
X98424500Y-49371451D01*
X98424500Y-44576500D01*
X98642252Y-44576500D01*
X98592407Y-44617407D01*
M02*
